<?xml version="1.0" standalone="no"?>
<!DOCTYPE svg PUBLIC "-//W3C//DTD SVG 1.1//EN" "http://www.w3.org/Graphics/SVG/1.1/DTD/svg11.dtd" >
<svg xmlns="http://www.w3.org/2000/svg" xmlns:xlink="http://www.w3.org/1999/xlink" version="1.1">
<metadata>
Created by FontForge 20170731 at Mon May 16 05:15:08 2022
 By Aleksey,,,
Copyright (c) 2018 by Mika Melvas. Viet hoa by MTD. All rights reserved.
</metadata>
<defs>
<font id="MTD" horiz-adv-x="811" >
  <font-face 
    font-family="MTD Hangbird"
    font-weight="400"
    font-stretch="normal"
    units-per-em="2048"
    panose-1="0 0 5 0 0 0 0 0 0 0"
    ascent="1536"
    descent="-512"
    x-height="834"
    cap-height="1501"
    bbox="-2050 -834 4411 2347"
    underline-thickness="102"
    underline-position="-307"
    unicode-range="U+000D-FB02"
  />
<missing-glyph horiz-adv-x="1024" 
d="M840 1536v-2048h-650v2048h650zM682 1399h-338v-68h133v-76h-135v-67h340v67h-135v76h135v68zM547 1135h-205v-213h340v69h-135v144zM477 1065v-74h-67v74h67zM682 866h-340v-67h135v-76h-135v-68h205v144h135v67zM682 743h-68v-135h-272v-69h340v204zM682 494h-205v-115
h70v47h67v-96h-204v164h-68v-232h340v232zM682 139h-340v-231h340v231zM614 72v-97h-204v97h204zM682 -139h-340v-68h143l-143 -96v-68h340v68h-209l143 96h66v68z" />
    <glyph glyph-name=".notdef" horiz-adv-x="1024" 
d="M840 1536v-2048h-650v2048h650zM682 1399h-338v-68h133v-76h-135v-67h340v67h-135v76h135v68zM547 1135h-205v-213h340v69h-135v144zM477 1065v-74h-67v74h67zM682 866h-340v-67h135v-76h-135v-68h205v144h135v67zM682 743h-68v-135h-272v-69h340v204zM682 494h-205v-115
h70v47h67v-96h-204v164h-68v-232h340v232zM682 139h-340v-231h340v231zM614 72v-97h-204v97h204zM682 -139h-340v-68h143l-143 -96v-68h340v68h-209l143 96h66v68z" />
    <glyph glyph-name="uni0000" horiz-adv-x="0" 
 />
    <glyph glyph-name="uni0000" horiz-adv-x="0" 
 />
    <glyph glyph-name="uni000D" unicode="&#xd;" horiz-adv-x="512" 
 />
    <glyph glyph-name="space" unicode=" " horiz-adv-x="512" 
 />
    <glyph glyph-name="exclam" unicode="!" horiz-adv-x="591" 
d="M467 346q0 -18 -16 -18q-25 0 -58 35.5t-33 76.5q0 51 90 206.5t204 316.5t223 288t143 127q48 0 97.5 -31t49.5 -53q0 -11 -14 -14q-61 -25 -172 -148.5t-233 -291.5q-121 -166 -204 -310.5t-77 -183.5zM305 207q39 0 60.5 -20t21.5 -52q0 -55 -40.5 -95t-98.5 -40
q-28 0 -48 19.5t-20 43.5q0 55 39.5 99.5t85.5 44.5z" />
    <glyph glyph-name="quotedbl" unicode="&#x22;" horiz-adv-x="634" 
d="M625 942q-19 0 -40.5 24t-21.5 46q0 42 50.5 130.5t117 162t105.5 73.5q27 0 57.5 -21.5t30.5 -39.5q0 -14 -17 -17q-169 -139 -262 -337q-6 -21 -20 -21zM852 901q-19 0 -40 24t-21 46q0 41 71 140.5t157.5 183t125.5 83.5q29 0 65.5 -23t36.5 -40q0 -12 -14 -15
q-95 -65 -198.5 -176t-162.5 -202q-6 -21 -20 -21z" />
    <glyph glyph-name="numbersign" unicode="#" horiz-adv-x="1368" 
d="M1532 1296q35 0 70.5 -31t35.5 -53q0 -11 -14 -14q-80 -32 -278 -274h8q70 0 109.5 -36t39.5 -71q0 -22 -16 -22q-13 0 -20 4.5t-12 10.5t-32.5 10.5t-76.5 4.5q-51 0 -78 -2q-38 -47 -131 -174q96 8 135 8q64 0 97.5 -35.5t33.5 -76.5q0 -15 -6.5 -26t-16.5 -11
q-11 0 -15 5t-6 11.5t-23.5 11.5t-63.5 5q-53 0 -213 -4q-113 -168 -181.5 -299.5t-62.5 -178.5q0 -22 -10 -22q-14 0 -28.5 33.5t-14.5 83.5q0 106 164 376q-190 -8 -271 -16q-115 -193 -106 -250q0 -22 -14 -22q-18 0 -39 33.5t-21 82.5q0 45 47 144q-233 -24 -264 -51
q-10 -7 -16 -7q-7 0 -12 7t-5 16q0 17 13.5 34t40.5 25q97 32 286 62q27 49 115 190q-282 -34 -320 -69q-9 -9 -16 -9q-16 0 -16 21q0 23 25 44.5t70.5 38.5t88.5 30t99.5 23.5t82 14.5t56.5 9q109 158 207.5 266t142.5 108q30 0 59 -28.5t29 -52.5q0 -14 -14 -17
q-40 -13 -110 -83t-149 -173q175 14 275 19q121 162 217.5 269t124.5 107zM993 637q59 91 123 180q-128 -6 -278 -22q-62 -84 -127 -189q162 20 282 31z" />
    <glyph glyph-name="dollar" unicode="$" horiz-adv-x="915" 
d="M1237 1327q17 0 31 -7.5t14 -16.5q0 -10 -16 -15q-52 -28 -185 -184q56 -32 97.5 -81t40.5 -85q0 -55 -46 -109.5t-103 -86t-97 -31.5q-28 0 -49 17t-21 32q0 10 12 10q53 0 120 66t67 118t-84 52h-17q-168 -215 -309 -424q81 -17 113 -43t54 -93t22 -104
q0 -56 -70.5 -107.5t-171.5 -80.5t-195 -29q-26 0 -36 2q-55 -96 -95 -184q0 -21 -16 -21q-19 0 -40 24.5t-21 57.5q0 32 73 150q-37 19 -63.5 48.5t-38 58.5t-16.5 49t-5 32q0 34 15 52t35 18q11 0 18.5 -6.5t7.5 -18.5q0 -5 -4 -19.5t-4 -25.5q0 -34 31 -50.5t96 -19.5
q29 46 147 224q-57 16 -103 91.5t-46 139.5q0 90 96.5 186t241 158t276.5 62q9 0 15 -3q169 197 229 197zM602 602q155 220 289 389q-161 -35 -287.5 -133.5t-126.5 -187.5q0 -42 125 -68zM797 406q0 55 -172 77q-8 -13 -57.5 -91t-73.5 -118q134 10 218.5 49t84.5 83z" />
    <glyph glyph-name="percent" unicode="%" horiz-adv-x="1292" 
d="M791 1178q39 0 72.5 -20.5t53 -48t30.5 -52t11 -37.5q0 -51 -39 -120t-96 -128.5t-125.5 -101t-122.5 -41.5q-62 0 -100.5 40.5t-38.5 82.5q0 66 37.5 143.5t91.5 139t116.5 102.5t109.5 41zM365 41q-6 -14 -15 -14q-11 0 -22 22t-11 39q0 49 158.5 223.5t356.5 358.5
t381 330.5t227 146.5q32 0 66 -28t34 -48q0 -9 -12 -12q-69 -15 -258.5 -155.5t-385 -311t-352.5 -333t-167 -218.5zM563 719q48 0 121.5 62t127.5 140t54 123q0 35 -39 35q-44 0 -98.5 -38t-97 -90.5t-72 -108t-29.5 -88.5q0 -35 33 -35zM1098 557q38 0 71.5 -20.5t53 -48
t30.5 -52t11 -37.5q0 -69 -64 -162t-155 -161t-162 -68q-64 0 -102 40.5t-38 84.5q0 65 37 142t91 138t116.5 102.5t110.5 41.5zM868 96q48 0 122.5 62.5t129 141.5t54.5 124q0 35 -39 35q-45 0 -99.5 -38.5t-97 -91.5t-71.5 -108.5t-29 -89.5q0 -35 30 -35z" />
    <glyph glyph-name="ampersand" unicode="&#x26;" horiz-adv-x="1363" 
d="M1382 733q93 0 143 -35.5t50 -79.5q0 -16 -19 -16q-21 16 -96 16q-112 0 -235 -22q22 -24 35.5 -53.5t13.5 -44.5q0 -37 -80.5 -126t-200.5 -175q85 -50 187 -50q44 0 80.5 8.5t48.5 18.5q8 4 14 4q18 0 18 -26q0 -21 -14 -46.5t-41 -51.5t-75.5 -43t-108.5 -17
q-150 0 -256 112q-220 -116 -430 -116q-87 0 -155 26t-106 66.5t-57.5 84t-19.5 85.5q0 38 18 78.5t46.5 76.5t76.5 77t93 74t112 75t118.5 71.5t125.5 71.5q13 160 68.5 299t147.5 226.5t199 87.5q104 0 196.5 -71.5t92.5 -156.5q0 -42 -31 -88.5t-81.5 -91t-122.5 -94
t-147.5 -95.5t-163.5 -97q-27 -15 -40 -23q0 -228 93 -365q100 68 173.5 142.5t100.5 132.5q-146 -33 -190 -74q-13 -16 -19 -16q-22 0 -22 57q0 70 26 96q44 44 181.5 66t252.5 22zM1143 1284q-31 0 -68.5 -15t-79.5 -49.5t-79.5 -83t-68.5 -123t-46 -161.5q97 55 162 97
t128 90.5t94.5 93.5t31.5 86q0 32 -20 48.5t-54 16.5zM358 117q185 0 402 116q-79 156 -92 367q-97 -59 -165 -105.5t-131 -99.5t-95.5 -102.5t-32.5 -95.5q0 -41 27 -60.5t87 -19.5z" />
    <glyph glyph-name="quotesingle" unicode="'" horiz-adv-x="495" 
d="M707 942q-19 0 -40.5 24t-21.5 46q0 42 50.5 130.5t117 162t105.5 73.5q37 0 72.5 -23.5t35.5 -43.5q0 -14 -16 -17q-92 -65 -167 -154t-116 -177q-6 -21 -20 -21z" />
    <glyph glyph-name="parenleft" unicode="(" horiz-adv-x="657" 
d="M1303 1528q41 0 93 -42.5t52 -70.5q0 -18 -25 -18q-75 -1 -186.5 -53t-235 -141.5t-246.5 -218.5t-221 -273t-159.5 -317t-61.5 -339q0 -55 14.5 -98t35 -68t41 -44.5t35 -38.5t14.5 -39t-11 -30.5t-26 -10.5q-26 0 -60.5 30t-67.5 82.5t-56 138.5t-23 183
q0 161 60.5 334.5t157.5 320.5t218.5 281t243 228t231.5 149t183 55z" />
    <glyph glyph-name="parenright" unicode=")" horiz-adv-x="839" 
d="M-55 -274q-41 0 -93.5 42t-52.5 70q0 19 21 19h4q64 0 156 38t196 108.5t211 164t205 213.5t174.5 248.5t122 277t45.5 291.5q0 55 -14.5 98t-35 68.5t-40.5 45t-34.5 38.5t-14.5 39t10.5 30.5t25.5 10.5q26 0 60.5 -30t67.5 -82.5t56 -138.5t23 -183
q0 -161 -60.5 -334.5t-157.5 -320.5t-218 -281t-242.5 -228t-231.5 -149t-183 -55z" />
    <glyph glyph-name="asterisk" unicode="*" horiz-adv-x="925" 
d="M1186 1180q63 -2 105.5 -14t56.5 -25.5t14 -26.5q0 -7 -5 -12.5t-11 -5.5q-11 0 -17 6q-20 6 -94 6q-55 0 -86 -2q-90 -180 -90 -232q0 -6 3 -10.5t3 -9.5q0 -14 -16 -14q-27 0 -56.5 17.5t-29.5 45.5q-33 55 -78 88q-4 -4 -30 -29t-40 -40q-45 -52 -45 -72
q0 -12 -16 -12q-22 0 -49 20t-27 45q0 43 104 137q-53 17 -86 21q-8 -4 -16 -4q-28 0 -54 22t-26 41q0 13 16 13q52 12 320 32q145 113 209 172q4 11 20 11q27 0 57.5 -16.5t30.5 -35.5q0 -9 -8 -14q-17 -20 -59 -102zM977 971q14 54 43 125l-31 -2l-65 -64q29 -29 53 -59z
" />
    <glyph glyph-name="plus" unicode="+" horiz-adv-x="925" 
d="M754 555q85 0 123 -11.5t38 -37.5q0 -29 -30 -71t-60 -42q-13 0 -16 6q-34 15 -135 15q-55 0 -92 -2q-140 -219 -154 -273q0 -24 -18 -24q-26 0 -59 38t-32 72q0 27 93 181q-172 -11 -199 -23q-9 -6 -14 -6q-21 0 -21 22q0 27 28 66t73 51q63 15 219 29q189 282 239 282
q39 0 79 -19t40 -36q0 -10 -12 -16q-63 -52 -168 -203q31 2 78 2z" />
    <glyph glyph-name="comma" unicode="," horiz-adv-x="559" 
d="M125 -125q-23 0 -42.5 12.5t-19.5 26.5q0 16 27 25q41 19 120.5 116t108.5 164q3 25 33 25q33 0 70 -26.5t37 -57.5q0 -37 -65 -106.5t-146.5 -124t-122.5 -54.5z" />
    <glyph glyph-name="hyphen" unicode="-" horiz-adv-x="813" 
d="M707 399q-34 15 -136 15q-91 0 -209 -8.5t-149 -22.5q-9 -6 -14 -6q-21 0 -21 22q0 27 28 66t73 51q60 17 169 28t203 11q85 0 123.5 -11.5t38.5 -37.5q0 -29 -30 -71t-60 -42q-13 0 -16 6z" />
    <glyph glyph-name="period" unicode="." horiz-adv-x="552" 
d="M346 207q39 0 60.5 -20t21.5 -52q0 -55 -40.5 -95t-98.5 -40q-28 0 -48 19.5t-20 43.5q0 55 39.5 99.5t85.5 44.5z" />
    <glyph glyph-name="slash" unicode="/" horiz-adv-x="671" 
d="M47 -207q0 -18 -10 -18q-17 0 -37 35t-20 77q0 62 164.5 305t372 505t404 471.5t253.5 209.5q48 0 97.5 -31t49.5 -53q0 -11 -14 -14q-91 -23 -277 -208t-405 -451q-231 -282 -408 -536t-170 -292z" />
    <glyph glyph-name="zero" unicode="0" horiz-adv-x="937" 
d="M362 -33q-89 0 -153 77.5t-64 180.5q0 73 39 176.5t103 211t148.5 215t171 191t175.5 135.5t158 52q58 0 124 -49.5t66 -103.5q0 -37 -36.5 -75t-71.5 -38q-21 0 -35 14q17 16 32 41.5t15 46.5q0 39 -49 39q-65 0 -158.5 -69t-185 -177.5t-173 -230t-132.5 -239.5
t-53 -193q0 -27 13.5 -43t37.5 -16q81 0 187.5 77.5t199 188.5t165 238t93.5 223q3 34 25 34q26 0 57 -44t31 -91q0 -81 -77.5 -213.5t-187.5 -255.5t-240.5 -213t-224.5 -90z" />
    <glyph glyph-name="one" unicode="1" horiz-adv-x="591" 
d="M150 94q0 69 477 707q-103 -93 -203 -168.5t-139 -75.5q-25 0 -43.5 24.5t-18.5 49.5q0 26 29 26q88 35 266.5 185t376.5 348q12 12 27 12q25 0 53.5 -41.5t28.5 -83.5q0 -31 -21 -49q-131 -140 -394 -525.5t-321 -514.5q-3 -15 -18 -15q-28 0 -64 41.5t-36 79.5z" />
    <glyph glyph-name="two" unicode="2" horiz-adv-x="917" 
d="M86 -33q-23 0 -39 39t-16 78q0 46 18 49q259 144 500 325.5t391 344t152 250.5q0 49 -56 49q-75 0 -182 -54.5t-198.5 -138t-123.5 -159.5q-7 -19 -22 -19q-25 0 -44.5 38.5t-19.5 76.5q2 77 100.5 168.5t227 152t217.5 60.5q97 0 157 -68.5t60 -165.5q0 -72 -55 -163
t-141.5 -177.5t-197.5 -175.5t-217 -160.5t-206 -128.5q191 25 287 25q44 0 72 -42t28 -87q0 -53 -35 -53q-13 0 -30.5 11t-40.5 11q-109 0 -308 -28t-255 -52q-10 -6 -23 -6z" />
    <glyph glyph-name="three" unicode="3" horiz-adv-x="907" 
d="M279 -23q-60 0 -107.5 18.5t-73.5 47t-39.5 56.5t-13.5 51q0 32 21 32q17 0 38 -24q65 -19 134 -19q124 0 255 45t219.5 120t88.5 153q0 42 -25 62t-63 20q-55 0 -152 -41q-15 -9 -26 -9q-24 0 -40 30.5t-16 66.5q0 62 45 67q136 37 271.5 107t222 146.5t90.5 131.5
q2 24 -18 40t-54 16q-104 0 -254.5 -74t-220.5 -166q-6 -8 -18 -8q-21 0 -43 40.5t-19 71.5q5 52 96 113t210.5 101t205.5 40q98 0 164 -72t60 -173q-3 -48 -41 -100t-98 -97.5t-126.5 -84t-134.5 -67.5q107 -112 107 -204q0 -80 -43 -152t-112 -123t-154.5 -88.5
t-172.5 -55.5t-163 -18z" />
    <glyph glyph-name="four" unicode="4" horiz-adv-x="944" 
d="M494 -47q-29 0 -62 44t-33 85q0 13 7.5 32.5t25 49.5t27 46t34 53t25.5 38q-277 -20 -352 -51q-10 -6 -25 -6q-26 0 -39.5 33t-13.5 77q0 55 35 66q103 57 449.5 328.5t510.5 435.5q13 16 31 16q35 0 69 -47t34 -96q0 -28 -19 -39q-120 -132 -399 -561q37 0 54.5 -0.5
t41 -3.5t33.5 -9.5t21 -18.5t14.5 -30.5t3.5 -44.5q0 -51 -33 -51q-4 0 -21 9t-59 9q-53 0 -143 -4q-128 -203 -187 -329q0 -1 -1.5 -5.5l-2 -6t-2.5 -5.5t-4 -6t-4.5 -4t-6.5 -3t-9 -1zM317 430q32 3 293 21q38 56 142.5 221t150.5 227q-412 -352 -586 -469z" />
    <glyph glyph-name="five" unicode="5" horiz-adv-x="878" 
d="M827 639q0 29 -19.5 46t-51.5 17q-57 0 -141.5 -31.5t-131.5 -76.5q-8 -16 -24 -16q-28 0 -54 35.5t-24 70.5q1 39 84 152t151 192q-6 30 -6 59q0 62 39 78q34 15 164.5 30t226.5 15q105 0 147 -34.5t42 -81.5q0 -45 -35 -45q-10 0 -26 7t-40 7q-237 0 -358 -33
q-17 -18 -39 -47t-39.5 -54t-45.5 -67t-44 -65q65 26 135 26q89 0 149 -80t60 -186q0 -81 -44.5 -166.5t-117.5 -156.5t-159.5 -128t-178 -89.5t-165.5 -32.5q-60 0 -108 18t-74.5 45t-40 53.5t-13.5 49.5q0 30 18 30t41 -26q44 -13 86 -13q95 0 208.5 46.5t207.5 117
t157.5 161.5t63.5 173z" />
    <glyph glyph-name="six" unicode="6" horiz-adv-x="884" 
d="M356 -23q-99 0 -166 76.5t-67 175.5q0 76 42 181t111 212.5t160.5 214.5t186.5 189.5t193.5 134t176.5 51.5q52 0 87.5 -40.5t35.5 -75.5q0 -19 -14 -19q-6 0 -10 2q-82 0 -175.5 -41.5t-175.5 -107.5t-150 -138t-116 -143q77 66 167 107t132 41q70 0 128.5 -75.5
t58.5 -152.5q0 -91 -58.5 -197.5t-146 -192.5t-197 -144t-203.5 -58zM315 109q70 0 160.5 52t167 128.5t129.5 171t53 172.5q0 19 -8 29t-31 10q-75 0 -203 -84.5t-239 -210.5q-12 -12 -31 -12q-22 -36 -38.5 -91.5t-16.5 -97.5q0 -33 12.5 -50t44.5 -17z" />
    <glyph glyph-name="seven" unicode="7" horiz-adv-x="819" 
d="M324 -45q-25 0 -61 49t-36 86q0 59 295 404.5t473 515.5q-213 -25 -342 -25q-53 0 -90 48.5t-37 88.5q0 13 7 22t18 9q8 0 24 -5t37 -5q144 0 265.5 8.5t186.5 17.5t71 9q28 0 57 -49.5t29 -90.5q-2 -17 -19 -34q-99 -90 -287 -298.5t-360 -424.5t-205 -297
q-9 -29 -26 -29z" />
    <glyph glyph-name="eight" unicode="8" horiz-adv-x="946" 
d="M995 1237q62 0 112.5 -23t79.5 -59t43 -76.5t11 -77.5q-7 -84 -119 -177.5t-305 -205.5q59 -49 92 -98.5t33 -113.5q0 -65 -34.5 -127t-91 -110t-126 -88.5t-140.5 -67t-134 -41.5t-107 -15q-75 0 -130.5 43.5t-81 104.5t-25.5 128q0 39 29.5 82.5t73.5 82.5t116.5 86.5
t135.5 84.5t153 86q-70 77 -70 174q0 73 35 140t89.5 114.5t120.5 83t128.5 53t111.5 17.5zM688 715q55 30 87 48t80 46t77 46.5t65 43.5t57 43.5t41 39.5t29 40t9 37q0 41 -70 41q-52 0 -125 -23.5t-141.5 -61.5t-116 -94.5t-47.5 -113.5q0 -40 55 -92zM805 434
q0 31 -25 57t-75 62q-266 -149 -346 -202q-163 -108 -164 -175q0 -24 19 -37.5t75 -13.5q97 0 219.5 49.5t209.5 123t87 136.5z" />
    <glyph glyph-name="nine" unicode="9" horiz-adv-x="913" 
d="M260 -33q-58 0 -100.5 43t-42.5 80q0 19 14 19q11 0 23 -9q82 -1 175.5 39t177.5 103.5t165 144t144 160t108 153.5q-123 -116 -261 -213.5t-200 -97.5q-67 0 -112.5 74.5t-37.5 157.5q7 82 75.5 192t162.5 204.5t204.5 161t192.5 66.5q62 0 137.5 -54t75.5 -110
q0 -37 -38 -73.5t-74 -36.5q-17 0 -29 12q41 55 41 92q0 18 -11.5 30.5t-31.5 12.5q-68 0 -168 -63.5t-187 -150t-149.5 -181.5t-62.5 -154q0 -14 9 -25.5t21 -11.5q62 0 223 117t293 256q9 21 31 21q34 0 63.5 -37t26.5 -74q-7 -94 -101 -240.5t-222 -280t-278 -230.5
t-257 -97z" />
    <glyph glyph-name="colon" unicode=":" horiz-adv-x="636" 
d="M616 711q39 0 60.5 -20t21.5 -52q0 -55 -40.5 -95t-98.5 -40q-28 0 -47.5 19.5t-19.5 43.5q0 55 39 99.5t85 44.5zM346 207q39 0 60.5 -20t21.5 -52q0 -55 -40.5 -95t-98.5 -40q-28 0 -48 19.5t-20 43.5q0 55 39.5 99.5t85.5 44.5z" />
    <glyph glyph-name="semicolon" unicode=";" horiz-adv-x="677" 
d="M616 711q39 0 60.5 -20t21.5 -52q0 -55 -40.5 -95t-98.5 -40q-28 0 -47.5 19.5t-19.5 43.5q0 55 39 99.5t85 44.5zM119 -125q-23 0 -42.5 12.5t-19.5 26.5q0 16 27 25q41 19 120.5 116t108.5 164q3 25 33 25q33 0 70 -26.5t37 -57.5q0 -37 -65 -106.5t-146.5 -124
t-122.5 -54.5z" />
    <glyph glyph-name="less" unicode="&#x3c;" horiz-adv-x="985" 
d="M1094 795q11 0 18.5 -8.5t7.5 -20.5q0 -47 -92 -96q-65 -34 -213.5 -76t-290.5 -72q128 -63 227 -139t99 -125q0 -39 -44 -78t-79 -39q-24 0 -27 23q-32 63 -189.5 180t-199.5 117q-16 0 -16 16q0 29 38 70.5t75 44.5q78 10 359.5 95.5t313.5 103.5q8 4 13 4z" />
    <glyph glyph-name="equal" unicode="=" horiz-adv-x="935" 
d="M952 621q-27 12 -135 12q-105 0 -268 -7.5t-193 -19.5q-9 -6 -14 -6q-20 0 -20 21q0 25 27.5 60t72.5 46q57 14 214.5 24.5t260.5 10.5q86 0 124 -10.5t38 -34.5q0 -26 -30 -64.5t-60 -38.5q-13 0 -17 7zM809 371q-27 12 -135 12q-119 0 -275.5 -5.5t-185.5 -17.5
q-9 -6 -14 -6q-9 0 -15 6t-6 15q0 25 28 60t73 46q56 14 210.5 22.5t264.5 8.5q86 0 123.5 -10.5t37.5 -34.5q0 -26 -30 -64t-60 -38q-13 0 -16 6z" />
    <glyph glyph-name="greater" unicode="&#x3e;" horiz-adv-x="1003" 
d="M1020 563q16 0 16 -16q0 -29 -37.5 -70.5t-74.5 -44.5q-80 -10 -362 -88.5t-312 -95.5q-8 -4 -12 -4q-11 0 -19 8t-8 20q0 48 92 97q120 64 500 135q-123 62 -222.5 144.5t-99.5 131.5q0 39 44 78t79 39q24 0 27 -23q21 -42 106 -117.5t171 -134.5t112 -59z" />
    <glyph glyph-name="question" unicode="?" horiz-adv-x="894" 
d="M401 424q0 20 13 43t41 50.5t57 52t77 59t84 58.5t95 64t94 64q188 129 272.5 217t84.5 154q0 45 -64 45q-88 0 -220 -62t-239.5 -150.5t-130.5 -158.5q-3 -10 -10 -10q-20 0 -50 43t-30 76q0 77 110.5 168.5t259 152t255.5 60.5q98 0 168.5 -75t70.5 -175
q0 -85 -97.5 -188t-319.5 -248q-43 -29 -127 -82.5t-127 -82.5t-94.5 -67t-74 -65.5t-22.5 -49.5q-3 -12 -12 -12q-19 0 -41.5 39.5t-22.5 79.5zM319 207q39 0 60.5 -20t21.5 -52q0 -55 -40.5 -95t-98.5 -40q-28 0 -47.5 19.5t-19.5 43.5q0 55 39 99.5t85 44.5z" />
    <glyph glyph-name="at" unicode="@" horiz-adv-x="1542" 
d="M1278 1333q126 0 237 -54.5t180.5 -156.5t69.5 -227q0 -79 -30 -165.5t-78.5 -161.5t-110 -143.5t-123.5 -117t-121 -77.5t-102 -29q-60 0 -109 44t-49 89q0 44 39 143q-97 -103 -220.5 -203t-176.5 -100q-40 0 -84.5 48t-44.5 97q0 48 37.5 126t100.5 161t136 157.5
t152 122.5t141 48q55 0 116.5 -38t61.5 -79q0 -29 -20 -62.5t-45 -33.5q-12 0 -25 10q5 2 13 21.5t8 38.5q0 43 -45 43q-59 0 -145 -64t-158 -147.5t-124 -165.5t-52 -119q0 -23 20 -23q39 0 147 81.5t187 152t113 104.5q10 13 26 13q29 0 61.5 -31.5t32.5 -48.5q0 -6 -4 -6
q-23 -25 -69.5 -114.5t-46.5 -127.5q0 -21 16 -21q58 0 136.5 66.5t146.5 163.5t115.5 216t47.5 214q0 106 -64 167.5t-204 61.5q-127 0 -261 -54.5t-248 -143.5t-216 -205t-174 -237t-114 -240.5t-42 -214.5q0 -112 61 -176t191 -64q135 0 285.5 62t181.5 110q12 27 35 27
t23 -33q0 -35 -42.5 -85.5t-108.5 -96.5t-157 -78.5t-178 -32.5q-117 0 -219 56.5t-162.5 154t-60.5 211.5q0 98 46.5 224.5t125.5 255t190 253t231.5 220.5t258.5 155t264 59z" />
    <glyph glyph-name="A" unicode="A" horiz-adv-x="1937" 
d="M2222 1491q47 0 100.5 -65t53.5 -111q0 -26 -21 -29q-210 -243 -434 -663q104 -8 182 -72.5t78 -108.5q0 -18 -18 -18q-10 0 -23 8q2 4 2 10q0 44 -284 54q-185 -372 -185 -525q0 -29 20.5 -47.5t20.5 -32.5q0 -20 -26 -20q-51 0 -115 54t-64 132q0 130 158 443h-4
q-245 0 -514 -19q-164 -142 -288.5 -243t-255 -195t-233 -142t-173.5 -48q-77 0 -128 50t-51 93q0 27 19 27q11 0 24 -13q23 -20 66 -20q186 0 786 469q-367 -43 -403 -101q-20 -41 -43 -41q-12 0 -20.5 11t-8.5 26q0 58 80 95q212 97 559 141q140 112 394 322.5t429.5 351
t292.5 219.5q11 8 27 8zM1298 610q156 11 435 15q108 197 232.5 391.5t205.5 296.5l-6 8q-36 -24 -77.5 -54t-77 -56.5t-85.5 -67t-82 -66t-90.5 -75t-86.5 -73t-94 -80.5t-88.5 -76.5t-95 -83t-90.5 -79.5z" />
    <glyph glyph-name="B" unicode="B" horiz-adv-x="1501" 
d="M1884 1137q0 -75 -40.5 -146.5t-107 -128.5t-159 -109.5t-188.5 -91.5t-205 -73q107 -42 177.5 -119.5t70.5 -177.5q0 -70 -33.5 -134.5t-90.5 -113t-129.5 -88.5t-152.5 -65.5t-158 -39.5t-147 -14q-134 0 -206.5 55t-72.5 115q2 25 16.5 40t37.5 15q14 0 14 -10
q0 -3 -1 -9t-1 -11q0 -45 149 -45q99 0 208.5 27.5t204 75.5t156.5 121t62 155q0 153 -241 153q-180 0 -492 -76q-274 -387 -266 -532q0 -27 -23 -27q-27 0 -52.5 35.5t-25.5 95.5q0 148 193 443q-25 36 -25 73q0 21 7.5 38.5t21.5 17.5q4 0 12 -4l80 14q180 250 371 440.5
t274 190.5q47 0 87 -31t40 -55q0 -13 -14 -13q-45 0 -125 -61.5t-167.5 -155.5t-146 -161.5t-102.5 -122.5q140 25 283 63t284.5 92.5t251 115.5t177 136.5t67.5 151.5q0 86 -102 137t-314 51q-222 0 -462 -55t-426.5 -147t-262.5 -195q33 -8 97 -8q52 0 127 10
q-7 -29 -76 -68t-135 -39q-41 0 -84.5 53.5t-42.5 110.5q1 80 115.5 165t287.5 150t391.5 107.5t417.5 42.5q125 0 227 -21t169.5 -56t113.5 -82.5t66 -98.5t20 -106z" />
    <glyph glyph-name="C" unicode="C" horiz-adv-x="1351" 
d="M616 -158q-195 0 -328.5 125.5t-133.5 308.5q0 118 63.5 261.5t166.5 278.5t237.5 264t271.5 225t273 154.5t239 58.5q131 0 224 -86t93 -205q0 -79 -49 -174.5t-124 -180t-157.5 -156t-156 -113.5t-113.5 -42q-52 0 -101.5 40t-49.5 67q0 14 18 14q40 0 142 67t209 161
t189.5 206.5t82.5 190.5q0 40 -22.5 55.5t-78.5 15.5q-113 0 -250 -58t-268 -153t-256 -219.5t-218.5 -253.5t-150.5 -259.5t-57 -233.5t61 -151t191 -48q132 0 285.5 45.5t291 118.5t250 148t199.5 149q4 2 8 2q12 0 23.5 -18.5t11.5 -38.5q0 -9 -4 -17
q-96 -95 -219 -188.5t-259.5 -176t-278.5 -133.5t-255 -51z" />
    <glyph glyph-name="D" unicode="D" horiz-adv-x="1673" 
d="M199 979q30 -10 96 -10q52 0 127 10q-7 -29 -76 -68t-135 -39q-41 0 -81.5 53.5t-39.5 110.5q0 64 64.5 132t174 126.5t244.5 105.5t287.5 74t290.5 27q176 0 315 -52t221.5 -137.5t122.5 -191t33 -217.5q-8 -125 -61 -256.5t-136.5 -248t-195 -220.5t-233 -179
t-254 -119t-254.5 -44q-128 0 -201.5 56.5t-73.5 115.5q0 23 14.5 39t36.5 16q15 0 15 -12q0 -1 -1 -7t-1 -11q0 -47 151 -47q126 0 274.5 65t284.5 175.5t249 245t181 286.5t68 286q0 76 -31.5 136t-80.5 95.5t-114.5 58.5t-126.5 31.5t-124 8.5q-199 0 -414.5 -55
t-383 -147t-232.5 -193zM1208 1128q-63 -1 -222.5 -161.5t-320.5 -369t-283.5 -422.5t-117.5 -308q0 -27 -22 -27q-27 0 -52.5 37t-25.5 100q0 16 4 48q13 86 75 213t149.5 258t192.5 264t203 235.5t183 167t131 64.5q47 0 87 -31t40 -55q0 -13 -21 -13z" />
    <glyph glyph-name="E" unicode="E" horiz-adv-x="1236" 
d="M397 -150q-128 0 -241 103.5t-113 222.5q0 69 46.5 138t125 128.5t188 116.5t229.5 103.5t255 87.5q-8 -2 -31 -2q-44 0 -109.5 9.5t-95.5 20.5q-56 22 -94.5 75t-38.5 108q0 66 67 142.5t177 143.5t240 123t267 88.5t247 32.5q50 0 89 -25.5t58.5 -62.5t29 -71t9.5 -60
q0 -52 -94.5 -109t-149.5 -57q-15 0 -27 10t-10 21q166 131 166 176q0 20 -39 20q-122 0 -284.5 -48t-296.5 -113t-228 -134t-94 -110q0 -48 113 -73.5t268 -25.5q118 0 225 17q14 -2 30.5 -29.5t16.5 -56.5q0 -61 -53 -66q-193 -38 -365 -96t-293.5 -121t-211 -129.5
t-133 -126t-43.5 -106.5q0 -48 46 -77.5t136 -29.5q168 0 381 68.5t399.5 171.5t313.5 215q4 2 8 2q12 0 23.5 -18.5t11.5 -38.5q0 -7 -5 -17q-164 -149 -329.5 -258.5t-307.5 -168.5t-260 -86.5t-219 -27.5z" />
    <glyph glyph-name="F" unicode="F" horiz-adv-x="1320" 
d="M1407 672q102 0 163.5 -53t61.5 -95q0 -16 -14 -16t-23 12q-26 39 -157 39q-79 0 -181 -12q-92 -120 -149 -198t-120 -172.5t-93.5 -163.5t-30.5 -115q0 -30 10 -50q27 -6 27 -30q0 -10 -7 -17.5t-20 -7.5q-54 0 -111.5 60t-53.5 129q8 128 311 524q-221 -47 -393 -111
t-193 -116q-12 -25 -33 -25q-14 0 -24 11.5t-10 31.5q0 47 67 90q285 180 690 254q262 334 318 411q164 223 164 291q0 27 -17.5 37.5t-68.5 10.5q-147 0 -332 -47t-350.5 -117.5t-310.5 -147t-234 -141.5t-98 -96q23 -13 104 -13q149 0 258 31q-19 -42 -129.5 -88.5
t-198.5 -46.5q-57 0 -103.5 66t-43.5 137q3 65 97.5 146.5t246.5 157t329 140t362.5 103t328.5 38.5q53 0 98.5 -16.5t77 -42.5t53.5 -58.5t32.5 -64.5t10.5 -61q0 -79 -93 -223.5t-271 -376.5q20 2 53 2z" />
    <glyph glyph-name="G" unicode="G" horiz-adv-x="1396" 
d="M1442 621q117 0 182.5 -38.5t65.5 -76.5q0 -21 -23 -21q-30 21 -125 21q-79 0 -215 -17q22 -15 37.5 -35t15.5 -32q0 -7 -8 -10q-27 -11 -129 -148.5t-198.5 -309t-96.5 -249.5q0 -43 37 -49q6 2 10 2q15 0 15 -14t-12.5 -26.5t-32.5 -12.5q-23 0 -43.5 22.5t-33 54
t-19.5 63t-7 52.5q0 64 37.5 163.5t99.5 207.5q-162 -144 -322.5 -233t-289.5 -89q-85 0 -164 46t-129.5 130t-50.5 185q0 112 66 257t174 288.5t252.5 283t296 245.5t311.5 171.5t291 65.5q141 0 232 -83t91 -178q0 -71 -60 -160.5t-145 -163t-183 -124.5t-169 -51
q-59 0 -101 42.5t-42 71.5q0 11 8 11q2 0 10 -4q60 0 155.5 44.5t184 108.5t153 144t64.5 143q0 72 -108 72q-125 0 -278 -65.5t-297.5 -171.5t-282.5 -243t-241 -275t-165.5 -272.5t-62.5 -232.5q0 -69 33.5 -99t107.5 -30q81 0 184.5 35t197 85.5t196 119t173 122.5
t136.5 109q-167 -29 -308 -68.5t-178 -70.5q-15 -21 -24 -21q-12 0 -19.5 20t-7.5 48q0 69 33 102q57 57 313.5 97.5t407.5 40.5z" />
    <glyph glyph-name="H" unicode="H" horiz-adv-x="1601" 
d="M2114 1509q45 0 99 -31t54 -57q0 -6 -4.5 -10t-9.5 -4q-9 0 -17 2q-71 0 -252.5 -211.5t-381.5 -509.5h73q101 0 167.5 -56t66.5 -104q0 -28 -27 -28q-9 0 -18 6q-25 43 -260 43q-62 0 -95 -2q-141 -225 -228 -401t-87 -252q0 -37 23 -46q2 0 6 1t6 1q9 0 14.5 -6.5
t5.5 -15.5q0 -13 -11 -24t-30 -11q-62 0 -99 75t-30 155q11 159 219 512q-283 -22 -577 -70q-221 -339 -221 -471q0 -22 11 -32.5t11 -16.5q0 -21 -28 -21q-36 0 -80.5 47.5t-44.5 116.5q0 85 159 342q-399 -77 -438 -139q-20 -45 -45 -45q-9 0 -15.5 9t-6.5 24
q0 42 53.5 86t123.5 75t165 62t150 45t106 26q58 87 157 230.5t166 242.5t137 208t106 183.5t36 112.5q0 2 -1 7t-1 8q0 16 26 16q40 0 89.5 -40.5t49.5 -86.5q0 -39 -75.5 -154t-244.5 -346t-245 -340q280 47 565 64q130 207 274.5 396.5t270 312t183.5 122.5z" />
    <glyph glyph-name="I" unicode="I" horiz-adv-x="1292" 
d="M1821 1501q35 0 67.5 -44t32.5 -77q0 -18 -14 -18q-7 0 -11 2q-67 0 -259.5 -212.5t-393.5 -498t-297 -483.5q80 6 119 6q51 0 87.5 -28.5t51.5 -63t15 -66.5q0 -38 -21 -38q-10 0 -18 8q-28 47 -197 47q-26 0 -92 -4q-6 -21 -6 -39q2 -4 2 -10q0 -23 -31 -23
q-22 0 -47 16t-41 45q-149 -19 -297 -53t-256.5 -77.5t-126.5 -82.5q-13 -22 -31 -22q-14 0 -25.5 14t-11.5 35q0 54 76 98q279 160 676 218q44 127 183.5 354t323.5 466t335 380q-188 -40 -389 -101.5t-388.5 -149.5t-250.5 -169q42 -10 121 -10q56 0 131 10
q-5 -28 -90.5 -67.5t-155.5 -39.5q-42 0 -78.5 59t-36.5 109q0 66 102.5 141t262 138.5t341 116.5t353.5 83.5t285 30.5z" />
    <glyph glyph-name="J" unicode="J" horiz-adv-x="1435" 
d="M1438 1518q131 0 219 -85t84 -225q-4 -121 -78 -286.5t-199 -348.5q52 -8 80.5 -31t28.5 -46t-27 -23q-19 0 -39 10q-34 0 -108 -4q-120 -163 -261 -311t-286.5 -265.5t-291 -187t-261.5 -69.5q-125 0 -224.5 72t-99.5 173q0 77 63.5 154t171 142.5t238.5 124.5
t275.5 106t273.5 80.5t240 54.5q167 224 270 434.5t103 329.5q0 74 -90 74q-104 0 -228 -37.5t-236.5 -95t-220 -127.5t-186.5 -136t-127.5 -118.5t-50.5 -75.5q110 17 303 100q-5 -28 -55.5 -77t-118 -89.5t-111.5 -40.5q-45 0 -92 57t-47 115q0 66 76.5 155t201 174
t267 159t289.5 119t254 45zM211 -213q108 0 231.5 52t245 143.5t235.5 204.5t224 247q-237 -57 -477 -161t-398.5 -221t-160.5 -202q-2 -33 20.5 -48t79.5 -15z" />
    <glyph glyph-name="K" unicode="K" horiz-adv-x="1165" 
d="M2013 1651q56 0 97.5 -44.5t41.5 -84.5q0 -12 -7 -20.5t-19 -8.5q-16 8 -33 8q-95 0 -345 -162.5t-544 -401t-569 -493.5q93 -170 224 -328.5t276.5 -266t253.5 -107.5q27 0 53.5 25.5t44.5 25.5q12 0 19 -9t7 -22q0 -23 -33.5 -58t-93 -64t-120.5 -29q-90 0 -196.5 64.5
t-208 170.5t-191.5 228t-164 250q-239 -233 -359 -381q0 -19 -16 -19q-26 0 -59.5 43.5t-30.5 95.5q5 109 321 570q-14 49 -14 86q1 28 44 51.5t85 28.5q97 141 146.5 216t116 180t97 170t33.5 103q-3 31 25 31q37 0 86 -44.5t49 -82.5q0 -25 -26 -74.5t-81 -129.5
t-106 -149.5t-137 -185t-137 -186.5q9 -31 41 -104q263 256 560.5 509.5t543 426t325.5 172.5zM240 186q88 101 217 230q-12 23 -33 65q-118 -170 -184 -295z" />
    <glyph glyph-name="L" unicode="L" horiz-adv-x="1482" 
d="M1929 1237q0 -88 -54 -182.5t-145.5 -179.5t-216 -165t-262 -141t-286.5 -103.5t-287 -57.5q-99 -159 -176 -324q392 109 700 109q49 0 89.5 -21.5t63.5 -55t35.5 -69t12.5 -67.5q0 -26 -9 -42t-24 -16q-10 0 -16 4q4 30 -28.5 49.5t-89 28t-136.5 8.5q-173 0 -402 -35.5
t-404.5 -88.5t-201.5 -99q-8 -14 -18 -14q-9 0 -15 12t-6 31q0 42 28.5 86.5t88.5 68.5q113 45 238 84q-15 38 -15 70q0 78 99 274q-190 9 -304 82t-114 183q0 64 39.5 116.5t96 82t111 45.5t93.5 16q37 0 37 -13q-109 -48 -182.5 -122.5t-73.5 -147.5q0 -66 66.5 -105.5
t203.5 -39.5q24 0 82 4q76 132 173 269t214 272.5t232.5 240.5t235 170.5t216.5 65.5q135 0 223 -81t88 -202zM1716 1405q-104 0 -231.5 -75.5t-254.5 -203.5t-244 -275.5t-226 -313.5q180 43 365 126.5t335.5 186t249.5 223.5t107 230q3 53 -20 77.5t-81 24.5z" />
    <glyph glyph-name="M" unicode="M" horiz-adv-x="1808" 
d="M2292 1460q37 0 85 -29t48 -51q0 -7 -8 -10q-111 -114 -261 -322t-279 -421t-219.5 -406.5t-90.5 -275.5q0 -25 11 -42.5t11 -23.5q0 -24 -24 -24q-44 0 -99 58t-55 136q0 82 81.5 250.5t198 350.5t231.5 344t196 259l-7 4q-219 -165 -573.5 -498t-507.5 -517
q-3 -13 -18 -13q-32 0 -76.5 48t-44.5 94q0 41 101 223t253 407.5t273 362.5l-7 6q-168 -129 -399 -352t-442.5 -454.5t-359.5 -441.5t-148 -302q0 -8 -8 -8q-29 0 -71 50.5t-42 117.5q0 68 105.5 217.5t267.5 326.5t360 368t379.5 346t330 255t208.5 100q32 0 80.5 -39.5
t48.5 -68.5q0 -15 -15 -21q-64 -49 -309 -389t-397 -596q119 121 229 229t267 254t281 248.5t240 176t175 73.5z" />
    <glyph glyph-name="N" unicode="N" horiz-adv-x="1490" 
d="M2171 1561q43 0 92 -34.5t49 -58.5q0 -7 -8 -10q-71 -5 -202 -135t-276.5 -323.5t-291 -411t-259 -409t-167.5 -306.5q-3 -12 -21 -12q-39 0 -93 44.5t-54 94.5q0 142 56 528t137 643q-175 -160 -394.5 -430t-382.5 -535t-163 -380q0 -13 10 -30.5t10 -26.5
q0 -6 -4.5 -11.5t-11.5 -5.5q-27 0 -61.5 20t-64.5 65.5t-30 103.5q0 100 155 339.5t354 476t393 419t265 182.5q44 0 94 -41t50 -70q0 -13 -11 -18q-40 -105 -72.5 -229.5t-59 -276t-40 -241.5t-34.5 -250q-5 -35 -7 -52q94 187 238.5 422t297 450.5t293.5 362t214 146.5z
" />
    <glyph glyph-name="O" unicode="O" horiz-adv-x="1347" 
d="M1561 717q7 0 12.5 -9.5t5.5 -23.5q0 -43 -37 -68q-39 -31 -188 -77q-127 -180 -292 -336t-343.5 -254.5t-317.5 -98.5q-135 0 -237.5 85.5t-102.5 214.5q0 169 160 389q-153 99 -153 264q0 84 47 173.5t124.5 167t180.5 147.5t213 119.5t223.5 78.5t210.5 29
q218 0 362 -129.5t144 -313.5q0 -176 -143 -420q58 21 120 56q6 6 11 6zM184 776q-3 -80 117 -137q125 143 260.5 241.5t210.5 98.5q46 0 85.5 -36.5t39.5 -59.5q0 -9 -10 -9q-71 0 -186 -80t-232 -204q158 -29 334 -29q179 0 371 29q115 159 182 312t67 269q0 111 -65 159
t-201 48q-116 0 -239 -31.5t-228 -83t-199.5 -117t-161 -132t-106 -129.5t-39.5 -109zM301 -8q183 0 390.5 134t385.5 345q-205 -41 -393 -41q-177 0 -313 43q-86 -110 -137.5 -213t-51.5 -178q0 -47 24.5 -68.5t94.5 -21.5z" />
    <glyph glyph-name="P" unicode="P" horiz-adv-x="1361" 
d="M1159 1501q279 0 432.5 -103t153.5 -284q0 -101 -49.5 -200t-131.5 -179.5t-187.5 -150.5t-217.5 -117t-221.5 -73.5t-198.5 -26.5q-58 0 -110 35t-76 75q-134 -183 -218.5 -333t-84.5 -214q0 -21 10 -34t10 -21q0 -20 -22 -20q-37 0 -81 54.5t-44 131.5q0 64 59 180
t151 246t205.5 266.5t220.5 245.5t199 178.5t138 69.5q41 0 87 -25t46 -43q0 -9 -15 -12q-53 -1 -160.5 -94.5t-229 -233t-240.5 -301.5q32 -4 57 -4q81 0 186 24t214 65.5t214.5 102.5t187.5 130t132.5 152t50.5 165q0 221 -381 221q-208 0 -429.5 -55.5t-393 -147
t-246.5 -194.5q33 -8 96 -8q52 0 127 10q-7 -29 -76 -68t-135 -39q-41 0 -84 54t-43 110q0 76 100.5 160t255 150.5t355 110.5t387.5 44z" />
    <glyph glyph-name="Q" unicode="Q" horiz-adv-x="1290" 
d="M1561 -174q9 0 14.5 -5.5t5.5 -13.5q0 -47 -79.5 -102t-160.5 -55q-132 0 -268.5 105t-253.5 268q-234 -152 -413 -152q-135 0 -240 94.5t-105 239.5q0 159 146 368q-139 75 -139 226q0 93 46 186.5t122.5 171.5t177.5 146t210.5 114.5t222.5 73.5t212 27
q111 0 206.5 -37.5t159.5 -101t100 -146t36 -172.5q0 -137 -85 -309.5t-220.5 -334.5t-297.5 -292q116 -152 251 -251t251 -99q27 0 52.5 25.5t48.5 25.5zM330 12q179 0 399 150q-60 102 -94.5 195t-34.5 149q0 41 44 81t81 40q18 0 18 -13q0 -4 -2 -8q0 -140 123 -342
q230 194 392.5 452.5t162.5 444.5q0 112 -67.5 164.5t-210.5 52.5q-115 0 -236 -29.5t-224 -78.5t-196 -112t-158.5 -128.5t-104 -130.5t-38.5 -117q-3 -80 86 -125q126 157 275 272t219 115q48 0 91.5 -30.5t43.5 -50.5q0 -11 -14 -11q-47 0 -133.5 -54.5t-183 -145
t-183.5 -194.5t-144 -218t-57 -201q0 -58 30 -92.5t116 -34.5z" />
    <glyph glyph-name="R" unicode="R" horiz-adv-x="1413" 
d="M1806 1112q0 -103 -68 -203.5t-177 -180t-248 -146.5t-280.5 -111.5t-274.5 -67.5q91 -145 220.5 -277t271.5 -218t249 -86q27 0 52 25.5t48 25.5t23 -23q0 -36 -79 -89.5t-163 -53.5q-102 0 -223.5 63.5t-233 165.5t-209 217t-169.5 230q-27 4 -39 10
q-236 -337 -236 -463q0 -21 10.5 -34t10.5 -21q0 -20 -23 -20q-36 0 -81.5 55.5t-45.5 126.5q0 84 82.5 232t216.5 321q-12 40 -12 67q0 25 45 52.5t96 40.5q168 199 323 338t216 139q42 0 82.5 -32t40.5 -54q0 -13 -21 -13q-78 -22 -231.5 -172t-319.5 -356l19 -45
q150 25 322.5 85t327.5 140t257.5 182.5t102.5 200.5q0 105 -104 158t-302 53q-214 0 -455 -56.5t-431 -149t-261 -191.5q33 -8 96 -8q52 0 127 10q-7 -29 -76 -68t-135 -39q-40 0 -83.5 58t-43.5 114q0 54 71 118t194 123t272.5 108t322 78.5t326.5 29.5q132 0 236.5 -22
t171.5 -58.5t111 -87.5t62.5 -105.5t18.5 -115.5z" />
    <glyph glyph-name="S" unicode="S" horiz-adv-x="1230" 
d="M457 -156q-78 0 -142 16t-106 41t-74 58.5t-49 65t-27 65t-13 53.5t-3 35q0 35 20 56.5t43 21.5q12 0 20.5 -8t8.5 -23q0 -10 -4 -28.5t-4 -30.5q0 -70 70 -105.5t192 -35.5q132 0 282 37t255.5 98t105.5 123q0 38 -248 77q-277 44 -290 48q-99 29 -167.5 125.5
t-68.5 199.5q0 91 73 199t195 207t268 182t307 132.5t296 49.5q67 0 140 -39t122 -100t49 -119q0 -78 -71 -174.5t-172.5 -174.5t-221 -131.5t-209.5 -53.5q-80 0 -129 41t-49 77q0 9 6 15t15 6q7 0 15 -4t19 -4q82 0 179.5 34t184 88t159.5 116t116 122.5t43 102.5
q0 59 -102 59q-135 0 -293.5 -49t-298.5 -128t-257.5 -171.5t-186 -186.5t-68.5 -165q0 -27 20 -48t49 -34.5t77.5 -25t89 -17.5t100.5 -13q86 -11 131 -17.5t100 -22t80 -35.5q57 -46 92 -118.5t35 -119.5q0 -83 -109 -170t-274.5 -143t-320.5 -56z" />
    <glyph glyph-name="T" unicode="T" horiz-adv-x="927" 
d="M1882 1450q55 0 102.5 -51t47.5 -86q0 -29 -21 -29q-19 0 -45 23q-221 0 -534 -31q-163 -175 -380 -463.5t-382.5 -560.5t-165.5 -365q0 -30 20 -39q2 0 5.5 1t5.5 1q22 0 22 -22q0 -13 -11 -24t-30 -11q-52 0 -99.5 67.5t-47.5 145.5q0 88 137 318.5t327 483.5t361 439
q-388 -56 -671.5 -146t-350.5 -194q17 -14 121 -14q52 0 127 10q-1 -24 -97 -65t-143 -41q-51 0 -95 61t-44 111q0 77 118 150.5t313 130.5t422 99.5t468 69.5q39 35 61.5 50.5t42.5 15.5q48 0 93 -49q164 14 323 14z" />
    <glyph glyph-name="U" unicode="U" horiz-adv-x="1271" 
d="M1800 1499q41 0 90 -35.5t49 -58.5q0 -12 -16 -12q-72 -43 -225.5 -239.5t-304.5 -428t-266.5 -457.5t-116.5 -319q0 -45 24 -55q2 0 5 1t5 1q11 0 18 -7.5t7 -17.5q0 -12 -10 -22.5t-29 -10.5q-52 0 -105 66t-53 135q0 123 105 311.5t303 464.5l-10 6
q-147 -164 -288 -309t-278 -270t-248.5 -198t-174.5 -73q-79 0 -149.5 79.5t-70.5 174.5q0 114 134 335.5t333 475.5q-28 7 -43.5 21.5t-15.5 29.5q0 8 5.5 15t14.5 8q20 7 127 93.5t193 164.5q148 148 197 148q41 0 86 -40.5t43 -68.5q0 -15 -17 -18q-54 -9 -203.5 -166
t-303.5 -355t-274 -397t-120 -281q0 -57 47 -57q60 0 196.5 95t298.5 239t334.5 311.5t312.5 315t226 247.5q126 158 168 158z" />
    <glyph glyph-name="V" unicode="V" horiz-adv-x="1032" 
d="M1409 1640q49 0 91 -29t67 -71.5t39 -85.5t14 -76q0 -83 -106 -233t-268 -316.5t-357 -344.5t-370.5 -322.5t-311.5 -245.5q-14 -14 -37 -14q-41 0 -85 42t-44 76q0 13 6 19q84 146 203.5 421.5t206.5 534.5q-24 -4 -35 -4q-21 0 -33 6.5t-12 14.5q0 9 10 16
q25 25 92 182.5t96 259.5q3 25 25 25q36 0 87.5 -51.5t51.5 -95.5q0 -84 -166 -521t-309 -700q128 104 285 245t325.5 307.5t307 319.5t228 286t89.5 202q0 57 -69 57q-110 0 -246 -104q4 52 76 126t149 74z" />
    <glyph glyph-name="W" unicode="W" horiz-adv-x="1835" 
d="M2085 1640q85 0 153 -81t68 -183q0 -93 -63.5 -241t-164 -307.5t-230.5 -323.5t-259 -293.5t-253.5 -211t-209.5 -81.5q-40 0 -82.5 22t-78.5 60t-59 97.5t-23 127.5q0 209 200 588q-160 -175 -338 -357t-347 -350t-210 -210q-12 -15 -32 -15q-38 0 -82.5 44.5
t-44.5 76.5q0 10 6 16q299 427 586 918q-24 -6 -41 -6q-43 0 -43 20q0 10 10 17q35 35 131.5 202t128.5 281q3 16 22 16q35 0 86.5 -52t51.5 -95q0 -82 -212 -447.5t-438 -681.5q243 220 576.5 565t486.5 531q8 10 23.5 32t23.5 32q0 22 25 22q36 0 81.5 -37.5t45.5 -72.5
q0 -21 -12 -27q-72 -69 -202.5 -270.5t-243.5 -440t-113 -360.5q0 -101 86 -101q69 0 178.5 81.5t226.5 210.5t238 291t215.5 318t154.5 297.5t60 225.5q0 57 -49 57q-65 0 -141 -39.5t-130 -105.5q-4 16 -4 26q0 61 79 138t163 77z" />
    <glyph glyph-name="X" unicode="X" horiz-adv-x="1394" 
d="M2019 1466q27 -1 62 -39t35 -63q0 -16 -19 -16q-1 0 -4.5 1t-5.5 1q-208 -55 -531.5 -261t-666.5 -481q-15 -111 -15 -211q0 -291 127 -291q79 0 260.5 98t370.5 259q4 2 8 2q12 0 23.5 -18.5t11.5 -38.5q0 -9 -4 -17q-220 -202 -416 -320t-276 -118q-68 0 -147 82
t-105 180q-22 83 -22 193q0 33 2 51q-247 -209 -415.5 -381.5t-191.5 -243.5q-3 -37 -26 -37q-19 0 -36.5 27t-17.5 63q0 82 197.5 289t505.5 465q17 147 49 309q-68 3 -67 25q2 7 8 14q9 18 67.5 179t83.5 212q21 40 80 58t119 18q57 0 57 -22q0 -12 -8 -17
q-32 -2 -93 -193t-104 -425q96 77 224.5 171.5t305 215.5t334.5 200.5t240 79.5z" />
    <glyph glyph-name="Y" unicode="Y" horiz-adv-x="1241" 
d="M1788 1507q42 0 85.5 -36.5t43.5 -61.5q0 -10 -12 -10q-79 -39 -257.5 -275.5t-354.5 -518.5t-310.5 -552t-134.5 -368q0 -32 22 -41q2 0 6.5 1t6.5 1q10 0 16 -7t6 -16q0 -12 -10.5 -23.5t-28.5 -11.5q-65 0 -129.5 72.5t-64.5 149.5q0 54 42.5 150t102 197t156 243.5
t172.5 248.5t183 253q10 14 16 22t14.5 19.5t15.5 21.5l-8 6q-188 -206 -389.5 -394.5t-382.5 -318t-264 -129.5q-75 0 -141 80.5t-66 175.5t104.5 269.5t264.5 377.5q-33 7 -51.5 22.5t-18.5 30.5q0 22 20 25q21 7 134 97.5t208 172.5q146 136 181 136q40 0 89.5 -40
t49.5 -67q0 -17 -25 -20q-45 -10 -175 -142.5t-266.5 -300t-243.5 -340.5t-107 -252q0 -57 49 -57q89 0 354.5 204t526.5 448t401 403q126 155 170 155z" />
    <glyph glyph-name="Z" unicode="Z" horiz-adv-x="1286" 
d="M1763 1503q6 6 15 6q26 0 55 -49t29 -90q0 -32 -29 -41q-241 -159 -671.5 -521t-811.5 -708q178 47 382.5 81t326.5 34q79 0 130.5 -47.5t51.5 -93.5q0 -35 -35 -35q-8 0 -12.5 5.5t-5 8.5l-2.5 15q-7 22 -58 22q-199 0 -466.5 -77.5t-458.5 -162.5q-12 -8 -19 -8
q-36 0 -77 73.5t-41 131.5q0 34 22 45q195 197 646.5 584t762.5 594q-203 -47 -430 -77t-336 -30q-97 0 -150 50.5t-53 140.5q0 21 8 32t19 11q15 0 26.5 -18.5t8.5 -47.5q0 -41 131 -41q200 0 575.5 80t466.5 133z" />
    <glyph glyph-name="bracketleft" unicode="[" horiz-adv-x="579" 
d="M1350 1470q8 -13 8 -34q0 -30 -12.5 -54.5t-30.5 -23.5q-14 22 -123 22q-48 0 -98 -4q-160 -165 -467 -602q-174 -250 -306.5 -462.5t-170.5 -309.5q140 0 243 16q11 11 23 11q30 0 66 -32.5t38 -59.5q0 -26 -108 -47t-179 -21q-85 0 -154.5 59.5t-66.5 128.5
q5 116 482 791q153 215 289 397t163 209q35 36 70.5 45.5t120.5 9.5q186 0 213 -39z" />
    <glyph glyph-name="backslash" unicode="\" horiz-adv-x="593" 
d="M180 -207q38 42 139 331t189 622t88 464q0 55 -16 66q-11 3 -11 10q0 20 51 46t101 26q39 0 39 -86q0 -135 -89 -450t-190.5 -588t-146.5 -347q-35 -56 -78.5 -88t-69.5 -32q-12 0 -12 12q0 8 6 14z" />
    <glyph glyph-name="bracketright" unicode="]" horiz-adv-x="839" 
d="M41 -106q-21 21 -34 49t-13 49q0 10 4 15.5t12 4.5q10 -18 109 -18q80 0 137 8q29 42 99.5 150.5t176.5 271t187 285.5q368 551 475 663q-10 0 -41.5 1t-50.5 1q-66 0 -152 -4q-8 -4 -12 -4q-27 0 -62.5 29t-35.5 61q0 10 30.5 17t75 10.5t76 4.5t51.5 1
q99 0 180.5 -54.5t81.5 -107.5q0 -14 -10 -27q-105 -124 -457 -645q-299 -446 -460 -721q-40 -65 -193 -65q-145 0 -174 25z" />
    <glyph glyph-name="asciicircum" unicode="^" horiz-adv-x="839" 
d="M1153 1468q39 0 73 -28t34 -49q0 -10 -9 -13q-19 -10 -99.5 -229.5t-88.5 -296.5q-3 -18 -23 -18q-29 0 -67.5 29.5t-38.5 54.5q0 23 52 175.5t83 215.5q-73 -56 -227 -205.5t-185 -210.5q-3 -12 -16 -12q-22 0 -48.5 27t-23.5 53q5 41 136 166.5t272.5 233t175.5 107.5z
" />
    <glyph glyph-name="underscore" unicode="_" horiz-adv-x="1122" 
d="M1122 -170q0 -35 -20 -35q-12 0 -19 10q-50 50 -340 50q-228 0 -424 -30t-219 -83q3 -16 -10 -16q-23 0 -57.5 41.5t-34.5 87.5q0 43 64.5 73.5t170.5 44.5t203 19.5t201 5.5q41 0 67.5 -0.5t75 -2.5t82 -6.5t77 -12t73 -20.5t56.5 -30t40.5 -41.5t13.5 -54.5z" />
    <glyph glyph-name="a" unicode="a" horiz-adv-x="931" 
d="M1178 465q12 0 23 -18.5t11 -38.5q0 -9 -4 -17q-162 -149 -299.5 -252.5t-179.5 -103.5q-32 0 -72.5 44t-40.5 83q0 57 54 180q-113 -120 -256.5 -235t-204.5 -115q-45 0 -92 55.5t-47 112.5t44.5 148.5t118 188.5t158.5 184t176.5 142.5t161.5 55.5q68 0 136.5 -43.5
t68.5 -92.5q0 -34 -25.5 -73t-54.5 -39q-14 0 -27 10q6 4 14.5 27t8.5 45q0 49 -53 49q-56 0 -132.5 -48.5t-149 -122.5t-136 -154t-102.5 -150t-39 -105q0 -26 24 -26q43 0 169 94.5t221 179t132 121.5q16 16 35 16q34 0 69.5 -36t35.5 -58q0 -4 -4 -8q-26 -28 -79 -118
t-53 -126q0 -18 15 -18q31 0 134 74.5t232 185.5q4 2 9 2z" />
    <glyph glyph-name="b" unicode="b" horiz-adv-x="929" 
d="M1176 465q13 0 23.5 -18.5t10.5 -38.5q0 -9 -4 -17q-165 -158 -384 -265.5t-363 -107.5q-63 0 -101.5 41t-38.5 78q0 21 15 21q8 0 24 -13q75 0 169 61t169 144t126.5 171.5t51.5 142.5q0 19 -6.5 27.5t-23.5 8.5q-48 0 -178.5 -102.5t-240 -206t-212.5 -207.5
q-52 -95 -88 -192q-6 -15 -19 -15q-23 0 -53 46.5t-30 89.5q0 16 6 28q50 127 246 426t398 554t259 255q45 0 93 -30.5t48 -53.5q0 -11 -14 -14q-74 -42 -199.5 -182t-242 -294.5t-234.5 -326.5q127 131 279.5 240.5t232.5 109.5q54 0 92.5 -50t38.5 -111q0 -92 -89.5 -236
t-207.5 -231q239 84 438 266q4 2 9 2z" />
    <glyph glyph-name="c" unicode="c" horiz-adv-x="684" 
d="M289 -18q-81 0 -144 77t-63 144q0 78 57.5 191.5t138.5 213t175.5 171t162.5 71.5q69 0 139 -57t70 -115q0 -47 -44.5 -94t-99.5 -73t-93 -26t-35 27q56 42 105 102.5t49 92.5q0 22 -29 22q-65 0 -173 -100.5t-191 -230t-83 -205.5q0 -68 74 -68q64 0 162.5 43t191 103
t162.5 111.5t101 80.5q4 2 8 2q13 0 24 -19t11 -38q0 -9 -4 -17q-71 -65 -150.5 -129t-175.5 -130.5t-188.5 -108t-157.5 -41.5z" />
    <glyph glyph-name="d" unicode="d" horiz-adv-x="944" 
d="M1393 1378q48 0 97.5 -31t49.5 -53q0 -11 -14 -14q-77 -30 -264 -266t-341.5 -482.5t-154.5 -308.5q0 -16 12 -16q44 0 163.5 76t240.5 180q4 2 8 2q12 0 23.5 -18.5t11.5 -38.5q0 -9 -4 -17q-157 -144 -311 -250t-210 -106q-32 0 -72 44t-40 83q0 55 43 155
q-104 -117 -230 -221t-186 -104q-41 0 -91.5 52t-53.5 97q-4 56 34 144t104 180t143.5 174.5t162.5 135t152 52.5q50 0 106 -37.5t78 -82.5q162 249 332.5 460t210.5 211zM262 158q41 0 145.5 79t192 160t145.5 142q14 22 31 53q6 15 6 43q0 76 -65 76q-78 0 -195.5 -108
t-201.5 -234t-84 -183q0 -28 26 -28z" />
    <glyph glyph-name="e" unicode="e" horiz-adv-x="681" 
d="M928 465q13 0 24 -19t11 -38q0 -7 -5 -17q-67 -60 -143 -120.5t-170 -125t-185 -105t-155 -40.5q-91 0 -157 72t-66 153q0 70 56.5 177t137.5 205t179.5 168.5t173.5 70.5q69 0 129.5 -56t60.5 -110q0 -57 -66 -128t-172.5 -123t-207.5 -52q-37 0 -70 10
q-67 -108 -67 -172q0 -72 81 -72q63 0 162 42t189.5 99.5t159 106.5t92.5 72q4 2 8 2zM678 725q-56 0 -150 -78t-172 -184h9q56 0 139 43t144 100.5t61 95.5q0 23 -31 23z" />
    <glyph glyph-name="f" unicode="f" horiz-adv-x="600" 
d="M926 1319q41 0 89 -29.5t48 -52.5q0 -15 -25 -18q-89 -57 -242.5 -237t-322.5 -417q31 -98 31 -200q0 -53 -6 -105q138 26 340 203q2 2 8 2q12 0 23.5 -20t11.5 -39q0 -7 -4 -15q-109 -107 -218 -177t-190 -89q-40 -146 -115.5 -278t-159.5 -209.5t-151 -77.5
q-62 0 -108 57t-46 127q0 98 96 294.5t251 436.5q5 75 33 124.5t75 49.5h6q188 275 356 472.5t220 197.5zM408 465v6q-39 -54 -86 -129q11 -60 59 -78q27 115 27 201zM27 -299q56 0 153.5 132.5t161.5 305.5q-51 37 -80 115q-260 -409 -260 -520q0 -33 25 -33z" />
    <glyph glyph-name="g" unicode="g" horiz-adv-x="888" 
d="M55 -502q-73 0 -119.5 52t-46.5 106q0 27 13.5 52t44 50t65 47t90 49.5t104.5 50.5t124.5 59t134.5 65q108 159 199 327q-99 -109 -252 -229.5t-226 -120.5q-44 0 -90.5 47.5t-46.5 93.5q0 57 43 147t114 184.5t153 178.5t169.5 137.5t153.5 53.5q64 0 126 -42.5
t62 -92.5q0 -34 -25 -73.5t-54 -39.5q-14 0 -27 10q6 4 14 27t8 45q0 49 -53 49q-82 0 -207 -112.5t-215 -243.5t-90 -189q0 -28 27 -28q41 0 163 92t223 183t124 118q6 6 18 6q30 0 69.5 -30.5t39.5 -51.5q0 -6 -4 -10q-39 -103 -152 -293q225 137 397 291q4 2 9 2
q12 0 23 -18.5t11 -38.5q0 -9 -4 -17q-83 -84 -229.5 -181t-288.5 -169q-70 -106 -141.5 -198t-150 -172t-157 -126.5t-143.5 -46.5zM0 -377q78 0 192.5 88t194.5 197q-179 -87 -295.5 -160.5t-116.5 -105.5q0 -19 25 -19z" />
    <glyph glyph-name="h" unicode="h" horiz-adv-x="968" 
d="M1214 465q12 0 23.5 -18.5t11.5 -38.5q0 -9 -4 -17q-158 -147 -305.5 -251.5t-200.5 -104.5q-39 0 -75.5 54t-36.5 106q0 78 90 223.5t168 236.5l-8 9q-69 -51 -223 -181t-311.5 -276.5t-182.5 -196.5q-11 -14 -27 -14q-30 0 -61 46t-31 95q0 11 4 27q15 54 137 250
t271.5 410.5t295.5 384t199 169.5q30 0 81.5 -31.5t51.5 -52.5q0 -11 -14 -14q-33 -14 -76 -49t-94.5 -93.5t-99 -115t-110 -142.5t-106 -146t-107 -155t-93.5 -139.5t-86 -130t-64 -98.5q106 107 255 244.5t303 259t198 121.5q34 0 85.5 -49.5t51.5 -79.5q0 -14 -12 -17
q-105 -84 -208 -241t-103 -220q0 -22 18 -22q36 0 151.5 75.5t235.5 180.5q4 2 8 2z" />
    <glyph glyph-name="i" unicode="i" horiz-adv-x="462" 
d="M805 1303q33 0 76 -31.5t43 -50.5q0 -9 -11 -9q-31 -5 -114.5 -94.5t-120.5 -138.5q-4 -4 -8 -4q-18 0 -39.5 29.5t-20.5 54.5q1 30 35.5 88.5t81.5 107t78 48.5zM195 2q-37 0 -80 56t-43 100q0 61 89.5 226.5t196 307.5t148.5 142q33 0 77 -27.5t44 -48.5q0 -8 -11 -13
q-26 -12 -115.5 -126.5t-171 -246t-81.5 -177.5q0 -21 18 -21q41 0 178.5 92t255.5 197q4 2 9 2q12 0 23 -18.5t11 -38.5q0 -9 -4 -17q-171 -160 -329 -274.5t-215 -114.5z" />
    <glyph glyph-name="j" unicode="j" horiz-adv-x="542" 
d="M879 1317q34 0 73 -32.5t39 -53.5q0 -9 -10 -12q-34 -12 -113.5 -94.5t-111.5 -125.5q-3 -6 -11 -6q-16 0 -36.5 29.5t-20.5 54.5q0 29 33.5 87t80 105.5t77.5 47.5zM788 465q12 0 23.5 -18.5t11.5 -38.5q0 -9 -4 -17q-184 -156 -557 -362q-296 -529 -532 -529
q-82 0 -140.5 50t-58.5 96q0 21 8 41.5t26.5 41.5t39 39t56 40.5t65.5 40t80 43t87 44.5t99 49.5t104 51.5q48 82 187 352q-15 2 -32.5 22t-17.5 38q0 6 3 12q110 98 163 151l45 74q35 57 61.5 85t55.5 28q33 0 77 -26.5t44 -45.5q0 -9 -10 -12q-40 -27 -95 -110
t-100 -167.5t-117 -227.5q-5 -10 -7.5 -15.5t-7 -13.5t-7.5 -15q244 140 442 297q4 2 8 2zM-346 -385q85 0 186.5 86t190.5 217q-171 -83 -292.5 -164.5t-121.5 -118.5q0 -20 37 -20z" />
    <glyph glyph-name="k" unicode="k" horiz-adv-x="880" 
d="M1126 465q12 0 23.5 -18.5t11.5 -38.5q0 -9 -4 -17q-81 -72 -135 -117.5t-128 -103t-129.5 -86.5t-90.5 -29q-58 0 -112.5 84.5t-51.5 210.5q-131 -111 -231 -208t-119 -132q-8 -14 -25 -14q-29 0 -61.5 47.5t-32.5 91.5q0 21 4 29q47 117 238 409.5t394.5 548.5
t266.5 256q38 0 87.5 -31t49.5 -53q0 -11 -14 -14q-67 -28 -170.5 -139.5t-237.5 -300t-203.5 -291.5t-185.5 -282q-24 -36 -34 -52q103 109 244.5 244t288 253.5t192.5 118.5q29 0 71.5 -38t42.5 -64q0 -16 -12 -16q-2 0 -5 1t-5 1q-88 0 -408 -252v-19q0 -89 35.5 -157
t73.5 -68q35 0 138 69.5t226 174.5q4 2 8 2z" />
    <glyph glyph-name="l" unicode="l" horiz-adv-x="466" 
d="M188 2q-35 0 -70.5 47.5t-35.5 100.5q0 86 111.5 300.5t254 428.5t280.5 380t187 166q26 0 43 -24t22 -47.5t5 -44.5q0 -67 -198 -317t-404 -464q-123 -228 -123 -315q0 -39 29 -39q82 0 416 289q4 2 8 2q12 0 23.5 -18.5t11.5 -38.5q0 -7 -5 -17q-430 -389 -555 -389z
" />
    <glyph glyph-name="m" unicode="m" horiz-adv-x="1323" 
d="M1569 465q12 0 23.5 -18.5t11.5 -38.5q0 -7 -5 -17q-158 -147 -305 -251.5t-200 -104.5q-39 0 -76 54t-37 106q0 78 90 223.5t168 236.5l-8 9q-100 -75 -354.5 -327t-292.5 -327q-8 -14 -25 -14q-28 0 -58 44.5t-30 86.5q0 20 10 37q39 83 136 246t145 219l-8 8
q-100 -75 -341.5 -313.5t-279.5 -313.5q-8 -14 -24 -14q-28 0 -58.5 44.5t-30.5 86.5q0 19 11 37q34 55 149.5 219.5t196 289t80.5 154.5q0 2 -1 5.5t-1 5.5q0 14 18 14q33 0 76.5 -36.5t42.5 -76.5q0 -4 -6 -15.5t-18.5 -30.5t-26.5 -39.5t-35 -51t-39 -56t-44.5 -62.5
t-45 -62.5t-46.5 -65t-44 -61.5q178 192 352.5 353t228.5 161q29 0 81 -50t52 -79q0 -13 -12 -16q-128 -116 -301 -412q112 122 235.5 245.5t251.5 231t171 107.5q29 0 81 -50t52 -79q0 -14 -13 -17q-105 -84 -208 -241t-103 -220q0 -22 19 -22q36 0 151.5 75.5t235.5 180.5
q4 2 8 2z" />
    <glyph glyph-name="n" unicode="n" horiz-adv-x="913" 
d="M1159 465q12 0 23.5 -18.5t11.5 -38.5q0 -9 -4 -17q-158 -147 -305.5 -251.5t-200.5 -104.5q-39 0 -76 54t-37 106q0 78 90 223.5t168 236.5l-8 9q-113 -85 -382 -333t-306 -321q-8 -14 -24 -14q-28 0 -58.5 44.5t-30.5 86.5q0 19 11 37q34 54 149 220.5t195 290.5
t80 152q0 2 -1 6.5t-1 6.5q0 12 18 12q33 0 77.5 -36.5t43.5 -76.5q0 -6 -10.5 -23.5t-32.5 -50t-42.5 -63t-56 -80t-58.5 -81.5t-64 -88.5t-58 -80.5q197 202 401.5 383t264.5 181q29 0 81 -50t52 -79q0 -14 -12 -17q-105 -85 -208.5 -241.5t-103.5 -219.5q0 -22 19 -22
q36 0 151.5 75.5t235.5 180.5q4 2 8 2z" />
    <glyph glyph-name="o" unicode="o" 
d="M1122 528q6 1 11.5 -9.5t5.5 -22.5q0 -28 -21 -39q-181 -75 -348 -111q-105 -139 -243 -242.5t-244 -103.5q-99 0 -161.5 65t-62.5 132q0 69 66 161t137 134q-10 38 -10 69q0 64 60.5 137t153 122.5t175.5 49.5q51 0 93.5 -20.5t69.5 -52t46 -69t27 -70.5t8 -58
q0 -51 -37 -127q188 21 274 55zM686 754q-58 0 -138.5 -42t-137 -95.5t-56.5 -86.5q0 -36 73.5 -54.5t188.5 -18.5h50q92 134 92 221q0 76 -72 76zM244 127q56 0 139.5 54.5t169.5 140.5q-154 3 -238 84q-47 -50 -84.5 -118t-37.5 -112q0 -49 51 -49z" />
    <glyph glyph-name="p" unicode="p" horiz-adv-x="911" 
d="M1157 465q12 0 23.5 -18.5t11.5 -38.5q0 -9 -4 -17q-169 -155 -380.5 -264t-348.5 -109q-63 0 -101.5 41t-38.5 78q0 21 15 21q8 0 24 -13q75 0 168.5 63.5t168 149.5t126 177t51.5 145q0 37 -30 37q-50 0 -164.5 -87.5t-217.5 -188t-186 -191.5q-163 -226 -253.5 -381
t-90.5 -238q4 -12 4 -16q0 -16 -16 -16q-32 0 -70.5 45.5t-37.5 107.5q1 53 100 230t217.5 360.5t217.5 345.5t99 189q0 1 -1 4.5t-1 5.5q0 14 17 14q27 0 68.5 -37t41.5 -76q0 -55 -157 -284q127 135 263 236.5t218 101.5q54 0 92.5 -50.5t38.5 -111.5q0 -86 -81.5 -230.5
t-184.5 -238.5q103 45 209 114.5t182 137.5q4 2 8 2z" />
    <glyph glyph-name="q" unicode="q" horiz-adv-x="854" 
d="M813 557q29 0 70 -33t41 -53q0 -6 -4 -6q-23 -11 -132 -173t-214 -356t-105 -268q0 -45 37 -51q4 2 10 2q14 0 14 -14q0 -12 -14 -25.5t-35 -13.5q-38 0 -90.5 51.5t-52.5 110.5q0 76 85 245.5t195 321.5q-126 -115 -255.5 -209t-182.5 -94q-42 0 -85.5 54t-43.5 101
q0 70 74 190.5t176.5 233t221.5 195t200 82.5q64 0 126 -42.5t62 -92.5q0 -34 -25.5 -73.5t-54.5 -39.5q-13 0 -26 10q6 4 14 27t8 45q0 49 -53 49q-63 0 -160.5 -70.5t-182.5 -162.5t-146.5 -183.5t-61.5 -132.5q0 -24 25 -24q47 0 178 91.5t240 183.5t131 118q6 6 16 6z
" />
    <glyph glyph-name="r" unicode="r" horiz-adv-x="772" 
d="M1018 465q12 0 23.5 -18.5t11.5 -38.5q0 -9 -4 -17q-167 -156 -341 -280.5t-243 -124.5q-48 0 -95.5 59t-47.5 105q0 43 56 121t123 148.5t123 138.5t56 93q0 17 -24 27.5t-72 21.5q-134 -146 -308 -309q-4 -2 -8 -2q-14 0 -23 18t-9 39q0 13 2 17q148 135 258 254
q-72 14 -114 35t-42 57q0 46 45 101t113.5 93.5t128.5 38.5q44 0 93.5 -29.5t49.5 -54.5q0 -43 -131 -196q61 -16 88 -31q37 -21 58.5 -63t21.5 -74q0 -21 -47 -83t-103.5 -126t-103.5 -127t-47 -86q0 -14 18 -14q69 0 210 93.5t276 211.5q4 2 8 2zM492 823q0 -25 61 -41
q104 125 104 164q0 17 -18 17q-40 0 -93.5 -50.5t-53.5 -89.5z" />
    <glyph glyph-name="s" unicode="s" horiz-adv-x="649" 
d="M668 926q33 0 76.5 -28.5t43.5 -49.5q0 -9 -16 -12q-29 -15 -51 -52.5t-37 -102t-23.5 -117t-20.5 -141.5t-19 -132q-22 -133 -85 -214t-169 -81q-80 0 -152 59t-72 115q0 21 21 45.5t35 24.5q8 0 8 -9q0 -14 6 -33.5t26.5 -40t51.5 -20.5q34 0 63.5 20.5t51.5 60
t39 82.5t30.5 102.5t21.5 105t17 104.5q-98 -95 -238 -221q-4 -2 -8 -2q-14 0 -23 18t-9 39q0 13 2 17q74 64 173 164.5t140 158.5q44 140 117 140z" />
    <glyph glyph-name="t" unicode="t" horiz-adv-x="624" 
d="M909 1260q37 0 81 -30t44 -52q0 -14 -14 -17q-48 -17 -131 -95t-178 -194q223 7 252 13q12 0 12 -17q0 -18 -31 -30q-73 -36 -309 -56q-140 -176 -239 -339t-99 -230q0 -47 45 -47q65 0 232 95.5t288 201.5q4 2 8 2q12 0 23.5 -18.5t11.5 -38.5q0 -9 -4 -17
q-153 -141 -345 -263t-271 -122q-46 0 -102 61t-56 128q0 79 87.5 237t221.5 338h-61q-26 0 -41 1t-31 5t-23.5 12.5t-7.5 22.5q0 27 22 58.5t38 31.5q7 0 10 -6q23 -18 172 -21q130 165 241 275.5t154 110.5z" />
    <glyph glyph-name="u" unicode="u" horiz-adv-x="892" 
d="M1139 465q12 0 23.5 -18.5t11.5 -38.5q0 -7 -5 -17q-162 -149 -299.5 -252.5t-179.5 -103.5q-32 0 -72 44t-40 85q0 57 100 231q-138 -152 -284.5 -277.5t-209.5 -125.5q-42 0 -84.5 52.5t-42.5 102.5q0 70 93.5 238.5t203 308.5t150.5 140q32 0 77.5 -28.5t45.5 -47.5
q0 -9 -11 -13q-37 -14 -131.5 -134t-175 -254t-80.5 -181q0 -20 17 -20q35 0 140.5 88.5t217 200t198 203t99.5 108.5q6 6 17 6q30 0 70 -32t40 -52q0 -4 -4 -8q-43 -45 -169 -253t-85 -208q29 0 132 73.5t228 180.5q4 2 9 2z" />
    <glyph glyph-name="v" unicode="v" horiz-adv-x="784" 
d="M899 870q30 0 64 -43t34 -98q0 -68 -133.5 -222.5t-300.5 -298.5t-270 -200q-8 -14 -25 -14q-35 0 -90 53t-55 90q0 64 69.5 235.5t158 320.5t134.5 149q44 0 84.5 -27.5t40.5 -48.5q0 -10 -14 -10q-39 -15 -108.5 -130t-130.5 -252.5t-89 -232.5q102 71 242 210
t250 280.5t119 208.5q-3 30 20 30z" />
    <glyph glyph-name="w" unicode="w" horiz-adv-x="1189" 
d="M1241 913q37 0 86 -52.5t49 -112.5q0 -63 -72.5 -185.5t-171 -241t-209.5 -207.5t-180 -89q-63 0 -113 62.5t-50 148.5q0 68 49 186q-101 -122 -222.5 -245t-216.5 -202q-16 -16 -38 -16q-40 0 -81.5 44t-41.5 85q0 13 6 25q126 211 246 437.5t120 274.5q0 2 -1 6.5
t-1 6.5q0 16 21 16q34 0 82.5 -39t48.5 -80q0 -23 -63 -132t-169 -279.5t-124 -200.5q127 106 325 310.5t307 348.5q7 13 23 13q24 0 55.5 -20.5t49 -45.5t3.5 -37q-67 -55 -152 -228t-85 -257q0 -43 29 -43q64 0 181 131t208.5 294.5t91.5 248.5q0 22 -6 36t-6 19
q0 20 22 20z" />
    <glyph glyph-name="x" unicode="x" horiz-adv-x="927" 
d="M1174 465q12 0 23 -18.5t11 -38.5q0 -9 -4 -17q-144 -139 -313 -265t-234 -126q-40 0 -93.5 45t-80.5 135q-10 34 -16 70q-132 -130 -218.5 -235.5t-90.5 -145.5q0 -27 -15 -27t-33 26t-18 52q0 56 99.5 184t254.5 281q-5 45 -14 156q-74 -77 -156 -150q-4 -2 -8 -2
q-14 0 -23 18t-9 39q0 13 2 17q97 84 192 182q0 113 12 148q11 32 48.5 48.5t78.5 16.5q56 0 56 -18q0 -7 -9 -13q-13 -7 -21.5 -84t-8.5 -182v-43q163 152 301.5 254t187.5 102q29 0 54.5 -30.5t25.5 -57.5q0 -9 -4.5 -14t-9.5 -5.5t-15 -0.5q-167 -56 -532 -393
q22 -238 86 -238q46 0 204 109.5t281 218.5q4 2 9 2z" />
    <glyph glyph-name="y" unicode="y" horiz-adv-x="919" 
d="M61 -502q-73 0 -119 52t-46 106q0 27 13.5 51.5t44 48.5t64.5 45.5t89.5 48.5t104 49t123 56.5t132.5 62.5q184 244 328 512q-61 -80 -176.5 -199.5t-242 -221t-181.5 -101.5q-42 0 -84.5 53t-42.5 103q0 70 90.5 234t197.5 300t148 136q32 0 77.5 -29t45.5 -49
q0 -7 -11 -11q-36 -13 -127.5 -128.5t-170 -246t-78.5 -177.5q0 -21 16 -21q35 0 139 86t213.5 194.5t194.5 197.5t98 106q9 6 21 6q30 0 68 -30t38 -52q0 -6 -4 -10q-115 -240 -291 -510q233 134 424 303q4 2 8 2q12 0 23.5 -18.5t11.5 -38.5q0 -9 -4 -17
q-172 -165 -561 -377q-370 -516 -574 -516zM4 -377q77 0 190.5 85t196.5 192q-411 -199 -411 -258q0 -19 24 -19z" />
    <glyph glyph-name="z" unicode="z" horiz-adv-x="868" 
d="M977 838q22 0 46 -39.5t24 -71.5q0 -26 -19 -31q-46 -22 -164.5 -118.5t-210 -178t-239.5 -215.5q218 54 336 54q71 0 94 -23q47 -44 47 -84q0 -14 -10 -14q-12 0 -35 20q-21 6 -58 6q-102 0 -263.5 -48t-217.5 -91q-10 -10 -22 -10q-33 0 -74 45.5t-41 83.5q0 28 27 37
q53 42 270 239t311 277q-147 -30 -250 -39q-161 -165 -252 -246q-4 -2 -8 -2q-14 0 -23 18t-9 39q0 13 2 17q85 73 190 182q-13 15 -22 45t-9 58q0 26 8.5 43.5t20.5 17.5q4 0 6 -2q0 -15 54.5 -25t134.5 -10q217 0 344 62q8 4 12 4z" />
    <glyph glyph-name="braceleft" unicode="{" horiz-adv-x="802" 
d="M1372 1610q63 0 146.5 -41.5t83.5 -79.5q0 -19 -16.5 -36t-35.5 -17q-14 0 -42 25.5t-56 25.5q-16 0 -32.5 -5t-33.5 -17.5t-31.5 -24.5t-33.5 -35.5t-31.5 -39.5t-34 -48t-33 -50t-35.5 -56t-36 -56q-44 -70 -79 -119.5t-86 -109.5t-98 -97.5t-107.5 -65.5t-123.5 -32
q56 -52 56 -143q0 -105 -150 -332q-14 -22 -50.5 -76t-53.5 -80.5t-41.5 -66.5t-38.5 -69.5t-21 -53.5q64 17 138 43.5t96 40.5q7 10 18 10q17 0 31 -24t14 -48q0 -40 -101.5 -92.5t-150.5 -52.5q-59 0 -119.5 64.5t-60.5 121.5q0 15 5 34.5t19 47.5t24 48.5t34.5 60
t36 57.5t42.5 66t40 63q74 118 112.5 193t38.5 121q0 25 -23.5 31.5t-82.5 6.5q-12 -4 -20 -4q-34 0 -60.5 33t-26.5 68q0 16 8 27.5t21 11.5q5 0 17 -4q31 -5 73 -5q75 0 143 23t118.5 57t101.5 90t85.5 104.5t76.5 117.5q16 25 49 81.5t49.5 82.5t45.5 69.5t50.5 65
t50.5 46t58.5 34.5t62.5 10z" />
    <glyph glyph-name="bar" unicode="|" horiz-adv-x="677" 
d="M1278 1520q34 0 73.5 -21t39.5 -41q0 -15 -17 -12q-66 -9 -242 -214.5t-378 -498.5q-210 -304 -355 -567.5t-145 -362.5q0 -15 5 -26t5 -19q0 -10 -7.5 -15t-16.5 -5q-32 0 -73.5 43t-41.5 113q0 108 148.5 372.5t363.5 562.5q209 291 390.5 491t250.5 200z" />
    <glyph glyph-name="braceright" unicode="}" horiz-adv-x="942" 
d="M1006 637q6 2 10 2q12 0 12 -21q0 -32 -28.5 -70t-65.5 -38q-10 0 -16 2q-52 10 -97 10q-39 0 -77.5 -21.5t-67.5 -50t-66 -84t-58.5 -93.5t-59.5 -109q-31 -56 -45.5 -81t-44.5 -74t-48.5 -73t-49 -58t-55.5 -50t-56.5 -28.5t-63.5 -12.5q-67 0 -147 31.5t-80 68.5
q0 19 17 36.5t36 17.5q14 0 41 -25t55 -25q19 0 38 8t34.5 19.5t35 34t33.5 41t34.5 52t33.5 55t36 62t36 62.5q37 63 67 108.5t74 99t86.5 87.5t98.5 59t116 29q-58 51 -55 144q1 34 28 93.5t57 110t83 134.5q133 208 162 265q28 56 28 81q0 22 -22 22q-48 0 -108.5 -17.5
t-86.5 -33.5q-5 -10 -16 -10q-15 0 -30 22.5t-15 48.5q0 39 89.5 72t143.5 33q60 0 130.5 -64.5t70.5 -119.5q0 -11 -3.5 -25.5t-11.5 -33t-15.5 -35.5t-22 -42t-25 -43t-29.5 -47.5t-30.5 -47.5t-33 -51t-32.5 -50q-82 -126 -126 -209t-44 -131q0 -19 27.5 -29t70.5 -10
q32 0 48 2z" />
    <glyph glyph-name="asciitilde" unicode="~" horiz-adv-x="1167" 
d="M930 365q-56 0 -119 29t-110 64t-103.5 64t-99.5 29q-39 0 -78.5 -23.5t-65.5 -51.5t-54.5 -51.5t-47.5 -23.5q-35 0 -35 37q0 15 34 50t84 72t118 65t127 28t123.5 -30t110.5 -66t96 -66t83 -30q30 0 60.5 24.5t59 49t54.5 24.5q29 0 29 -29q0 -16 -23 -43t-58.5 -54.5
t-86 -47.5t-98.5 -20z" />
    <glyph glyph-name="exclamdown" unicode="&#xa1;" horiz-adv-x="593" 
d="M750 879q0 43 42 89t82 46q38 0 55 -28t17 -66q0 -49 -40.5 -90.5t-80.5 -41.5q-34 0 -54.5 30t-20.5 61zM754 598q-37 -7 -143.5 -153.5t-213.5 -333.5q-96 -165 -158 -304.5t-61 -201.5v-4q0 -17 -16 -17q-32 0 -79.5 37t-47.5 82q0 57 81.5 217t186.5 325t211 294
t150 129q37 0 69.5 -19t32.5 -37q0 -8 -12 -14z" />
    <glyph glyph-name="cent" unicode="&#xa2;" horiz-adv-x="870" 
d="M1102 1139q19 0 34 -8t15 -17q0 -10 -18 -16q-74 -41 -218 -207q78 -54 78 -119q0 -50 -37.5 -84.5t-76.5 -34.5q-11 0 -17 2q19 55 19 88q0 46 -29 72q-188 -233 -354 -510q12 -4 39 -4q59 0 127 23t116 57q4 4 8 4q10 0 18.5 -17t8.5 -36q0 -24 -39 -58t-104.5 -61
t-126.5 -27q-52 0 -103 23q-55 -100 -100 -199q0 -22 -16 -22q-20 0 -42 26.5t-22 61.5q0 39 98 196q-73 79 -73 187q0 70 36.5 156t94.5 160t140 124.5t165 50.5q55 0 119 -24q189 213 260 213zM403 416q0 -32 13 -58q166 257 354 486q-67 -2 -136 -48.5t-118.5 -112.5
t-81 -139t-31.5 -128z" />
    <glyph glyph-name="sterling" unicode="&#xa3;" horiz-adv-x="989" 
d="M977 1122q81 0 159 -58.5t78 -129.5q0 -84 -78 -165t-163 -81q-27 0 -46.5 9t-19.5 20q0 8 17 14q86 60 131 122t45 114q0 59 -56 59q-104 0 -235.5 -120.5t-257.5 -303.5q92 10 143 10q59 0 95.5 -12t47.5 -25.5t11 -27.5q0 -19 -14 -19q-7 0 -9 4q-16 13 -84 13
q-95 0 -243 -23q-63 -101 -115 -203q208 54 391 54q56 0 85.5 -46t29.5 -96q0 -49 -21 -49q-2 0 -10 4q11 54 -143 54q-156 0 -361 -47t-231 -91q-6 -6 -10 -6q-6 0 -11.5 8t-5.5 21q0 37 20 75t62 54q80 30 123 43q-29 25 -29 68q0 38 45 120q-116 -29 -153 -63
q-8 -4 -10 -4q-9 0 -9 16q0 22 26.5 53t49.5 43q47 23 148 41q57 91 131 183.5t157 177t168.5 137.5t151.5 53z" />
    <glyph glyph-name="currency" unicode="&#xa4;" horiz-adv-x="1105" 
d="M1186 1030q37 0 72.5 -36t35.5 -50q0 -10 -12 -10h-8q-46 -3 -146 -70q19 -40 19 -80q0 -90 -61.5 -187.5t-157.5 -168.5q45 -96 76 -117q16 -9 16 -20q0 -7 -9 -13t-22 -6q-61 0 -135 109q-93 -49 -182 -49q-56 0 -109 24q-106 -125 -125 -174q-7 -14 -20 -14
q-24 0 -51 45t-27 84q0 41 106 160q-38 56 -38 121q0 96 62.5 201.5t156.5 178.5q-11 86 -11 146q0 47 43 47q35 0 69 -19.5t34 -39.5q0 -5 -4 -13q-4 -16 -4 -49q53 17 94 17q105 0 194 -76q97 59 144 59zM911 924q-64 0 -137 -47q8 -38 21 -89q88 73 163 127q-18 9 -47 9z
M666 786q-108 -117 -117 -221q99 94 143 135q-4 13 -13 41t-13 45zM866 571q103 97 135 201q-99 -80 -159 -135zM657 459q59 6 123 45q-12 18 -26 51q-9 -9 -44 -43t-53 -53z" />
    <glyph glyph-name="yen" unicode="&#xa5;" horiz-adv-x="905" 
d="M1260 1018q0 -42 -136.5 -169.5t-308.5 -252.5q49 -1 85.5 -14t51.5 -28t15 -28q0 -12 -15 -12q-5 0 -13.5 4t-12.5 4q-77 0 -238 -14l-41 -25q-7 -12 -22.5 -34t-22.5 -33q84 8 152 8q48 0 83 -12t48.5 -26.5t13.5 -27.5q0 -14 -16 -14q-5 0 -14 4t-13 4
q-109 0 -307 -20q-42 -73 -74.5 -140.5t-38.5 -93.5q0 -24 -18 -24q-25 0 -59.5 38t-34.5 72q0 35 55 125q-165 -28 -189 -55q-8 -4 -10 -4q-10 0 -10 16q0 22 19.5 50.5t39.5 39.5q40 22 205 43q3 4 62 84q-176 -28 -201 -57q-8 -4 -10 -4q-11 0 -11 16q0 22 20 51.5
t40 40.5q46 25 213 43q-17 64 -17 187q0 151 17 190q31 68 89 115t91 47q21 0 8 -25q-51 -94 -67 -458q33 30 175.5 157.5t233 210.5t97.5 95q6 12 18 12q21 0 44.5 -29t23.5 -57z" />
    <glyph glyph-name="brokenbar" unicode="&#xa6;" horiz-adv-x="759" 
d="M1278 1520q34 0 73.5 -21t39.5 -41q0 -15 -17 -12q-50 -13 -199 -172t-277 -327.5t-128 -207.5q0 -16 -18 -16q-30 0 -70.5 34.5t-40.5 71.5q0 40 135 210t292.5 325.5t209.5 155.5zM561 639q32 0 60 -27t28 -49q0 -15 -16 -12q-24 -14 -115.5 -165t-177.5 -331.5
t-86 -251.5q0 -15 5 -26t5 -19q0 -10 -7.5 -15t-16.5 -5q-32 0 -73.5 43t-41.5 113t58.5 199.5t133.5 248.5t146.5 208t97.5 89z" />
    <glyph glyph-name="section" unicode="&#xa7;" horiz-adv-x="942" 
d="M1151 1296q41 0 94.5 -33t90.5 -79.5t36 -81.5q-1 -55 -48 -110t-105 -86.5t-97 -31.5q-28 0 -47.5 17t-19.5 33q0 10 12 10q53 0 120.5 66t67.5 118q2 23 -18 37t-63 14q-91 0 -192.5 -32t-177.5 -78t-126 -97t-51 -88q0 -33 64.5 -52t148 -37t112.5 -42q32 -26 53 -93
t19 -103q-1 -62 -90.5 -122t-210.5 -93q29 -26 49.5 -92t20.5 -103q-1 -56 -73 -107.5t-171.5 -80.5t-188.5 -29q-68 0 -119 20t-77 47t-42 61t-20 54.5t-4 34.5q0 34 16 52t36 18q24 0 24 -21q0 -6 -4 -21t-4 -28q0 -38 45 -53.5t135 -15.5q79 0 164.5 20t142.5 51t58 62
q0 34 -54.5 53t-131.5 27t-83 10q-57 16 -101 91.5t-44 139.5q1 63 92 139t197 115q-56 80 -56 152q0 71 97 158t245 148.5t279 61.5zM942 610q0 14 -8.5 25t-25.5 19t-36.5 14.5t-44.5 10.5t-45.5 7t-43.5 6q-6 1 -9.5 1.5t-7.5 0.5q-120 -23 -222 -95t-104 -134
q0 -24 29 -39t84 -27q98 11 202 51.5t167.5 85.5t64.5 74z" />
    <glyph glyph-name="copyright" unicode="&#xa9;" horiz-adv-x="1509" 
d="M741 -43q-186 0 -318 113t-132 276q0 88 39 200.5t105.5 227t161 225t199.5 195.5t227.5 137.5t238.5 52.5q91 0 178 -32.5t153 -86.5t106 -130.5t40 -159.5q0 -90 -40 -202t-109 -224.5t-166 -219.5t-205 -189.5t-233.5 -132.5t-244.5 -50zM680 74q111 0 227.5 47
t217 124t190.5 177.5t153.5 206t100.5 211.5t37 192q0 111 -62 174.5t-190 63.5q-110 0 -227 -47.5t-217 -125.5t-191 -179.5t-154.5 -207.5t-101 -212.5t-37.5 -192.5q0 -108 62 -169.5t192 -61.5zM1077 743q51 39 96.5 96.5t45.5 88.5q0 20 -27 20q-56 0 -154.5 -84
t-177 -200t-78.5 -195q0 -72 84 -72q59 0 128 33.5t105.5 62.5t49.5 44q6 6 12 6q9 0 17 -15t8 -36q0 -28 -52.5 -77t-129 -88.5t-134.5 -39.5q-85 0 -149 60t-64 138q0 91 78 225.5t195 237.5t213 103q63 0 122.5 -51t59.5 -105q0 -43 -42.5 -85.5t-93.5 -66.5t-83 -24
q-26 0 -29 24z" />
    <glyph glyph-name="guillemotleft" unicode="&#xab;" horiz-adv-x="1003" 
d="M690 672q-34 0 -117 -54.5t-152 -120.5t-69 -94q0 -18 31.5 -56.5t65.5 -70.5q30 -12 30 -38q0 -14 -9.5 -23.5t-27.5 -9.5q-36 0 -89.5 44t-93.5 105.5t-40 106.5q0 36 80.5 117.5t178 148t140.5 66.5q34 0 73.5 -31t39.5 -57q0 -33 -41 -33zM1137 670q-39 0 -140.5 -56
t-187.5 -123t-86 -94q0 -18 28 -54.5t60 -66.5q31 -12 31 -38q0 -14 -9.5 -23.5t-27.5 -9.5q-56 0 -139.5 92.5t-83.5 159.5q0 37 97.5 118.5t215.5 148.5t170 67q32 0 72.5 -31.5t40.5 -57.5q0 -32 -41 -32z" />
    <glyph glyph-name="registered" unicode="&#xae;" horiz-adv-x="1243" 
d="M1139 1464q111 0 205 -58t145 -147t51 -184q0 -109 -69.5 -231.5t-174 -220t-234.5 -162t-243 -64.5q-99 0 -186 46t-142 131.5t-55 189.5q0 90 41 190t113 189.5t160 162t191 115.5t198 43zM772 494q82 0 177 37t181 102t157 144.5t113 174t42 181.5q0 106 -63.5 170.5
t-192.5 64.5q-102 0 -202.5 -43t-179.5 -113t-140 -154.5t-94 -173.5t-33 -165q0 -111 66.5 -168t168.5 -57zM1073 1239q89 0 146 -59.5t57 -114.5q0 -54 -56.5 -104t-132 -79.5t-145.5 -35.5q28 -47 67.5 -77t82.5 -30q6 2 12 2q10 0 10 -8q0 -13 -22.5 -29t-55.5 -16
q-62 0 -116.5 46t-88.5 108q-75 -113 -75 -154q0 -6 3 -10t3 -8q0 -15 -17 -15q-20 0 -40.5 22t-20.5 56q0 53 104.5 210t188.5 243q53 53 96 53zM913 922q111 18 200 70.5t89 107.5q0 32 -32 48.5t-78 16.5h-9q-83 -80 -174 -209q0 -10 4 -34z" />
    <glyph glyph-name="degree" unicode="&#xb0;" horiz-adv-x="716" 
d="M670 662q-84 0 -150.5 61.5t-66.5 140.5q0 83 55.5 173.5t141 151t165.5 60.5q90 0 168 -68t78 -147q0 -80 -58.5 -167.5t-151 -146t-181.5 -58.5zM645 766q63 0 135.5 51.5t121 124t48.5 129.5q0 37 -22 57.5t-62 20.5q-60 0 -130.5 -50t-118.5 -122.5t-48 -134.5
q0 -34 21 -55t55 -21z" />
    <glyph glyph-name="plusminus" unicode="&#xb1;" horiz-adv-x="946" 
d="M858 711q85 0 123.5 -11.5t38.5 -37.5q0 -29 -30 -71t-60 -42q-14 0 -17 6q-31 14 -135 14q-55 0 -92 -2q-140 -219 -154 -272q0 -25 -18 -25q-26 0 -58.5 38.5t-31.5 72.5q0 27 92 180q-175 -11 -199 -22q-11 -7 -14 -7q-20 0 -20 23q0 27 28 66t72 51q57 14 219 28
q190 283 240 283q39 0 79 -19t40 -36q0 -10 -13 -17q-65 -53 -168 -202q31 2 78 2zM586 166q85 0 123.5 -11.5t38.5 -37.5q0 -29 -30.5 -71t-60.5 -42q-13 0 -16 6q-34 15 -135 15q-103 0 -267 -9t-194 -22q-9 -6 -14 -6q-21 0 -21 22q0 27 28 66t73 51q57 16 214 27.5
t261 11.5z" />
    <glyph glyph-name="paragraph" unicode="&#xb6;" horiz-adv-x="1228" 
d="M1706 1372q34 0 71.5 -18t37.5 -35q0 -11 -13 -14q-39 -5 -131 -101q37 -27 37 -55q0 -12 -10.5 -23.5t-28.5 -11.5q-21 0 -67 12q-211 -246 -467 -639q-146 -226 -238 -397t-92 -229q0 -15 5 -26t5 -19q0 -10 -7 -15.5t-15 -5.5q-30 0 -63.5 42.5t-33.5 113.5
q0 65 79.5 220.5t209.5 356.5q-87 -38 -156 -47q-121 -181 -199 -332.5t-85 -232.5q0 -2 1 -5t1 -5q0 -12 -12 -12q-22 0 -49 41.5t-27 93.5q0 106 229 456q-54 12 -107 35.5t-101.5 59t-78.5 87t-30 109.5q0 76 47.5 152.5t133.5 141t197 115t247.5 79t275.5 28.5
q57 0 82 -2q40 21 55 21q26 0 59 -13t45 -28l33 -8q110 110 160 110zM1053 631q221 329 401 532q-40 4 -72 4q-165 -146 -419 -493q25 0 50 -12t40 -31zM692 614q35 0 86 7q225 326 426 536q-119 -14 -229 -49.5t-192 -82.5t-144 -101t-93.5 -108t-31.5 -101q0 -52 50 -76.5
t128 -24.5z" />
    <glyph glyph-name="periodcentered" unicode="&#xb7;" horiz-adv-x="737" 
d="M596 643q39 0 60.5 -20t21.5 -52q0 -55 -40.5 -95t-98.5 -40q-28 0 -48 20t-20 44q0 55 39.5 99t85.5 44z" />
    <glyph glyph-name="guillemotright" unicode="&#xbb;" horiz-adv-x="1177" 
d="M295 326q38 0 141.5 54t192 119t88.5 91q0 17 -32.5 58t-63.5 71q-31 12 -31 39q0 14 9.5 23.5t27.5 9.5q37 0 93 -48.5t97 -108t41 -89.5q0 -46 -100.5 -129t-219.5 -147t-171 -64q-33 0 -73 31t-40 57q0 33 41 33zM772 324q35 0 115 49t145.5 109t65.5 87
q0 22 -38.5 68t-76.5 82q-31 12 -31 39q0 14 9.5 23.5t27.5 9.5q55 0 150.5 -106.5t95.5 -160.5q0 -43 -78.5 -121.5t-173.5 -139t-139 -60.5q-34 0 -73.5 31t-39.5 57q0 33 41 33z" />
    <glyph glyph-name="questiondown" unicode="&#xbf;" horiz-adv-x="958" 
d="M1036 795q-39 0 -60.5 19.5t-21.5 51.5q0 55 41 95t99 40q28 0 47.5 -19.5t19.5 -43.5q0 -55 -39.5 -99t-85.5 -44zM274 -348q-107 0 -182.5 72t-75.5 172q0 89 96.5 190.5t321.5 251.5q38 25 92.5 60t92 59t82 53.5t73.5 51.5t54.5 45t38 42t12.5 35q3 12 12 12
q19 0 41 -39t22 -79q0 -20 -12.5 -43t-41 -51t-56.5 -52t-77 -59t-83.5 -58.5t-95.5 -64.5t-94 -64q-188 -129 -272.5 -216.5t-84.5 -151.5q0 -26 15.5 -36.5t52.5 -10.5q94 0 215.5 49.5t216 123.5t115.5 140q2 10 10 10q19 0 48.5 -45t29.5 -78q0 -65 -91 -141t-225 -127
t-250 -51z" />
    <glyph glyph-name="Agrave" unicode="&#xc0;" horiz-adv-x="1937" 
d="M2523 1565q12 -6 12 -15t-14.5 -17.5t-32.5 -8.5q-60 0 -141.5 90t-81.5 151q0 36 38 56t75 20q35 0 35 -18q0 -8 -5 -13q-7 -42 34 -128t81 -117zM2222 1491q47 0 100.5 -65t53.5 -111q0 -26 -21 -29q-210 -243 -434 -663q104 -8 182 -72.5t78 -108.5q0 -18 -18 -18
q-10 0 -23 8q2 4 2 10q0 44 -284 54q-185 -372 -185 -525q0 -29 20.5 -47.5t20.5 -32.5q0 -20 -26 -20q-51 0 -115 54t-64 132q0 130 158 443h-4q-245 0 -514 -19q-164 -142 -288.5 -243t-255 -195t-233 -142t-173.5 -48q-77 0 -128 50t-51 93q0 27 19 27q11 0 24 -13
q23 -20 66 -20q186 0 786 469q-367 -43 -403 -101q-20 -41 -43 -41q-12 0 -20.5 11t-8.5 26q0 58 80 95q212 97 559 141q140 112 394 322.5t429.5 351t292.5 219.5q11 8 27 8zM1298 610q156 11 435 15q108 197 232.5 391.5t205.5 296.5l-6 8q-36 -24 -77.5 -54t-77 -56.5
t-85.5 -67t-82 -66t-90.5 -75t-86.5 -73t-94 -80.5t-88.5 -76.5t-95 -83t-90.5 -79.5z" />
    <glyph glyph-name="Aacute" unicode="&#xc1;" horiz-adv-x="1937" 
d="M2533 1872q22 0 45 -27t23 -63q0 -40 -51.5 -81.5t-121 -67t-122.5 -25.5q-33 0 -56.5 17t-23.5 36q0 14 21 14q54 10 154.5 77t113.5 108q6 12 18 12zM2222 1491q47 0 100.5 -65t53.5 -111q0 -26 -21 -29q-210 -243 -434 -663q104 -8 182 -72.5t78 -108.5q0 -18 -18 -18
q-10 0 -23 8q2 4 2 10q0 44 -284 54q-185 -372 -185 -525q0 -29 20.5 -47.5t20.5 -32.5q0 -20 -26 -20q-51 0 -115 54t-64 132q0 130 158 443h-4q-245 0 -514 -19q-164 -142 -288.5 -243t-255 -195t-233 -142t-173.5 -48q-77 0 -128 50t-51 93q0 27 19 27q11 0 24 -13
q23 -20 66 -20q186 0 786 469q-367 -43 -403 -101q-20 -41 -43 -41q-12 0 -20.5 11t-8.5 26q0 58 80 95q212 97 559 141q140 112 394 322.5t429.5 351t292.5 219.5q11 8 27 8zM1298 610q156 11 435 15q108 197 232.5 391.5t205.5 296.5l-6 8q-36 -24 -77.5 -54t-77 -56.5
t-85.5 -67t-82 -66t-90.5 -75t-86.5 -73t-94 -80.5t-88.5 -76.5t-95 -83t-90.5 -79.5z" />
    <glyph glyph-name="Acircumflex" unicode="&#xc2;" horiz-adv-x="1937" 
d="M2497 1849q44 0 79 -39.5t35 -80.5q0 -43 -38 -100.5t-83 -57.5q-26 0 -43.5 12t-17.5 27q0 11 10 16q43 64 43 84q0 29 -33 29q-35 0 -104 -35t-127 -80q-3 -6 -12 -6q-11 0 -22 15t-11 28q0 23 57 68.5t136 82.5t131 37zM2222 1491q47 0 100.5 -65t53.5 -111
q0 -26 -21 -29q-210 -243 -434 -663q104 -8 182 -72.5t78 -108.5q0 -18 -18 -18q-10 0 -23 8q2 4 2 10q0 44 -284 54q-185 -372 -185 -525q0 -29 20.5 -47.5t20.5 -32.5q0 -20 -26 -20q-51 0 -115 54t-64 132q0 130 158 443h-4q-245 0 -514 -19q-164 -142 -288.5 -243
t-255 -195t-233 -142t-173.5 -48q-77 0 -128 50t-51 93q0 27 19 27q11 0 24 -13q23 -20 66 -20q186 0 786 469q-367 -43 -403 -101q-20 -41 -43 -41q-12 0 -20.5 11t-8.5 26q0 58 80 95q212 97 559 141q140 112 394 322.5t429.5 351t292.5 219.5q11 8 27 8zM1298 610
q156 11 435 15q108 197 232.5 391.5t205.5 296.5l-6 8q-36 -24 -77.5 -54t-77 -56.5t-85.5 -67t-82 -66t-90.5 -75t-86.5 -73t-94 -80.5t-88.5 -76.5t-95 -83t-90.5 -79.5z" />
    <glyph glyph-name="Atilde" unicode="&#xc3;" horiz-adv-x="1937" 
d="M2601 1755q12 0 25.5 -14t13.5 -25q0 -44 -70 -88.5t-129 -44.5q-28 0 -55.5 20t-46 44.5t-40 44.5t-38.5 20q-7 0 -14.5 -5t-17.5 -16.5t-18 -21.5t-21.5 -28t-22.5 -29q-8 0 -18.5 10.5t-10.5 19.5q0 50 73 106t124 56q34 0 60.5 -20.5t40 -45t31 -45t34.5 -20.5
q21 0 39 10.5t26.5 20t20.5 29t14 22.5zM2222 1491q47 0 100.5 -65t53.5 -111q0 -26 -21 -29q-210 -243 -434 -663q104 -8 182 -72.5t78 -108.5q0 -18 -18 -18q-10 0 -23 8q2 4 2 10q0 44 -284 54q-185 -372 -185 -525q0 -29 20.5 -47.5t20.5 -32.5q0 -20 -26 -20
q-51 0 -115 54t-64 132q0 130 158 443h-4q-245 0 -514 -19q-164 -142 -288.5 -243t-255 -195t-233 -142t-173.5 -48q-77 0 -128 50t-51 93q0 27 19 27q11 0 24 -13q23 -20 66 -20q186 0 786 469q-367 -43 -403 -101q-20 -41 -43 -41q-12 0 -20.5 11t-8.5 26q0 58 80 95
q212 97 559 141q140 112 394 322.5t429.5 351t292.5 219.5q11 8 27 8zM1298 610q156 11 435 15q108 197 232.5 391.5t205.5 296.5l-6 8q-36 -24 -77.5 -54t-77 -56.5t-85.5 -67t-82 -66t-90.5 -75t-86.5 -73t-94 -80.5t-88.5 -76.5t-95 -83t-90.5 -79.5z" />
    <glyph glyph-name="Adieresis" unicode="&#xc4;" horiz-adv-x="1937" 
d="M2208 1624q-18 0 -28.5 12.5t-10.5 28.5q0 43 46.5 101.5t80.5 58.5q63 0 63 -45t-54.5 -100.5t-96.5 -55.5zM2517 1788q63 0 63 -45q0 -44 -51 -100t-92 -56q-37 0 -37 37q0 45 42 104.5t75 59.5zM2222 1491q47 0 100.5 -65t53.5 -111q0 -26 -21 -29
q-210 -243 -434 -663q104 -8 182 -72.5t78 -108.5q0 -18 -18 -18q-10 0 -23 8q2 4 2 10q0 44 -284 54q-185 -372 -185 -525q0 -29 20.5 -47.5t20.5 -32.5q0 -20 -26 -20q-51 0 -115 54t-64 132q0 130 158 443h-4q-245 0 -514 -19q-164 -142 -288.5 -243t-255 -195t-233 -142
t-173.5 -48q-77 0 -128 50t-51 93q0 27 19 27q11 0 24 -13q23 -20 66 -20q186 0 786 469q-367 -43 -403 -101q-20 -41 -43 -41q-12 0 -20.5 11t-8.5 26q0 58 80 95q212 97 559 141q140 112 394 322.5t429.5 351t292.5 219.5q11 8 27 8zM1298 610q156 11 435 15
q108 197 232.5 391.5t205.5 296.5l-6 8q-36 -24 -77.5 -54t-77 -56.5t-85.5 -67t-82 -66t-90.5 -75t-86.5 -73t-94 -80.5t-88.5 -76.5t-95 -83t-90.5 -79.5z" />
    <glyph glyph-name="Aring" unicode="&#xc5;" horiz-adv-x="1937" 
d="M2359 1866q114 0 186 -54.5t72 -103.5q0 -11 -12.5 -28t-34.5 -35.5t-61 -32t-84 -13.5q-109 0 -173.5 47t-64.5 101q0 24 22.5 44t55.5 32q7 17 31.5 30t62.5 13zM2486 1665q31 0 31 16q0 27 -63 68t-121 41q-11 0 -17 -2q-13 -22 -18 -25q-4 -36 63 -67t125 -31z
M2222 1491q47 0 100.5 -65t53.5 -111q0 -26 -21 -29q-210 -243 -434 -663q104 -8 182 -72.5t78 -108.5q0 -18 -18 -18q-10 0 -23 8q2 4 2 10q0 44 -284 54q-185 -372 -185 -525q0 -29 20.5 -47.5t20.5 -32.5q0 -20 -26 -20q-51 0 -115 54t-64 132q0 130 158 443h-4
q-245 0 -514 -19q-164 -142 -288.5 -243t-255 -195t-233 -142t-173.5 -48q-77 0 -128 50t-51 93q0 27 19 27q11 0 24 -13q23 -20 66 -20q186 0 786 469q-367 -43 -403 -101q-20 -41 -43 -41q-12 0 -20.5 11t-8.5 26q0 58 80 95q212 97 559 141q140 112 394 322.5t429.5 351
t292.5 219.5q11 8 27 8zM1298 610q156 11 435 15q108 197 232.5 391.5t205.5 296.5l-6 8q-36 -24 -77.5 -54t-77 -56.5t-85.5 -67t-82 -66t-90.5 -75t-86.5 -73t-94 -80.5t-88.5 -76.5t-95 -83t-90.5 -79.5z" />
    <glyph glyph-name="AE" unicode="&#xc6;" horiz-adv-x="2408" 
d="M2593 1137q166 131 166 176q0 20 -39 20q-122 0 -284.5 -48t-296.5 -113t-228 -134t-94 -110q0 -48 113 -73.5t268 -25.5q118 0 225 17q14 -2 30.5 -29.5t16.5 -56.5q0 -61 -53 -66q-193 -38 -365 -96t-294 -121t-211.5 -129.5t-133 -126t-43.5 -106.5q0 -48 46 -77.5
t136 -29.5q168 0 381 68.5t399.5 171.5t313.5 215q4 2 8 2q12 0 23.5 -18.5t11.5 -38.5q0 -9 -4 -17q-164 -149 -329.5 -258.5t-307.5 -168.5t-260 -86.5t-219 -27.5q-128 0 -241.5 103.5t-113.5 222.5q0 162 250 320h-8q-285 0 -643 -45q-208 -200 -335.5 -354.5
t-127.5 -219.5q0 -20 7.5 -40t7.5 -30q0 -14 -15 -14q-36 0 -83.5 59t-47.5 115q0 118 328 449q-411 -64 -467 -123q-14 -29 -31 -29q-11 0 -20 13.5t-9 31.5q0 55 66 86q186 83 586 144q224 212 479 415.5t474 340.5t308 137q74 0 166 -95q147 69 304.5 111.5t283.5 42.5
q50 0 89 -25.5t58.5 -62.5t29 -71t9.5 -60q0 -52 -94 -109t-149 -57q-15 0 -27 10t-10 21zM1690 961q0 77 87.5 164t231.5 165q-19 8 -45 8q-107 0 -406 -216.5t-614 -508.5q421 49 782 58q140 61 332 119q-8 -2 -30 -2q-44 0 -109.5 9.5t-95.5 20.5q-56 22 -94.5 75
t-38.5 108z" />
    <glyph glyph-name="Ccedilla" unicode="&#xc7;" horiz-adv-x="1351" 
d="M1597 465q12 0 23.5 -18.5t11.5 -38.5q0 -9 -4 -17q-185 -184 -443.5 -344.5t-471.5 -196.5q-107 -152 -223 -232.5t-199 -80.5q-50 0 -80.5 29t-30.5 69q0 54 55 90.5t99 36.5q14 0 19.5 -6t-1.5 -18q-10 -10 -10 -37q0 -53 43 -53t103 59.5t108 134.5q-188 8 -315 132
t-127 302q0 118 63.5 261.5t166.5 278.5t237.5 264t271.5 225t273 154.5t239 58.5q131 0 224 -86t93 -205q0 -79 -49 -174.5t-124 -180t-157.5 -156t-156 -113.5t-113.5 -42q-52 0 -101.5 40t-49.5 67q0 14 18 14q40 0 142 67t209 161t189.5 206.5t82.5 190.5
q0 40 -22.5 55.5t-78.5 15.5q-113 0 -250 -58t-268 -153t-256 -219.5t-218.5 -253.5t-150.5 -259.5t-57 -233.5t61 -151t191 -48q132 0 285.5 45.5t291 118.5t250 148t199.5 149q4 2 8 2z" />
    <glyph glyph-name="Egrave" unicode="&#xc8;" horiz-adv-x="1239" 
d="M1272 1819q0 36 37.5 55.5t74.5 19.5q35 0 35 -18q0 -8 -4 -12q-7 -42 34 -128.5t81 -117.5q12 -6 12 -14q0 -9 -14.5 -18t-32.5 -9q-60 0 -141.5 90.5t-81.5 151.5zM397 -150q-128 0 -241 103.5t-113 222.5q0 69 46.5 138t125 128.5t188 116.5t229.5 103.5t255 87.5
q-8 -2 -31 -2q-44 0 -109.5 9.5t-95.5 20.5q-56 22 -94.5 75t-38.5 108q0 66 67 142.5t177 143.5t240 123t267 88.5t247 32.5q50 0 89 -25.5t58.5 -62.5t29 -71t9.5 -60q0 -52 -94.5 -109t-149.5 -57q-15 0 -27 10t-10 21q166 131 166 176q0 20 -39 20q-122 0 -284.5 -48
t-296.5 -113t-228 -134t-94 -110q0 -48 113 -73.5t268 -25.5q118 0 225 17q14 -2 30.5 -29.5t16.5 -56.5q0 -61 -53 -66q-193 -38 -365 -96t-293.5 -121t-211 -129.5t-133 -126t-43.5 -106.5q0 -48 46 -77.5t136 -29.5q168 0 381 68.5t399.5 171.5t313.5 215q4 2 8 2
q12 0 23.5 -18.5t11.5 -38.5q0 -7 -5 -17q-164 -149 -329.5 -258.5t-307.5 -168.5t-260 -86.5t-219 -27.5z" />
    <glyph glyph-name="Eacute" unicode="&#xc9;" horiz-adv-x="1236" 
d="M1360 1624q-33 0 -56.5 17t-23.5 36q0 15 20 15q54 10 155 76.5t114 107.5q6 12 18 12q22 0 45 -27t23 -63q0 -40 -51.5 -81.5t-121 -67t-122.5 -25.5zM397 -150q-128 0 -241 103.5t-113 222.5q0 69 46.5 138t125 128.5t188 116.5t229.5 103.5t255 87.5q-8 -2 -31 -2
q-44 0 -109.5 9.5t-95.5 20.5q-56 22 -94.5 75t-38.5 108q0 66 67 142.5t177 143.5t240 123t267 88.5t247 32.5q50 0 89 -25.5t58.5 -62.5t29 -71t9.5 -60q0 -52 -94.5 -109t-149.5 -57q-15 0 -27 10t-10 21q166 131 166 176q0 20 -39 20q-122 0 -284.5 -48t-296.5 -113
t-228 -134t-94 -110q0 -48 113 -73.5t268 -25.5q118 0 225 17q14 -2 30.5 -29.5t16.5 -56.5q0 -61 -53 -66q-193 -38 -365 -96t-293.5 -121t-211 -129.5t-133 -126t-43.5 -106.5q0 -48 46 -77.5t136 -29.5q168 0 381 68.5t399.5 171.5t313.5 215q4 2 8 2q12 0 23.5 -18.5
t11.5 -38.5q0 -7 -5 -17q-164 -149 -329.5 -258.5t-307.5 -168.5t-260 -86.5t-219 -27.5z" />
    <glyph glyph-name="Ecircumflex" unicode="&#xca;" horiz-adv-x="1239" 
d="M1565 1587q-26 0 -44 12.5t-18 26.5q0 11 10 16q35 52 35 76q0 29 -32 29q-34 0 -121.5 -58.5t-151.5 -115.5q-3 -6 -10 -6q-11 0 -23 13.5t-12 29.5q0 17 42 58.5t98.5 83.5t121 74t103.5 32q44 0 79 -40t35 -81q0 -44 -33.5 -97t-78.5 -53zM397 -150q-128 0 -241 103.5
t-113 222.5q0 69 46.5 138t125 128.5t188 116.5t229.5 103.5t255 87.5q-8 -2 -31 -2q-44 0 -109.5 9.5t-95.5 20.5q-56 22 -94.5 75t-38.5 108q0 66 67 142.5t177 143.5t240 123t267 88.5t247 32.5q50 0 89 -25.5t58.5 -62.5t29 -71t9.5 -60q0 -52 -94.5 -109t-149.5 -57
q-15 0 -27 10t-10 21q166 131 166 176q0 20 -39 20q-122 0 -284.5 -48t-296.5 -113t-228 -134t-94 -110q0 -48 113 -73.5t268 -25.5q118 0 225 17q14 -2 30.5 -29.5t16.5 -56.5q0 -61 -53 -66q-193 -38 -365 -96t-293.5 -121t-211 -129.5t-133 -126t-43.5 -106.5
q0 -48 46 -77.5t136 -29.5q168 0 381 68.5t399.5 171.5t313.5 215q4 2 8 2q12 0 23.5 -18.5t11.5 -38.5q0 -7 -5 -17q-164 -149 -329.5 -258.5t-307.5 -168.5t-260 -86.5t-219 -27.5z" />
    <glyph glyph-name="Edieresis" unicode="&#xcb;" horiz-adv-x="1239" 
d="M1645 1823q63 0 63 -45q0 -44 -51 -100t-92 -56q-37 0 -37 37q0 45 42 104.5t75 59.5zM1382 1819q64 0 64 -45t-55 -100.5t-97 -55.5q-18 0 -28.5 12.5t-10.5 28.5q0 43 46.5 101.5t80.5 58.5zM397 -150q-128 0 -241 103.5t-113 222.5q0 69 46.5 138t125 128.5t188 116.5
t229.5 103.5t255 87.5q-8 -2 -31 -2q-44 0 -109.5 9.5t-95.5 20.5q-56 22 -94.5 75t-38.5 108q0 66 67 142.5t177 143.5t240 123t267 88.5t247 32.5q50 0 89 -25.5t58.5 -62.5t29 -71t9.5 -60q0 -52 -94.5 -109t-149.5 -57q-15 0 -27 10t-10 21q166 131 166 176q0 20 -39 20
q-122 0 -284.5 -48t-296.5 -113t-228 -134t-94 -110q0 -48 113 -73.5t268 -25.5q118 0 225 17q14 -2 30.5 -29.5t16.5 -56.5q0 -61 -53 -66q-193 -38 -365 -96t-293.5 -121t-211 -129.5t-133 -126t-43.5 -106.5q0 -48 46 -77.5t136 -29.5q168 0 381 68.5t399.5 171.5
t313.5 215q4 2 8 2q12 0 23.5 -18.5t11.5 -38.5q0 -7 -5 -17q-164 -149 -329.5 -258.5t-307.5 -168.5t-260 -86.5t-219 -27.5z" />
    <glyph glyph-name="Igrave" unicode="&#xcc;" horiz-adv-x="1306" 
d="M1647 1581q-60 0 -141 89t-83 151q-1 37 37 57t76 20q35 0 35 -18q0 -8 -4 -12q-7 -42 33.5 -128.5t80.5 -117.5q13 -6 13 -14q0 -9 -14.5 -18t-32.5 -9zM1821 1501q35 0 67.5 -44t32.5 -77q0 -18 -14 -18q-7 0 -11 2q-67 0 -259.5 -212.5t-393.5 -498t-297 -483.5
q80 6 119 6q51 0 87.5 -28.5t51.5 -63t15 -66.5q0 -38 -21 -38q-10 0 -18 8q-28 47 -197 47q-26 0 -92 -4q-6 -21 -6 -39q2 -4 2 -10q0 -23 -31 -23q-22 0 -47 16t-41 45q-149 -19 -297 -53t-256.5 -77.5t-126.5 -82.5q-13 -22 -31 -22q-14 0 -25.5 14t-11.5 35q0 54 76 98
q279 160 676 218q44 127 183.5 354t323.5 466t335 380q-188 -40 -389 -101.5t-388.5 -149.5t-250.5 -169q42 -10 121 -10q56 0 131 10q-5 -28 -90.5 -67.5t-155.5 -39.5q-42 0 -78.5 59t-36.5 109q0 66 102.5 141t262 138.5t341 116.5t353.5 83.5t285 30.5z" />
    <glyph glyph-name="Iacute" unicode="&#xcd;" horiz-adv-x="1292" 
d="M1473 1626q-33 0 -56.5 17t-23.5 36q0 15 20 15q54 10 154.5 76.5t113.5 107.5q6 12 19 12q22 0 44.5 -27t22.5 -63q0 -40 -51.5 -81.5t-120.5 -67t-122 -25.5zM1821 1501q35 0 67.5 -44t32.5 -77q0 -18 -14 -18q-7 0 -11 2q-67 0 -259.5 -212.5t-393.5 -498t-297 -483.5
q80 6 119 6q51 0 87.5 -28.5t51.5 -63t15 -66.5q0 -38 -21 -38q-10 0 -18 8q-28 47 -197 47q-26 0 -92 -4q-6 -21 -6 -39q2 -4 2 -10q0 -23 -31 -23q-22 0 -47 16t-41 45q-149 -19 -297 -53t-256.5 -77.5t-126.5 -82.5q-13 -22 -31 -22q-14 0 -25.5 14t-11.5 35q0 54 76 98
q279 160 676 218q44 127 183.5 354t323.5 466t335 380q-188 -40 -389 -101.5t-388.5 -149.5t-250.5 -169q42 -10 121 -10q56 0 131 10q-5 -28 -90.5 -67.5t-155.5 -39.5q-42 0 -78.5 59t-36.5 109q0 66 102.5 141t262 138.5t341 116.5t353.5 83.5t285 30.5z" />
    <glyph glyph-name="Icircumflex" unicode="&#xce;" horiz-adv-x="1306" 
d="M1432 1573q-11 0 -23 13.5t-12 29.5q0 24 67 84t156 112t141 52q44 0 79.5 -40.5t35.5 -80.5q0 -44 -34 -97t-79 -53q-26 0 -43.5 12t-17.5 27q0 12 10 17q35 53 35 75q0 29 -33 29q-34 0 -120.5 -58t-151.5 -116q-3 -6 -10 -6zM1821 1501q35 0 67.5 -44t32.5 -77
q0 -18 -14 -18q-7 0 -11 2q-67 0 -259.5 -212.5t-393.5 -498t-297 -483.5q80 6 119 6q51 0 87.5 -28.5t51.5 -63t15 -66.5q0 -38 -21 -38q-10 0 -18 8q-28 47 -197 47q-26 0 -92 -4q-6 -21 -6 -39q2 -4 2 -10q0 -23 -31 -23q-22 0 -47 16t-41 45q-149 -19 -297 -53
t-256.5 -77.5t-126.5 -82.5q-13 -22 -31 -22q-14 0 -25.5 14t-11.5 35q0 54 76 98q279 160 676 218q44 127 183.5 354t323.5 466t335 380q-188 -40 -389 -101.5t-388.5 -149.5t-250.5 -169q42 -10 121 -10q56 0 131 10q-5 -28 -90.5 -67.5t-155.5 -39.5q-42 0 -78.5 59
t-36.5 109q0 66 102.5 141t262 138.5t341 116.5t353.5 83.5t285 30.5z" />
    <glyph glyph-name="Idieresis" unicode="&#xcf;" horiz-adv-x="1306" 
d="M1698 1618q-37 0 -37 37q0 45 42 104.5t75 59.5q63 0 63 -45q0 -44 -51 -100t-92 -56zM1448 1614q-18 0 -28.5 12.5t-10.5 28.5q0 43 46.5 101.5t80.5 58.5q63 0 63 -46q0 -45 -54.5 -100t-96.5 -55zM1821 1501q35 0 67.5 -44t32.5 -77q0 -18 -14 -18q-7 0 -11 2
q-67 0 -259.5 -212.5t-393.5 -498t-297 -483.5q80 6 119 6q51 0 87.5 -28.5t51.5 -63t15 -66.5q0 -38 -21 -38q-10 0 -18 8q-28 47 -197 47q-26 0 -92 -4q-6 -21 -6 -39q2 -4 2 -10q0 -23 -31 -23q-22 0 -47 16t-41 45q-149 -19 -297 -53t-256.5 -77.5t-126.5 -82.5
q-13 -22 -31 -22q-14 0 -25.5 14t-11.5 35q0 54 76 98q279 160 676 218q44 127 183.5 354t323.5 466t335 380q-188 -40 -389 -101.5t-388.5 -149.5t-250.5 -169q42 -10 121 -10q56 0 131 10q-5 -28 -90.5 -67.5t-155.5 -39.5q-42 0 -78.5 59t-36.5 109q0 66 102.5 141
t262 138.5t341 116.5t353.5 83.5t285 30.5z" />
    <glyph glyph-name="Eth" unicode="&#xd0;" horiz-adv-x="1673" 
d="M1151 1501q176 0 315 -52t221.5 -137.5t122.5 -191t33 -217.5q-8 -125 -61 -256.5t-136.5 -248t-195 -220.5t-233 -179t-254 -119t-254.5 -44q-128 0 -201.5 56.5t-73.5 115.5q0 23 14.5 39t36.5 16q15 0 15 -12q0 -1 -1 -7t-1 -11q0 -47 151 -47q126 0 274.5 65
t284.5 175.5t249 245t181 286.5t68 286q0 76 -31.5 136t-80.5 95.5t-114.5 58.5t-126.5 31.5t-124 8.5q-199 0 -414.5 -55t-383 -147t-232.5 -193q30 -10 96 -10q52 0 127 10q-7 -29 -76 -68t-135 -39q-41 0 -81.5 53.5t-39.5 110.5q0 64 64.5 132t174 126.5t244.5 105.5
t287.5 74t290.5 27zM657 586q-171 -224 -284 -425t-109 -294q0 -27 -22 -27q-27 0 -52.5 37t-25.5 100q0 77 51.5 197t103.5 205.5t113 173.5q-186 -34 -229 -68q-8 -4 -15 -4q-14 0 -14 21q0 30 27 71.5t53 57.5q52 34 276 59q169 223 333.5 380t238.5 157q47 0 87 -31
t40 -55q0 -13 -15 -13q-27 0 -66.5 -22.5t-89.5 -69t-86.5 -82t-92 -99t-69.5 -80t-52 -62.5q88 6 133 6q52 0 95 -10t67.5 -25.5t37.5 -30.5t13 -28q0 -17 -21 -17q-7 0 -18.5 5t-17.5 5q-128 0 -390 -32z" />
    <glyph glyph-name="Ntilde" unicode="&#xd1;" horiz-adv-x="1490" 
d="M1450 1511q-8 0 -18.5 11t-10.5 20q0 50 73 106t124 56q34 0 60.5 -20.5t40 -45t31 -45t34.5 -20.5q21 0 39 10.5t26.5 20t20.5 29t14 22.5q12 0 25.5 -14t13.5 -25q0 -44 -70 -88.5t-129 -44.5q-28 0 -55.5 20t-46 44.5t-40 44.5t-38.5 20q-7 0 -14.5 -5.5t-17.5 -16.5
t-18.5 -21.5t-21.5 -28.5t-22 -29zM2171 1561q43 0 92 -34.5t49 -58.5q0 -7 -8 -10q-71 -5 -202 -135t-276.5 -323.5t-291 -411t-259 -409t-167.5 -306.5q-3 -12 -21 -12q-39 0 -93 44.5t-54 94.5q0 142 56 528t137 643q-175 -160 -394.5 -430t-382.5 -535t-163 -380
q0 -13 10 -30.5t10 -26.5q0 -6 -4.5 -11.5t-11.5 -5.5q-27 0 -61.5 20t-64.5 65.5t-30 103.5q0 100 155 339.5t354 476t393 419t265 182.5q44 0 94 -41t50 -70q0 -13 -11 -18q-40 -105 -72.5 -229.5t-59 -276t-40 -241.5t-34.5 -250q-5 -35 -7 -52q94 187 238.5 422
t297 450.5t293.5 362t214 146.5z" />
    <glyph glyph-name="Ograve" unicode="&#xd2;" horiz-adv-x="1413" 
d="M1415 1569q-60 0 -141.5 90t-81.5 151q0 36 38 56t75 20q34 0 34 -18q0 -9 -4 -13q-7 -42 34 -128t81 -117q12 -6 12 -15t-14.5 -17.5t-32.5 -8.5zM1561 717q7 0 12.5 -9.5t5.5 -23.5q0 -43 -37 -68q-39 -31 -188 -77q-127 -180 -292 -336t-343.5 -254.5t-317.5 -98.5
q-135 0 -237.5 85.5t-102.5 214.5q0 169 160 389q-153 99 -153 264q0 84 47 173.5t124.5 167t180.5 147.5t213 119.5t223.5 78.5t210.5 29q218 0 362 -129.5t144 -313.5q0 -176 -143 -420q58 21 120 56q6 6 11 6zM184 776q-3 -80 117 -137q125 143 260.5 241.5t210.5 98.5
q46 0 85.5 -36.5t39.5 -59.5q0 -9 -10 -9q-71 0 -186 -80t-232 -204q158 -29 334 -29q179 0 371 29q115 159 182 312t67 269q0 111 -65 159t-201 48q-116 0 -239 -31.5t-228 -83t-199.5 -117t-161 -132t-106 -129.5t-39.5 -109zM301 -8q183 0 390.5 134t385.5 345
q-205 -41 -393 -41q-177 0 -313 43q-86 -110 -137.5 -213t-51.5 -178q0 -47 24.5 -68.5t94.5 -21.5z" />
    <glyph glyph-name="Oacute" unicode="&#xd3;" horiz-adv-x="1347" 
d="M1153 1647q-33 0 -56.5 17t-23.5 36q0 14 21 14q54 10 154.5 76.5t113.5 107.5q6 13 18 13q22 0 45 -27t23 -63q0 -40 -51.5 -81.5t-121 -67t-122.5 -25.5zM1561 717q7 0 12.5 -9.5t5.5 -23.5q0 -43 -37 -68q-39 -31 -188 -77q-127 -180 -292 -336t-343.5 -254.5
t-317.5 -98.5q-135 0 -237.5 85.5t-102.5 214.5q0 169 160 389q-153 99 -153 264q0 84 47 173.5t124.5 167t180.5 147.5t213 119.5t223.5 78.5t210.5 29q218 0 362 -129.5t144 -313.5q0 -176 -143 -420q58 21 120 56q6 6 11 6zM184 776q-3 -80 117 -137q125 143 260.5 241.5
t210.5 98.5q46 0 85.5 -36.5t39.5 -59.5q0 -9 -10 -9q-71 0 -186 -80t-232 -204q158 -29 334 -29q179 0 371 29q115 159 182 312t67 269q0 111 -65 159t-201 48q-116 0 -239 -31.5t-228 -83t-199.5 -117t-161 -132t-106 -129.5t-39.5 -109zM301 -8q183 0 390.5 134
t385.5 345q-205 -41 -393 -41q-177 0 -313 43q-86 -110 -137.5 -213t-51.5 -178q0 -47 24.5 -68.5t94.5 -21.5z" />
    <glyph glyph-name="Ocircumflex" unicode="&#xd4;" horiz-adv-x="1347" 
d="M1163 1657q-11 0 -22 15t-11 28q0 23 57 68.5t136 82.5t131 37q44 0 79.5 -40.5t35.5 -80.5q0 -43 -38 -100t-83 -57q-26 0 -44 12.5t-18 26.5q0 11 11 16q0 1 8.5 12.5t12.5 18t10 17.5t9 20t3 16q0 29 -33 29q-35 0 -104 -35t-127 -80q-3 -6 -13 -6zM1561 717
q7 0 12.5 -9.5t5.5 -23.5q0 -43 -37 -68q-39 -31 -188 -77q-127 -180 -292 -336t-343.5 -254.5t-317.5 -98.5q-135 0 -237.5 85.5t-102.5 214.5q0 169 160 389q-153 99 -153 264q0 84 47 173.5t124.5 167t180.5 147.5t213 119.5t223.5 78.5t210.5 29q218 0 362 -129.5
t144 -313.5q0 -176 -143 -420q58 21 120 56q6 6 11 6zM184 776q-3 -80 117 -137q125 143 260.5 241.5t210.5 98.5q46 0 85.5 -36.5t39.5 -59.5q0 -9 -10 -9q-71 0 -186 -80t-232 -204q158 -29 334 -29q179 0 371 29q115 159 182 312t67 269q0 111 -65 159t-201 48
q-116 0 -239 -31.5t-228 -83t-199.5 -117t-161 -132t-106 -129.5t-39.5 -109zM301 -8q183 0 390.5 134t385.5 345q-205 -41 -393 -41q-177 0 -313 43q-86 -110 -137.5 -213t-51.5 -178q0 -47 24.5 -68.5t94.5 -21.5z" />
    <glyph glyph-name="Otilde" unicode="&#xd5;" horiz-adv-x="1347" 
d="M1014 1651q-8 0 -18.5 10.5t-10.5 19.5q0 50 73 106t124 56q34 0 60.5 -20.5t40 -45t31 -45t34.5 -20.5q21 0 39 10.5t26.5 20t20.5 29t14 22.5q12 0 25.5 -14t13.5 -25q0 -44 -70 -88.5t-129 -44.5q-28 0 -55.5 20t-46 44.5t-40 44.5t-38.5 20q-7 0 -14.5 -5
t-17.5 -16.5t-18 -21.5t-21.5 -28t-22.5 -29zM1561 717q7 0 12.5 -9.5t5.5 -23.5q0 -43 -37 -68q-39 -31 -188 -77q-127 -180 -292 -336t-343.5 -254.5t-317.5 -98.5q-135 0 -237.5 85.5t-102.5 214.5q0 169 160 389q-153 99 -153 264q0 84 47 173.5t124.5 167t180.5 147.5
t213 119.5t223.5 78.5t210.5 29q218 0 362 -129.5t144 -313.5q0 -176 -143 -420q58 21 120 56q6 6 11 6zM184 776q-3 -80 117 -137q125 143 260.5 241.5t210.5 98.5q46 0 85.5 -36.5t39.5 -59.5q0 -9 -10 -9q-71 0 -186 -80t-232 -204q158 -29 334 -29q179 0 371 29
q115 159 182 312t67 269q0 111 -65 159t-201 48q-116 0 -239 -31.5t-228 -83t-199.5 -117t-161 -132t-106 -129.5t-39.5 -109zM301 -8q183 0 390.5 134t385.5 345q-205 -41 -393 -41q-177 0 -313 43q-86 -110 -137.5 -213t-51.5 -178q0 -47 24.5 -68.5t94.5 -21.5z" />
    <glyph glyph-name="Odieresis" unicode="&#xd6;" horiz-adv-x="1347" 
d="M1055 1663q-18 0 -28.5 12.5t-10.5 28.5q0 43 46.5 101.5t80.5 58.5q63 0 63 -45t-54.5 -100.5t-96.5 -55.5zM1284 1626q-37 0 -37 37q0 45 42 104.5t75 59.5q63 0 63 -45q0 -44 -51 -100t-92 -56zM1561 717q7 0 12.5 -9.5t5.5 -23.5q0 -43 -37 -68q-39 -31 -188 -77
q-127 -180 -292 -336t-343.5 -254.5t-317.5 -98.5q-135 0 -237.5 85.5t-102.5 214.5q0 169 160 389q-153 99 -153 264q0 84 47 173.5t124.5 167t180.5 147.5t213 119.5t223.5 78.5t210.5 29q218 0 362 -129.5t144 -313.5q0 -176 -143 -420q58 21 120 56q6 6 11 6zM184 776
q-3 -80 117 -137q125 143 260.5 241.5t210.5 98.5q46 0 85.5 -36.5t39.5 -59.5q0 -9 -10 -9q-71 0 -186 -80t-232 -204q158 -29 334 -29q179 0 371 29q115 159 182 312t67 269q0 111 -65 159t-201 48q-116 0 -239 -31.5t-228 -83t-199.5 -117t-161 -132t-106 -129.5
t-39.5 -109zM301 -8q183 0 390.5 134t385.5 345q-205 -41 -393 -41q-177 0 -313 43q-86 -110 -137.5 -213t-51.5 -178q0 -47 24.5 -68.5t94.5 -21.5z" />
    <glyph glyph-name="multiply" unicode="&#xd7;" horiz-adv-x="839" 
d="M823 791q37 0 69 -30.5t32 -51.5q0 -9 -9 -9h-6q-77 -6 -299 -200q31 -95 65.5 -169t61.5 -95q15 -12 15 -19q0 -10 -25 -10q-51 0 -84 26q-56 42 -123 183q-197 -190 -235 -277q-3 -10 -15 -10q-23 0 -50 33.5t-27 81.5q0 30 80.5 120t191.5 189q-47 139 -47 274
q0 35 33 35q32 0 68 -27t36 -57q-2 -6 -2 -22q0 -43 16 -115q185 150 254 150z" />
    <glyph glyph-name="Oslash" unicode="&#xd8;" horiz-adv-x="1382" 
d="M1784 1548q34 0 64 -22.5t30 -38.5q0 -15 -23 -21q-93 -61 -251 -206q47 -86 47 -191q0 -110 -53.5 -246.5t-141.5 -270t-207 -262t-244.5 -225t-259 -156t-245.5 -59.5q-79 0 -152 31q-100 -133 -100 -168q6 -18 6 -20q0 -6 -7 -11.5t-14 -5.5q-30 0 -61 44.5t-31 89.5
q0 40 86 159q-71 77 -71 189q0 165 149 399q-67 39 -111 103t-44 147q0 101 64.5 207.5t171 194.5t234.5 159t265 110.5t252 39.5q120 0 223 -43.5t174 -118.5q211 192 250 192zM276 88q0 -24 7 -45q183 235 536 605t647 646q-58 84 -237 84q-116 0 -238.5 -31.5t-226.5 -83
t-197.5 -117t-158.5 -132t-103.5 -129.5t-38.5 -109q0 -88 99 -135q116 156 245.5 266.5t192.5 110.5q41 0 80 -35.5t39 -60.5q0 -11 -15 -11q-60 0 -167.5 -91.5t-215.5 -227.5q15 -9 15 -25q0 -17 -19.5 -33t-52.5 -20q-191 -266 -191 -426zM434 -6q121 8 252 71.5
t246 160t220 219.5t180.5 248.5t120.5 248.5t46 219q-254 -245 -560 -582t-505 -585z" />
    <glyph glyph-name="Ugrave" unicode="&#xd9;" horiz-adv-x="1271" 
d="M1548 1501q-60 0 -141.5 90.5t-81.5 151.5q0 36 38 56t75 20q35 0 35 -19q0 -7 -5 -12q-7 -42 34 -128.5t81 -117.5q12 -6 12 -14q0 -9 -14.5 -18t-32.5 -9zM1800 1499q41 0 90 -35.5t49 -58.5q0 -12 -16 -12q-72 -43 -225.5 -239.5t-304.5 -428t-266.5 -457.5
t-116.5 -319q0 -45 24 -55q2 0 5 1t5 1q11 0 18 -7.5t7 -17.5q0 -12 -10 -22.5t-29 -10.5q-52 0 -105 66t-53 135q0 123 105 311.5t303 464.5l-10 6q-147 -164 -288 -309t-278 -270t-248.5 -198t-174.5 -73q-79 0 -149.5 79.5t-70.5 174.5q0 114 134 335.5t333 475.5
q-28 7 -43.5 21.5t-15.5 29.5q0 8 5.5 15t14.5 8q20 7 127 93.5t193 164.5q148 148 197 148q41 0 86 -40.5t43 -68.5q0 -15 -17 -18q-54 -9 -203.5 -166t-303.5 -355t-274 -397t-120 -281q0 -57 47 -57q60 0 196.5 95t298.5 239t334.5 311.5t312.5 315t226 247.5
q126 158 168 158z" />
    <glyph glyph-name="Uacute" unicode="&#xda;" horiz-adv-x="1271" 
d="M1366 1585q-33 0 -56.5 17t-23.5 36q0 15 21 15q54 10 154.5 76.5t113.5 107.5q6 12 18 12q22 0 45 -27t23 -63q0 -40 -51.5 -81.5t-121 -67t-122.5 -25.5zM1800 1499q41 0 90 -35.5t49 -58.5q0 -12 -16 -12q-72 -43 -225.5 -239.5t-304.5 -428t-266.5 -457.5
t-116.5 -319q0 -45 24 -55q2 0 5 1t5 1q11 0 18 -7.5t7 -17.5q0 -12 -10 -22.5t-29 -10.5q-52 0 -105 66t-53 135q0 123 105 311.5t303 464.5l-10 6q-147 -164 -288 -309t-278 -270t-248.5 -198t-174.5 -73q-79 0 -149.5 79.5t-70.5 174.5q0 114 134 335.5t333 475.5
q-28 7 -43.5 21.5t-15.5 29.5q0 8 5.5 15t14.5 8q20 7 127 93.5t193 164.5q148 148 197 148q41 0 86 -40.5t43 -68.5q0 -15 -17 -18q-54 -9 -203.5 -166t-303.5 -355t-274 -397t-120 -281q0 -57 47 -57q60 0 196.5 95t298.5 239t334.5 311.5t312.5 315t226 247.5
q126 158 168 158z" />
    <glyph glyph-name="Ucircumflex" unicode="&#xdb;" horiz-adv-x="1271" 
d="M1266 1595q-11 0 -22 15t-11 28q0 23 57 68.5t135.5 83t130.5 37.5q44 0 79.5 -40.5t35.5 -80.5q0 -43 -38 -100.5t-83 -57.5q-26 0 -43.5 12t-17.5 27q0 12 10 17q43 64 43 84q0 28 -33 28q-35 0 -104 -34.5t-127 -79.5q-4 -7 -12 -7zM1800 1499q41 0 90 -35.5t49 -58.5
q0 -12 -16 -12q-72 -43 -225.5 -239.5t-304.5 -428t-266.5 -457.5t-116.5 -319q0 -45 24 -55q2 0 5 1t5 1q11 0 18 -7.5t7 -17.5q0 -12 -10 -22.5t-29 -10.5q-52 0 -105 66t-53 135q0 123 105 311.5t303 464.5l-10 6q-147 -164 -288 -309t-278 -270t-248.5 -198t-174.5 -73
q-79 0 -149.5 79.5t-70.5 174.5q0 114 134 335.5t333 475.5q-28 7 -43.5 21.5t-15.5 29.5q0 8 5.5 15t14.5 8q20 7 127 93.5t193 164.5q148 148 197 148q41 0 86 -40.5t43 -68.5q0 -15 -17 -18q-54 -9 -203.5 -166t-303.5 -355t-274 -397t-120 -281q0 -57 47 -57
q60 0 196.5 95t298.5 239t334.5 311.5t312.5 315t226 247.5q126 158 168 158z" />
    <glyph glyph-name="Udieresis" unicode="&#xdc;" horiz-adv-x="1271" 
d="M1268 1602q-18 0 -28.5 12t-10.5 28q0 43 46.5 101.5t80.5 58.5q63 0 63 -45t-54.5 -100t-96.5 -55zM1497 1565q-37 0 -37 37q0 45 42 104t75 59q63 0 63 -45q0 -44 -51 -99.5t-92 -55.5zM1800 1499q41 0 90 -35.5t49 -58.5q0 -12 -16 -12q-72 -43 -225.5 -239.5
t-304.5 -428t-266.5 -457.5t-116.5 -319q0 -45 24 -55q2 0 5 1t5 1q11 0 18 -7.5t7 -17.5q0 -12 -10 -22.5t-29 -10.5q-52 0 -105 66t-53 135q0 123 105 311.5t303 464.5l-10 6q-147 -164 -288 -309t-278 -270t-248.5 -198t-174.5 -73q-79 0 -149.5 79.5t-70.5 174.5
q0 114 134 335.5t333 475.5q-28 7 -43.5 21.5t-15.5 29.5q0 8 5.5 15t14.5 8q20 7 127 93.5t193 164.5q148 148 197 148q41 0 86 -40.5t43 -68.5q0 -15 -17 -18q-54 -9 -203.5 -166t-303.5 -355t-274 -397t-120 -281q0 -57 47 -57q60 0 196.5 95t298.5 239t334.5 311.5
t312.5 315t226 247.5q126 158 168 158z" />
    <glyph glyph-name="Yacute" unicode="&#xdd;" horiz-adv-x="1241" 
d="M1378 1589q-33 0 -56.5 17t-23.5 36q0 15 21 15q54 10 154.5 76.5t113.5 107.5q6 12 19 12q22 0 44.5 -27t22.5 -63q0 -40 -51.5 -81.5t-121 -67t-122.5 -25.5zM1788 1507q42 0 85.5 -36.5t43.5 -61.5q0 -10 -12 -10q-79 -39 -257.5 -275.5t-354.5 -518.5t-310.5 -552
t-134.5 -368q0 -32 22 -41q2 0 6.5 1t6.5 1q10 0 16 -7t6 -16q0 -12 -10.5 -23.5t-28.5 -11.5q-65 0 -129.5 72.5t-64.5 149.5q0 54 42.5 150t102 197t156 243.5t172.5 248.5t183 253q10 14 16 22t14.5 19.5t15.5 21.5l-8 6q-188 -206 -389.5 -394.5t-382.5 -318
t-264 -129.5q-75 0 -141 80.5t-66 175.5t104.5 269.5t264.5 377.5q-33 7 -51.5 22.5t-18.5 30.5q0 22 20 25q21 7 134 97.5t208 172.5q146 136 181 136q40 0 89.5 -40t49.5 -67q0 -17 -25 -20q-45 -10 -175 -142.5t-266.5 -300t-243.5 -340.5t-107 -252q0 -57 49 -57
q89 0 354.5 204t526.5 448t401 403q126 155 170 155z" />
    <glyph glyph-name="Thorn" unicode="&#xde;" horiz-adv-x="1355" 
d="M1167 1268q203 -26 314.5 -123.5t111.5 -249.5q0 -88 -38.5 -170.5t-103.5 -147.5t-149.5 -122.5t-176 -98.5t-183 -70.5t-172 -44t-141.5 -14.5q-51 0 -98.5 27.5t-75.5 64.5q-191 -302 -191 -389q0 -21 10.5 -34t10.5 -21q0 -20 -23 -20q-39 0 -79 51t-40 139
q0 117 214.5 442t480.5 639q-257 -43 -492.5 -147.5t-320.5 -224.5q37 -9 96 -9q44 0 127 11q-7 -29 -76 -68t-135 -39q-41 0 -84 54t-43 110q0 70 98 151.5t249 148t344 113t370 52.5q257 281 332 281q42 0 88.5 -26.5t46.5 -47.5q0 -6 -4.5 -10.5t-10.5 -4.5
q-67 0 -256 -202zM530 373q63 0 155.5 19t198.5 53t211 86t189.5 112.5t137.5 138.5t53 158q0 211 -379 211h-33q-297 -349 -574 -776q12 -2 41 -2z" />
    <glyph glyph-name="germandbls" unicode="&#xdf;" horiz-adv-x="1017" 
d="M1298 408q0 -9 -4 -17q-148 -133 -338 -223q0 -39 -54 -79.5t-125 -67t-135 -43.5t-89 -17q-38 0 -74.5 42t-36.5 79q0 21 14.5 30.5t49.5 20.5q27 9 130 35.5t173 50.5q-242 131 -242 244q0 21 11 47.5t34.5 60.5t47 64.5t63.5 74.5t67.5 73.5t74.5 79t71 75.5
q102 110 158.5 187t56.5 120q0 35 -37 35q-66 0 -179 -108t-235.5 -273t-250.5 -365t-229 -382.5t-165.5 -326t-64.5 -194.5q4 -12 4 -16q0 -16 -17 -16q-32 0 -70.5 45.5t-37.5 107.5q1 53 65.5 195.5t166.5 322.5t232.5 376t257 358.5t248 268t199.5 105.5q48 0 103 -24
t97 -71t42 -101q0 -66 -56 -143.5t-165 -188.5l-65 -65t-67.5 -68t-61 -63t-57.5 -62.5t-42.5 -52t-31 -47t-9.5 -33.5q0 -32 31 -64t83 -71.5t76 -65.5q194 84 340 205q4 2 9 2q12 0 23 -18.5t11 -38.5z" />
    <glyph glyph-name="agrave" unicode="&#xe0;" horiz-adv-x="931" 
d="M1004 899q-60 0 -142 90.5t-82 151.5q0 36 38 56t75 20q35 0 35 -19q0 -8 -4 -12q-7 -42 33.5 -128.5t80.5 -117.5q13 -6 13 -14q0 -9 -14.5 -18t-32.5 -9zM1178 465q12 0 23 -18.5t11 -38.5q0 -9 -4 -17q-162 -149 -299.5 -252.5t-179.5 -103.5q-32 0 -72.5 44t-40.5 83
q0 57 54 180q-113 -120 -256.5 -235t-204.5 -115q-45 0 -92 55.5t-47 112.5t44.5 148.5t118 188.5t158.5 184t176.5 142.5t161.5 55.5q68 0 136.5 -43.5t68.5 -92.5q0 -34 -25.5 -73t-54.5 -39q-14 0 -27 10q6 4 14.5 27t8.5 45q0 49 -53 49q-56 0 -132.5 -48.5t-149 -122.5
t-136 -154t-102.5 -150t-39 -105q0 -26 24 -26q43 0 169 94.5t221 179t132 121.5q16 16 35 16q34 0 69.5 -36t35.5 -58q0 -4 -4 -8q-26 -28 -79 -118t-53 -126q0 -18 15 -18q31 0 134 74.5t232 185.5q4 2 9 2z" />
    <glyph glyph-name="aacute" unicode="&#xe1;" horiz-adv-x="931" 
d="M821 983q-33 0 -56.5 17t-23.5 36q0 15 21 15q54 10 154.5 76.5t113.5 107.5q6 12 19 12q22 0 44.5 -27t22.5 -63q0 -40 -51.5 -81.5t-121 -67t-122.5 -25.5zM1178 465q12 0 23 -18.5t11 -38.5q0 -9 -4 -17q-162 -149 -299.5 -252.5t-179.5 -103.5q-32 0 -72.5 44
t-40.5 83q0 57 54 180q-113 -120 -256.5 -235t-204.5 -115q-45 0 -92 55.5t-47 112.5t44.5 148.5t118 188.5t158.5 184t176.5 142.5t161.5 55.5q68 0 136.5 -43.5t68.5 -92.5q0 -34 -25.5 -73t-54.5 -39q-14 0 -27 10q6 4 14.5 27t8.5 45q0 49 -53 49q-56 0 -132.5 -48.5
t-149 -122.5t-136 -154t-102.5 -150t-39 -105q0 -26 24 -26q43 0 169 94.5t221 179t132 121.5q16 16 35 16q34 0 69.5 -36t35.5 -58q0 -4 -4 -8q-26 -28 -79 -118t-53 -126q0 -18 15 -18q31 0 134 74.5t232 185.5q4 2 9 2z" />
    <glyph glyph-name="acircumflex" unicode="&#xe2;" horiz-adv-x="931" 
d="M721 993q-11 0 -22 15t-11 28q0 23 57 68.5t136 83t131 37.5q44 0 79 -40t35 -81q0 -43 -37.5 -100.5t-82.5 -57.5q-26 0 -44 12.5t-18 26.5q0 11 10 16q0 1 8.5 12.5t12.5 18t10 17.5t9 20t3 16q0 29 -32 29q-35 0 -104.5 -35t-127.5 -80q-3 -6 -12 -6zM1178 465
q12 0 23 -18.5t11 -38.5q0 -9 -4 -17q-162 -149 -299.5 -252.5t-179.5 -103.5q-32 0 -72.5 44t-40.5 83q0 57 54 180q-113 -120 -256.5 -235t-204.5 -115q-45 0 -92 55.5t-47 112.5t44.5 148.5t118 188.5t158.5 184t176.5 142.5t161.5 55.5q68 0 136.5 -43.5t68.5 -92.5
q0 -34 -25.5 -73t-54.5 -39q-14 0 -27 10q6 4 14.5 27t8.5 45q0 49 -53 49q-56 0 -132.5 -48.5t-149 -122.5t-136 -154t-102.5 -150t-39 -105q0 -26 24 -26q43 0 169 94.5t221 179t132 121.5q16 16 35 16q34 0 69.5 -36t35.5 -58q0 -4 -4 -8q-26 -28 -79 -118t-53 -126
q0 -18 15 -18q31 0 134 74.5t232 185.5q4 2 9 2z" />
    <glyph glyph-name="atilde" unicode="&#xe3;" horiz-adv-x="931" 
d="M682 987q-8 0 -18.5 11t-10.5 20q0 50 73 106t124 56q34 0 60.5 -20.5t40 -45t31 -45t34.5 -20.5q21 0 39.5 10.5t26 19.5t20 29t14.5 22q12 0 25.5 -13.5t13.5 -24.5q0 -44 -70 -89t-129 -45q-28 0 -55.5 20t-46 44.5t-40 44.5t-38.5 20q-7 0 -14.5 -5t-17.5 -16.5
t-18 -21.5t-21.5 -28t-22.5 -29zM1178 465q12 0 23 -18.5t11 -38.5q0 -9 -4 -17q-162 -149 -299.5 -252.5t-179.5 -103.5q-32 0 -72.5 44t-40.5 83q0 57 54 180q-113 -120 -256.5 -235t-204.5 -115q-45 0 -92 55.5t-47 112.5t44.5 148.5t118 188.5t158.5 184t176.5 142.5
t161.5 55.5q68 0 136.5 -43.5t68.5 -92.5q0 -34 -25.5 -73t-54.5 -39q-14 0 -27 10q6 4 14.5 27t8.5 45q0 49 -53 49q-56 0 -132.5 -48.5t-149 -122.5t-136 -154t-102.5 -150t-39 -105q0 -26 24 -26q43 0 169 94.5t221 179t132 121.5q16 16 35 16q34 0 69.5 -36t35.5 -58
q0 -4 -4 -8q-26 -28 -79 -118t-53 -126q0 -18 15 -18q31 0 134 74.5t232 185.5q4 2 9 2z" />
    <glyph glyph-name="adieresis" unicode="&#xe4;" horiz-adv-x="931" 
d="M723 999q-18 0 -28.5 12.5t-10.5 28.5q0 43 46.5 101.5t80.5 58.5q63 0 63 -45t-54.5 -100.5t-96.5 -55.5zM952 963q-37 0 -37 36q0 45 42 104.5t75 59.5q64 0 64 -45q0 -44 -51.5 -99.5t-92.5 -55.5zM1178 465q12 0 23 -18.5t11 -38.5q0 -9 -4 -17
q-162 -149 -299.5 -252.5t-179.5 -103.5q-32 0 -72.5 44t-40.5 83q0 57 54 180q-113 -120 -256.5 -235t-204.5 -115q-45 0 -92 55.5t-47 112.5t44.5 148.5t118 188.5t158.5 184t176.5 142.5t161.5 55.5q68 0 136.5 -43.5t68.5 -92.5q0 -34 -25.5 -73t-54.5 -39q-14 0 -27 10
q6 4 14.5 27t8.5 45q0 49 -53 49q-56 0 -132.5 -48.5t-149 -122.5t-136 -154t-102.5 -150t-39 -105q0 -26 24 -26q43 0 169 94.5t221 179t132 121.5q16 16 35 16q34 0 69.5 -36t35.5 -58q0 -4 -4 -8q-26 -28 -79 -118t-53 -126q0 -18 15 -18q31 0 134 74.5t232 185.5
q4 2 9 2z" />
    <glyph glyph-name="aring" unicode="&#xe5;" horiz-adv-x="931" 
d="M940 975q-110 0 -174 46.5t-64 100.5q0 24 22.5 44t55.5 32q7 17 31.5 30t62.5 13q114 0 186.5 -54.5t72.5 -103.5q0 -10 -12.5 -27.5t-35 -36t-61.5 -31.5t-84 -13zM813 1139q-4 -36 63 -67.5t125 -31.5q31 0 31 17q0 27 -63 67.5t-121 40.5q-11 0 -17 -2
q-12 -20 -18 -24zM1178 465q12 0 23 -18.5t11 -38.5q0 -9 -4 -17q-162 -149 -299.5 -252.5t-179.5 -103.5q-32 0 -72.5 44t-40.5 83q0 57 54 180q-113 -120 -256.5 -235t-204.5 -115q-45 0 -92 55.5t-47 112.5t44.5 148.5t118 188.5t158.5 184t176.5 142.5t161.5 55.5
q68 0 136.5 -43.5t68.5 -92.5q0 -34 -25.5 -73t-54.5 -39q-14 0 -27 10q6 4 14.5 27t8.5 45q0 49 -53 49q-56 0 -132.5 -48.5t-149 -122.5t-136 -154t-102.5 -150t-39 -105q0 -26 24 -26q43 0 169 94.5t221 179t132 121.5q16 16 35 16q34 0 69.5 -36t35.5 -58q0 -4 -4 -8
q-26 -28 -79 -118t-53 -126q0 -18 15 -18q31 0 134 74.5t232 185.5q4 2 9 2z" />
    <glyph glyph-name="ae" unicode="&#xe6;" horiz-adv-x="1200" 
d="M1446 465q13 0 24 -19t11 -38q0 -9 -4 -17q-67 -60 -143 -120.5t-169.5 -125t-184.5 -105t-155 -40.5q-63 0 -115 38t-78 89t-26 98q0 26 10 64q-134 -118 -250 -203.5t-153 -85.5q-46 0 -94.5 51.5t-48.5 108.5q0 70 67 192.5t163 238.5t213 202t206 86q65 0 133 -43.5
t68 -92.5q0 -13 -9 -28q146 129 246 129q69 0 125.5 -56t56.5 -110q0 -57 -69.5 -128t-176.5 -122t-202 -51q-37 0 -70 10q-67 -108 -67 -172q0 -72 84 -72q63 0 161.5 42t188.5 99.5t158 106.5t92 72q4 2 8 2zM262 156q47 0 219 143.5t273 241.5l53 65q-12 -4 -23 -4
q-22 0 -41 16q31 29 55.5 62.5t24.5 54.5q0 27 -41 27q-69 0 -166.5 -73.5t-179 -170.5t-140 -193.5t-58.5 -140.5q0 -28 24 -28zM1202 723q-59 0 -153.5 -77t-174.5 -183h9q56 0 140 48t145 106.5t61 87.5q0 18 -27 18z" />
    <glyph glyph-name="ccedilla" unicode="&#xe7;" horiz-adv-x="684" 
d="M965 408q0 -9 -4 -17q-127 -116 -278 -226t-275 -157q-102 -143 -213.5 -218t-192.5 -75q-50 0 -80.5 29.5t-30.5 69.5q0 54 55 90.5t99 36.5q14 0 19.5 -6.5t-1.5 -18.5q-10 -10 -10 -37q0 -53 43 -53q38 0 87.5 45t97.5 111q-78 4 -138.5 80t-60.5 141q0 78 57.5 191.5
t138.5 213t175.5 171t162.5 71.5q69 0 139 -57t70 -115q0 -47 -44.5 -94t-99.5 -73t-93 -26t-35 27q56 42 105 102.5t49 92.5q0 22 -29 22q-65 0 -173 -100.5t-191 -230t-83 -205.5q0 -68 74 -68q64 0 162.5 43t191 103t162.5 111.5t101 80.5q4 2 8 2q13 0 24 -19t11 -38z
" />
    <glyph glyph-name="egrave" unicode="&#xe8;" horiz-adv-x="681" 
d="M883 883q-60 0 -142 90t-82 151q0 36 38 56t75 20q35 0 35 -18q0 -9 -4 -13q-7 -42 34 -128t81 -117q12 -6 12 -15t-14.5 -17.5t-32.5 -8.5zM928 465q13 0 24 -19t11 -38q0 -7 -5 -17q-67 -60 -143 -120.5t-170 -125t-185 -105t-155 -40.5q-91 0 -157 72t-66 153
q0 70 56.5 177t137.5 205t179.5 168.5t173.5 70.5q69 0 129.5 -56t60.5 -110q0 -57 -66 -128t-172.5 -123t-207.5 -52q-37 0 -70 10q-67 -108 -67 -172q0 -72 81 -72q63 0 162 42t189.5 99.5t159 106.5t92.5 72q4 2 8 2zM678 725q-56 0 -150 -78t-172 -184h9q56 0 139 43
t144 100.5t61 95.5q0 23 -31 23z" />
    <glyph glyph-name="eacute" unicode="&#xe9;" horiz-adv-x="681" 
d="M700 967q-33 0 -56 17t-23 36q0 14 20 14q54 10 154.5 77t113.5 108q6 12 19 12q22 0 44.5 -27t22.5 -63q0 -40 -51.5 -81.5t-121 -67t-122.5 -25.5zM928 465q13 0 24 -19t11 -38q0 -7 -5 -17q-67 -60 -143 -120.5t-170 -125t-185 -105t-155 -40.5q-91 0 -157 72t-66 153
q0 70 56.5 177t137.5 205t179.5 168.5t173.5 70.5q69 0 129.5 -56t60.5 -110q0 -57 -66 -128t-172.5 -123t-207.5 -52q-37 0 -70 10q-67 -108 -67 -172q0 -72 81 -72q63 0 162 42t189.5 99.5t159 106.5t92.5 72q4 2 8 2zM678 725q-56 0 -150 -78t-172 -184h9q56 0 139 43
t144 100.5t61 95.5q0 23 -31 23z" />
    <glyph glyph-name="ecircumflex" unicode="&#xea;" horiz-adv-x="681" 
d="M600 977q-11 0 -22 15t-11 28q0 23 57 68.5t136 82.5t131 37q44 0 79.5 -40.5t35.5 -80.5q0 -43 -38 -100t-83 -57q-26 0 -44 12.5t-18 26.5q0 11 11 16q0 1 8.5 12.5t12.5 18t10 17.5t9 20t3 16q0 29 -33 29q-35 0 -104.5 -35t-127.5 -80q-3 -6 -12 -6zM928 465
q13 0 24 -19t11 -38q0 -7 -5 -17q-67 -60 -143 -120.5t-170 -125t-185 -105t-155 -40.5q-91 0 -157 72t-66 153q0 70 56.5 177t137.5 205t179.5 168.5t173.5 70.5q69 0 129.5 -56t60.5 -110q0 -57 -66 -128t-172.5 -123t-207.5 -52q-37 0 -70 10q-67 -108 -67 -172
q0 -72 81 -72q63 0 162 42t189.5 99.5t159 106.5t92.5 72q4 2 8 2zM678 725q-56 0 -150 -78t-172 -184h9q56 0 139 43t144 100.5t61 95.5q0 23 -31 23z" />
    <glyph glyph-name="edieresis" unicode="&#xeb;" horiz-adv-x="696" 
d="M659 958q-18 0 -27 12t-9 29q0 43 46.5 101.5t80.5 58.5q63 0 63 -45t-56 -100.5t-98 -55.5zM854 897q-37 0 -37 37q0 45 42 104.5t75 59.5q63 0 63 -45q0 -44 -51 -100t-92 -56zM928 465q13 0 24 -19t11 -38q0 -7 -5 -17q-67 -60 -143 -120.5t-170 -125t-185 -105
t-155 -40.5q-91 0 -157 72t-66 153q0 70 56.5 177t137.5 205t179.5 168.5t173.5 70.5q69 0 129.5 -56t60.5 -110q0 -57 -66 -128t-172.5 -123t-207.5 -52q-37 0 -70 10q-67 -108 -67 -172q0 -72 81 -72q63 0 162 42t189.5 99.5t159 106.5t92.5 72q4 2 8 2zM678 725
q-56 0 -150 -78t-172 -184h9q56 0 139 43t144 100.5t61 95.5q0 23 -31 23z" />
    <glyph glyph-name="igrave" unicode="&#xec;" horiz-adv-x="462" 
d="M592 1141q0 36 38 56t75 20q34 0 34 -19q0 -8 -4 -12q-7 -42 34 -128.5t81 -117.5q12 -6 12 -14q0 -9 -14.5 -18t-32.5 -9q-60 0 -141.5 90.5t-81.5 151.5zM195 2q-37 0 -80 56t-43 100q0 61 89.5 226.5t196 307.5t148.5 142q33 0 77 -27.5t44 -48.5q0 -8 -11 -13
q-26 -12 -115.5 -126.5t-171 -246t-81.5 -177.5q0 -21 18 -21q41 0 178.5 92t255.5 197q4 2 9 2q12 0 23 -18.5t11 -38.5q0 -9 -4 -17q-171 -160 -329 -274.5t-215 -114.5z" />
    <glyph glyph-name="iacute" unicode="&#xed;" horiz-adv-x="462" 
d="M633 983q-33 0 -56.5 17t-23.5 36q0 15 20 15q54 10 155 76.5t114 107.5q6 12 18 12q22 0 45 -27t23 -63q0 -40 -51.5 -81.5t-121 -67t-122.5 -25.5zM195 2q-37 0 -80 56t-43 100q0 61 89.5 226.5t196 307.5t148.5 142q33 0 77 -27.5t44 -48.5q0 -8 -11 -13
q-26 -12 -115.5 -126.5t-171 -246t-81.5 -177.5q0 -21 18 -21q41 0 178.5 92t255.5 197q4 2 9 2q12 0 23 -18.5t11 -38.5q0 -9 -4 -17q-171 -160 -329 -274.5t-215 -114.5z" />
    <glyph glyph-name="icircumflex" unicode="&#xee;" horiz-adv-x="462" 
d="M817 946q-26 0 -43.5 12t-17.5 27q0 11 10 16q0 1 8.5 12.5t12.5 18t10 17.5t9 20t3 16q0 29 -33 29q-35 0 -104 -35t-127 -80q-3 -6 -13 -6q-11 0 -21.5 15t-10.5 28q0 23 57 68.5t135.5 83t130.5 37.5q44 0 79.5 -40.5t35.5 -80.5q0 -43 -38 -100.5t-83 -57.5zM195 2
q-37 0 -80 56t-43 100q0 61 89.5 226.5t196 307.5t148.5 142q33 0 77 -27.5t44 -48.5q0 -8 -11 -13q-26 -12 -115.5 -126.5t-171 -246t-81.5 -177.5q0 -21 18 -21q41 0 178.5 92t255.5 197q4 2 9 2q12 0 23 -18.5t11 -38.5q0 -9 -4 -17q-171 -160 -329 -274.5t-215 -114.5z
" />
    <glyph glyph-name="idieresis" unicode="&#xef;" horiz-adv-x="462" 
d="M623 1200q63 0 63 -45t-54.5 -100.5t-96.5 -55.5q-18 0 -28.5 12.5t-10.5 28.5q0 43 46.5 101.5t80.5 58.5zM844 1163q63 0 63 -45q0 -44 -51 -99.5t-92 -55.5q-37 0 -37 36q0 45 42 104.5t75 59.5zM195 2q-37 0 -80 56t-43 100q0 61 89.5 226.5t196 307.5t148.5 142
q33 0 77 -27.5t44 -48.5q0 -8 -11 -13q-26 -12 -115.5 -126.5t-171 -246t-81.5 -177.5q0 -21 18 -21q41 0 178.5 92t255.5 197q4 2 9 2q12 0 23 -18.5t11 -38.5q0 -9 -4 -17q-171 -160 -329 -274.5t-215 -114.5z" />
    <glyph glyph-name="eth" unicode="&#xf0;" horiz-adv-x="780" 
d="M1061 1133q160 -7 160 -64q0 -14 -7.5 -21.5t-17.5 -7.5q-14 0 -20 13q-4 2 -27 2q-26 0 -84 -4q-6 -104 -55 -243t-127 -280q2 -14 2 -51q0 -36 -14.5 -59t-32.5 -23q-16 0 -25 19q-121 -184 -257 -300t-257 -116q-83 0 -146 72.5t-63 152.5q0 69 53 173.5t130.5 199.5
t174 163t173.5 68q59 0 115.5 -35.5t82.5 -82.5q94 182 119 329q-147 -20 -270 -54.5t-158 -70.5q-8 -4 -12 -4q-13 0 -13 21q0 25 16 56.5t40 45.5q56 35 172 61.5t235 34.5v11q0 80 -20 100q-9 9 -21.5 12t-21.5 3.5t-16 6.5t-7 21q0 12 10 19.5t25 7.5q63 0 107.5 -49.5
t56.5 -126.5zM262 125q93 0 235.5 139.5t262.5 339.5q-15 107 -70 107q-49 0 -129 -62t-153.5 -147t-127 -179.5t-53.5 -152.5q0 -45 35 -45z" />
    <glyph glyph-name="ntilde" unicode="&#xf1;" horiz-adv-x="913" 
d="M655 987q-8 0 -18 11t-10 20q0 50 72.5 106t123.5 56q34 0 60.5 -20.5t40 -45t31 -45t34.5 -20.5q21 0 39.5 10.5t26.5 19.5t21 29.5t14 21.5q12 0 25 -13.5t13 -24.5q0 -44 -69.5 -89t-128.5 -45q-28 0 -55.5 20t-46 44.5t-40 44.5t-38.5 20q-7 0 -14.5 -5t-18 -16.5
t-18.5 -21.5t-22 -28.5t-22 -28.5zM1159 465q12 0 23.5 -18.5t11.5 -38.5q0 -9 -4 -17q-158 -147 -305.5 -251.5t-200.5 -104.5q-39 0 -76 54t-37 106q0 78 90 223.5t168 236.5l-8 9q-113 -85 -382 -333t-306 -321q-8 -14 -24 -14q-28 0 -58.5 44.5t-30.5 86.5q0 19 11 37
q34 54 149 220.5t195 290.5t80 152q0 2 -1 6.5t-1 6.5q0 12 18 12q33 0 77.5 -36.5t43.5 -76.5q0 -6 -10.5 -23.5t-32.5 -50t-42.5 -63t-56 -80t-58.5 -81.5t-64 -88.5t-58 -80.5q197 202 401.5 383t264.5 181q29 0 81 -50t52 -79q0 -14 -12 -17q-105 -85 -208.5 -241.5
t-103.5 -219.5q0 -22 19 -22q36 0 151.5 75.5t235.5 180.5q4 2 8 2z" />
    <glyph glyph-name="ograve" unicode="&#xf2;" 
d="M934 883q-60 0 -141.5 90t-81.5 151q0 36 37.5 56t74.5 20q35 0 35 -18q0 -9 -4 -13q-7 -42 34 -128t81 -117q12 -6 12 -15t-14.5 -17.5t-32.5 -8.5zM1122 528q6 1 11.5 -9.5t5.5 -22.5q0 -28 -21 -39q-181 -75 -348 -111q-105 -139 -243 -242.5t-244 -103.5
q-99 0 -161.5 65t-62.5 132q0 69 66 161t137 134q-10 38 -10 69q0 64 60.5 137t153 122.5t175.5 49.5q51 0 93.5 -20.5t69.5 -52t46 -69t27 -70.5t8 -58q0 -51 -37 -127q188 21 274 55zM686 754q-58 0 -138.5 -42t-137 -95.5t-56.5 -86.5q0 -36 73.5 -54.5t188.5 -18.5h50
q92 134 92 221q0 76 -72 76zM244 127q56 0 139.5 54.5t169.5 140.5q-154 3 -238 84q-47 -50 -84.5 -118t-37.5 -112q0 -49 51 -49z" />
    <glyph glyph-name="oacute" unicode="&#xf3;" horiz-adv-x="804" 
d="M737 958q-33 0 -56.5 17.5t-23.5 36.5q0 14 21 14q54 10 154.5 76.5t113.5 107.5q6 13 19 13q22 0 44.5 -27t22.5 -63q0 -40 -51.5 -82t-121 -67.5t-122.5 -25.5zM1122 528q6 1 11.5 -9.5t5.5 -22.5q0 -28 -21 -39q-181 -75 -348 -111q-105 -139 -243 -242.5t-244 -103.5
q-99 0 -161.5 65t-62.5 132q0 69 66 161t137 134q-10 38 -10 69q0 64 60.5 137t153 122.5t175.5 49.5q51 0 93.5 -20.5t69.5 -52t46 -69t27 -70.5t8 -58q0 -51 -37 -127q188 21 274 55zM686 754q-58 0 -138.5 -42t-137 -95.5t-56.5 -86.5q0 -36 73.5 -54.5t188.5 -18.5h50
q92 134 92 221q0 76 -72 76zM244 127q56 0 139.5 54.5t169.5 140.5q-154 3 -238 84q-47 -50 -84.5 -118t-37.5 -112q0 -49 51 -49z" />
    <glyph glyph-name="ocircumflex" unicode="&#xf4;" 
d="M651 977q-11 0 -22 15t-11 28q0 23 57 68.5t136 82.5t131 37q44 0 79.5 -40.5t35.5 -80.5q0 -43 -38 -100t-83 -57q-26 0 -44 12.5t-18 26.5q0 11 11 16q0 1 8.5 12.5t12.5 18t10 17.5t9 20t3 16q0 29 -33 29q-35 0 -104 -35t-127 -80q-3 -6 -13 -6zM1122 528
q6 1 11.5 -9.5t5.5 -22.5q0 -28 -21 -39q-181 -75 -348 -111q-105 -139 -243 -242.5t-244 -103.5q-99 0 -161.5 65t-62.5 132q0 69 66 161t137 134q-10 38 -10 69q0 64 60.5 137t153 122.5t175.5 49.5q51 0 93.5 -20.5t69.5 -52t46 -69t27 -70.5t8 -58q0 -51 -37 -127
q188 21 274 55zM686 754q-58 0 -138.5 -42t-137 -95.5t-56.5 -86.5q0 -36 73.5 -54.5t188.5 -18.5h50q92 134 92 221q0 76 -72 76zM244 127q56 0 139.5 54.5t169.5 140.5q-154 3 -238 84q-47 -50 -84.5 -118t-37.5 -112q0 -49 51 -49z" />
    <glyph glyph-name="otilde" unicode="&#xf5;" horiz-adv-x="790" 
d="M578 987q-8 0 -18.5 11t-10.5 20q0 50 72.5 106t123.5 56q34 0 60.5 -20.5t40 -45t31 -45t34.5 -20.5q21 0 39.5 10.5t26.5 19.5t21 29.5t14 21.5q12 0 25.5 -13.5t13.5 -24.5q0 -44 -70 -89t-129 -45q-28 0 -55.5 20t-46 44.5t-40 44.5t-38.5 20q-7 0 -14.5 -5
t-17.5 -16.5t-18 -21.5t-21.5 -28t-22.5 -29zM1122 528q6 1 11.5 -9.5t5.5 -22.5q0 -28 -21 -39q-181 -75 -348 -111q-105 -139 -243 -242.5t-244 -103.5q-99 0 -161.5 65t-62.5 132q0 69 66 161t137 134q-10 38 -10 69q0 64 60.5 137t153 122.5t175.5 49.5q51 0 93.5 -20.5
t69.5 -52t46 -69t27 -70.5t8 -58q0 -51 -37 -127q188 21 274 55zM686 754q-58 0 -138.5 -42t-137 -95.5t-56.5 -86.5q0 -36 73.5 -54.5t188.5 -18.5h50q92 134 92 221q0 76 -72 76zM244 127q56 0 139.5 54.5t169.5 140.5q-154 3 -238 84q-47 -50 -84.5 -118t-37.5 -112
q0 -49 51 -49z" />
    <glyph glyph-name="odieresis" unicode="&#xf6;" 
d="M653 983q-18 0 -28.5 12.5t-10.5 28.5q0 43 46.5 101.5t80.5 58.5q64 0 64 -45t-55 -100.5t-97 -55.5zM883 946q-37 0 -37 37q0 45 42 104.5t75 59.5q63 0 63 -45q0 -44 -51 -100t-92 -56zM1122 528q6 1 11.5 -9.5t5.5 -22.5q0 -28 -21 -39q-181 -75 -348 -111
q-105 -139 -243 -242.5t-244 -103.5q-99 0 -161.5 65t-62.5 132q0 69 66 161t137 134q-10 38 -10 69q0 64 60.5 137t153 122.5t175.5 49.5q51 0 93.5 -20.5t69.5 -52t46 -69t27 -70.5t8 -58q0 -51 -37 -127q188 21 274 55zM686 754q-58 0 -138.5 -42t-137 -95.5t-56.5 -86.5
q0 -36 73.5 -54.5t188.5 -18.5h50q92 134 92 221q0 76 -72 76zM244 127q56 0 139.5 54.5t169.5 140.5q-154 3 -238 84q-47 -50 -84.5 -118t-37.5 -112q0 -49 51 -49z" />
    <glyph glyph-name="divide" unicode="&#xf7;" horiz-adv-x="956" 
d="M754 874q39 0 60.5 -19.5t21.5 -51.5q0 -55 -41 -95t-99 -40q-28 0 -47.5 19.5t-19.5 43.5q0 55 39.5 99t85.5 44zM809 399q-34 15 -135 15q-103 0 -267 -9t-194 -22q-9 -6 -14 -6q-21 0 -21 22q0 27 28 66t73 51q57 16 214 27.5t261 11.5q85 0 123 -11.5t38 -37.5
q0 -29 -30 -71t-60 -42q-13 0 -16 6zM463 309q39 0 60.5 -19.5t21.5 -51.5q0 -55 -40.5 -95.5t-98.5 -40.5q-28 0 -48 20t-20 44q0 55 39.5 99t85.5 44z" />
    <glyph glyph-name="oslash" unicode="&#xf8;" horiz-adv-x="804" 
d="M1051 465q12 0 23 -18.5t11 -38.5q0 -9 -4 -17q-115 -106 -228 -165.5t-196 -59.5q-28 0 -49 6q-191 -172 -332 -172q-50 0 -98 20q-92 -116 -92 -143q4 -8 4 -12q0 -10 -12 -10q-25 0 -47.5 32t-22.5 54q0 29 88 145q-43 52 -43 111q0 68 65 160t136 135q-6 21 -6 49
q0 71 59 148.5t151.5 129t180.5 51.5q89 0 154 -69q152 139 174 139t37.5 -15t15.5 -30q0 -11 -14 -14q-52 -32 -168 -140q41 -72 41 -120q0 -136 -160 -332q152 29 323 174q4 2 9 2zM186 193v-3q229 259 543 551q-24 9 -47 9q-59 0 -141 -40.5t-143 -99t-64 -104.5
q34 -11 46 -33q7 -14 -7 -18q-65 -29 -126 -116.5t-61 -145.5zM639 391q57 66 99 146.5t42 130.5q0 12 -2 18q-269 -263 -522 -567h6q44 0 116 41t132 100q2 34 34 72t95 59z" />
    <glyph glyph-name="ugrave" unicode="&#xf9;" horiz-adv-x="892" 
d="M944 856q-60 0 -141.5 90.5t-81.5 151.5q0 36 38 56t75 20q34 0 34 -19q0 -8 -4 -12q-7 -42 34 -128.5t81 -117.5q12 -6 12 -14q0 -9 -14.5 -18t-32.5 -9zM1139 465q12 0 23.5 -18.5t11.5 -38.5q0 -7 -5 -17q-162 -149 -299.5 -252.5t-179.5 -103.5q-32 0 -72 44t-40 85
q0 57 100 231q-138 -152 -284.5 -277.5t-209.5 -125.5q-42 0 -84.5 52.5t-42.5 102.5q0 70 93.5 238.5t203 308.5t150.5 140q32 0 77.5 -28.5t45.5 -47.5q0 -9 -11 -13q-37 -14 -131.5 -134t-175 -254t-80.5 -181q0 -20 17 -20q35 0 140.5 88.5t217 200t198 203t99.5 108.5
q6 6 17 6q30 0 70 -32t40 -52q0 -4 -4 -8q-43 -45 -169 -253t-85 -208q29 0 132 73.5t228 180.5q4 2 9 2z" />
    <glyph glyph-name="uacute" unicode="&#xfa;" horiz-adv-x="892" 
d="M762 940q-33 0 -56.5 17t-23.5 36q0 15 20 15q54 10 155 76.5t114 107.5q6 12 18 12q22 0 45 -27t23 -63q0 -40 -51.5 -81.5t-121 -67t-122.5 -25.5zM1139 465q12 0 23.5 -18.5t11.5 -38.5q0 -7 -5 -17q-162 -149 -299.5 -252.5t-179.5 -103.5q-32 0 -72 44t-40 85
q0 57 100 231q-138 -152 -284.5 -277.5t-209.5 -125.5q-42 0 -84.5 52.5t-42.5 102.5q0 70 93.5 238.5t203 308.5t150.5 140q32 0 77.5 -28.5t45.5 -47.5q0 -9 -11 -13q-37 -14 -131.5 -134t-175 -254t-80.5 -181q0 -20 17 -20q35 0 140.5 88.5t217 200t198 203t99.5 108.5
q6 6 17 6q30 0 70 -32t40 -52q0 -4 -4 -8q-43 -45 -169 -253t-85 -208q29 0 132 73.5t228 180.5q4 2 9 2z" />
    <glyph glyph-name="ucircumflex" unicode="&#xfb;" horiz-adv-x="892" 
d="M662 950q-11 0 -22 15t-11 28q0 23 57 68.5t135.5 83t130.5 37.5q44 0 79.5 -40.5t35.5 -80.5q0 -43 -38 -100.5t-83 -57.5q-26 0 -43.5 12t-17.5 27q0 11 10 16q43 64 43 84q0 29 -33 29q-35 0 -104 -35t-127 -80q-3 -6 -12 -6zM1139 465q12 0 23.5 -18.5t11.5 -38.5
q0 -7 -5 -17q-162 -149 -299.5 -252.5t-179.5 -103.5q-32 0 -72 44t-40 85q0 57 100 231q-138 -152 -284.5 -277.5t-209.5 -125.5q-42 0 -84.5 52.5t-42.5 102.5q0 70 93.5 238.5t203 308.5t150.5 140q32 0 77.5 -28.5t45.5 -47.5q0 -9 -11 -13q-37 -14 -131.5 -134
t-175 -254t-80.5 -181q0 -20 17 -20q35 0 140.5 88.5t217 200t198 203t99.5 108.5q6 6 17 6q30 0 70 -32t40 -52q0 -4 -4 -8q-43 -45 -169 -253t-85 -208q29 0 132 73.5t228 180.5q4 2 9 2z" />
    <glyph glyph-name="udieresis" unicode="&#xfc;" horiz-adv-x="892" 
d="M725 997q-18 0 -28.5 12.5t-10.5 28.5q0 43 46.5 101.5t80.5 58.5q64 0 64 -45t-55 -100.5t-97 -55.5zM954 961q-36 0 -36 36q0 45 41.5 104.5t74.5 59.5q64 0 64 -45q0 -44 -51.5 -99.5t-92.5 -55.5zM1139 465q12 0 23.5 -18.5t11.5 -38.5q0 -7 -5 -17
q-162 -149 -299.5 -252.5t-179.5 -103.5q-32 0 -72 44t-40 85q0 57 100 231q-138 -152 -284.5 -277.5t-209.5 -125.5q-42 0 -84.5 52.5t-42.5 102.5q0 70 93.5 238.5t203 308.5t150.5 140q32 0 77.5 -28.5t45.5 -47.5q0 -9 -11 -13q-37 -14 -131.5 -134t-175 -254
t-80.5 -181q0 -20 17 -20q35 0 140.5 88.5t217 200t198 203t99.5 108.5q6 6 17 6q30 0 70 -32t40 -52q0 -4 -4 -8q-43 -45 -169 -253t-85 -208q29 0 132 73.5t228 180.5q4 2 9 2z" />
    <glyph glyph-name="yacute" unicode="&#xfd;" horiz-adv-x="919" 
d="M776 956q-33 0 -56.5 17.5t-23.5 36.5q0 14 21 14q54 10 154.5 76.5t113.5 107.5q7 13 19 13q22 0 44.5 -27.5t22.5 -63.5q0 -40 -51.5 -81.5t-121 -67t-122.5 -25.5zM61 -502q-73 0 -119 52t-46 106q0 27 13.5 51.5t44 48.5t64.5 45.5t89.5 48.5t104 49t123 56.5
t132.5 62.5q184 244 328 512q-61 -80 -176.5 -199.5t-242 -221t-181.5 -101.5q-42 0 -84.5 53t-42.5 103q0 70 90.5 234t197.5 300t148 136q32 0 77.5 -29t45.5 -49q0 -7 -11 -11q-36 -13 -127.5 -128.5t-170 -246t-78.5 -177.5q0 -21 16 -21q35 0 139 86t213.5 194.5
t194.5 197.5t98 106q9 6 21 6q30 0 68 -30t38 -52q0 -6 -4 -10q-115 -240 -291 -510q233 134 424 303q4 2 8 2q12 0 23.5 -18.5t11.5 -38.5q0 -9 -4 -17q-172 -165 -561 -377q-370 -516 -574 -516zM4 -377q77 0 190.5 85t196.5 192q-411 -199 -411 -258q0 -19 24 -19z" />
    <glyph glyph-name="thorn" unicode="&#xfe;" horiz-adv-x="911" 
d="M1157 465q12 0 23.5 -18.5t11.5 -38.5q0 -9 -4 -17q-169 -155 -380.5 -264t-348.5 -109q-63 0 -101.5 41t-38.5 78q0 21 15 21q8 0 24 -13q75 0 168.5 63.5t168 149.5t126 177t51.5 145q0 37 -30 37q-48 0 -158.5 -82.5t-213.5 -181t-187 -189.5q-173 -243 -267 -402
t-86 -231q4 -12 4 -16q0 -16 -16 -16q-32 0 -70.5 45.5t-37.5 107.5q1 58 152 321.5t340 552t369 520.5t230 232q51 0 93 -27.5t42 -52.5q0 -12 -18 -18q-49 -20 -173 -171.5t-238 -311.5t-214 -312q135 143 280.5 250t219.5 107q54 0 92.5 -50.5t38.5 -111.5
q0 -86 -81.5 -230.5t-184.5 -238.5q103 45 209 114.5t182 137.5q4 2 8 2z" />
    <glyph glyph-name="ydieresis" unicode="&#xff;" horiz-adv-x="919" 
d="M766 1174q63 0 63 -46q0 -45 -54.5 -100t-96.5 -55q-18 0 -28.5 12.5t-10.5 28.5q0 43 46.5 101.5t80.5 58.5zM987 1137q64 0 64 -45q0 -44 -51.5 -100t-92.5 -56q-37 0 -37 37q0 45 42 104.5t75 59.5zM61 -502q-73 0 -119 52t-46 106q0 27 13.5 51.5t44 48.5t64.5 45.5
t89.5 48.5t104 49t123 56.5t132.5 62.5q184 244 328 512q-61 -80 -176.5 -199.5t-242 -221t-181.5 -101.5q-42 0 -84.5 53t-42.5 103q0 70 90.5 234t197.5 300t148 136q32 0 77.5 -29t45.5 -49q0 -7 -11 -11q-36 -13 -127.5 -128.5t-170 -246t-78.5 -177.5q0 -21 16 -21
q35 0 139 86t213.5 194.5t194.5 197.5t98 106q9 6 21 6q30 0 68 -30t38 -52q0 -6 -4 -10q-115 -240 -291 -510q233 134 424 303q4 2 8 2q12 0 23.5 -18.5t11.5 -38.5q0 -9 -4 -17q-172 -165 -561 -377q-370 -516 -574 -516zM4 -377q77 0 190.5 85t196.5 192
q-411 -199 -411 -258q0 -19 24 -19z" />
    <glyph glyph-name="Amacron" unicode="&#x100;" horiz-adv-x="1937" 
d="M2601 1767q35 0 35 -32q0 -14 -22.5 -35.5t-61.5 -44t-104 -38t-138 -15.5q-42 0 -74.5 5.5t-49.5 13t-27.5 17.5t-13.5 16.5t-3 12.5q0 31 39.5 63.5t71.5 32.5q23 0 28 -22q10 -8 50 -15.5t86 -7.5q80 0 133 27q28 22 51 22zM2222 1491q47 0 100.5 -65t53.5 -111
q0 -26 -21 -29q-210 -243 -434 -663q104 -8 182 -72.5t78 -108.5q0 -18 -18 -18q-10 0 -23 8q2 4 2 10q0 44 -284 54q-185 -372 -185 -525q0 -29 20.5 -47.5t20.5 -32.5q0 -20 -26 -20q-51 0 -115 54t-64 132q0 130 158 443h-4q-245 0 -514 -19q-164 -142 -288.5 -243
t-255 -195t-233 -142t-173.5 -48q-77 0 -128 50t-51 93q0 27 19 27q11 0 24 -13q23 -20 66 -20q186 0 786 469q-367 -43 -403 -101q-20 -41 -43 -41q-12 0 -20.5 11t-8.5 26q0 58 80 95q212 97 559 141q140 112 394 322.5t429.5 351t292.5 219.5q11 8 27 8zM1298 610
q156 11 435 15q108 197 232.5 391.5t205.5 296.5l-6 8q-36 -24 -77.5 -54t-77 -56.5t-85.5 -67t-82 -66t-90.5 -75t-86.5 -73t-94 -80.5t-88.5 -76.5t-95 -83t-90.5 -79.5z" />
    <glyph glyph-name="amacron" unicode="&#x101;" horiz-adv-x="931" 
d="M825 977q-42 0 -74.5 5.5t-49.5 13t-27.5 17.5t-13.5 16.5t-3 12.5q0 31 39.5 64t71.5 33q23 0 29 -23q10 -8 49 -15t86 -7q82 0 133 26q30 23 51 23q35 0 35 -33q0 -14 -22.5 -35.5t-61.5 -44t-104 -38t-138 -15.5zM1178 465q12 0 23 -18.5t11 -38.5q0 -9 -4 -17
q-162 -149 -299.5 -252.5t-179.5 -103.5q-32 0 -72.5 44t-40.5 83q0 57 54 180q-113 -120 -256.5 -235t-204.5 -115q-45 0 -92 55.5t-47 112.5t44.5 148.5t118 188.5t158.5 184t176.5 142.5t161.5 55.5q68 0 136.5 -43.5t68.5 -92.5q0 -34 -25.5 -73t-54.5 -39q-14 0 -27 10
q6 4 14.5 27t8.5 45q0 49 -53 49q-56 0 -132.5 -48.5t-149 -122.5t-136 -154t-102.5 -150t-39 -105q0 -26 24 -26q43 0 169 94.5t221 179t132 121.5q16 16 35 16q34 0 69.5 -36t35.5 -58q0 -4 -4 -8q-26 -28 -79 -118t-53 -126q0 -18 15 -18q31 0 134 74.5t232 185.5
q4 2 9 2z" />
    <glyph glyph-name="Abreve" unicode="&#x102;" horiz-adv-x="1937" 
d="M2611 1843q11 0 20 -17t9 -32q0 -36 -60 -85.5t-142 -85.5t-140 -36q-44 0 -85.5 37t-41.5 88q0 52 47 91.5t70 39.5q10 0 23 -10t13 -21q0 -13 -14 -24q-29 -26 -29 -47q0 -13 15 -22t37 -9q73 0 155 47.5t107 75.5q7 10 16 10zM2222 1491q47 0 100.5 -65t53.5 -111
q0 -26 -21 -29q-210 -243 -434 -663q104 -8 182 -72.5t78 -108.5q0 -18 -18 -18q-10 0 -23 8q2 4 2 10q0 44 -284 54q-185 -372 -185 -525q0 -29 20.5 -47.5t20.5 -32.5q0 -20 -26 -20q-51 0 -115 54t-64 132q0 130 158 443h-4q-245 0 -514 -19q-164 -142 -288.5 -243
t-255 -195t-233 -142t-173.5 -48q-77 0 -128 50t-51 93q0 27 19 27q11 0 24 -13q23 -20 66 -20q186 0 786 469q-367 -43 -403 -101q-20 -41 -43 -41q-12 0 -20.5 11t-8.5 26q0 58 80 95q212 97 559 141q140 112 394 322.5t429.5 351t292.5 219.5q11 8 27 8zM1298 610
q156 11 435 15q108 197 232.5 391.5t205.5 296.5l-6 8q-36 -24 -77.5 -54t-77 -56.5t-85.5 -67t-82 -66t-90.5 -75t-86.5 -73t-94 -80.5t-88.5 -76.5t-95 -83t-90.5 -79.5z" />
    <glyph glyph-name="abreve" unicode="&#x103;" horiz-adv-x="931" 
d="M813 963q-45 0 -86 36.5t-41 87.5q0 52 47 92t70 40q10 0 23.5 -10t13.5 -21q0 -13 -15 -25q-28 -25 -28 -47q0 -13 14.5 -22t36.5 -9q73 0 155 47.5t107 75.5q8 11 16 11q11 0 20 -17.5t9 -32.5q0 -36 -60 -85.5t-142 -85t-140 -35.5zM1178 465q12 0 23 -18.5t11 -38.5
q0 -9 -4 -17q-162 -149 -299.5 -252.5t-179.5 -103.5q-32 0 -72.5 44t-40.5 83q0 57 54 180q-113 -120 -256.5 -235t-204.5 -115q-45 0 -92 55.5t-47 112.5t44.5 148.5t118 188.5t158.5 184t176.5 142.5t161.5 55.5q68 0 136.5 -43.5t68.5 -92.5q0 -34 -25.5 -73t-54.5 -39
q-14 0 -27 10q6 4 14.5 27t8.5 45q0 49 -53 49q-56 0 -132.5 -48.5t-149 -122.5t-136 -154t-102.5 -150t-39 -105q0 -26 24 -26q43 0 169 94.5t221 179t132 121.5q16 16 35 16q34 0 69.5 -36t35.5 -58q0 -4 -4 -8q-26 -28 -79 -118t-53 -126q0 -18 15 -18q31 0 134 74.5
t232 185.5q4 2 9 2z" />
    <glyph glyph-name="Aogonek" unicode="&#x104;" horiz-adv-x="1937" 
d="M2222 1491q47 0 100.5 -65t53.5 -111q0 -26 -21 -29q-210 -243 -434 -663q104 -8 182 -72.5t78 -108.5q0 -18 -18 -18q-10 0 -23 8q2 4 2 10q0 44 -284 54q-185 -372 -185 -525q0 -29 20.5 -47.5t20.5 -32.5q0 -20 -26 -20q-29 0 -78 27q-86 -58 -149.5 -118.5
t-63.5 -101.5q0 -18 24 -18q27 0 71 20t73 44q7 12 16 12q12 0 22.5 -16.5t10.5 -32.5q0 -35 -90.5 -85.5t-145.5 -50.5q-45 0 -83 35.5t-38 79.5q0 33 23.5 68.5t70 74t90 69t109.5 71.5q-41 48 -41 108q0 130 158 443h-4q-245 0 -514 -19q-164 -142 -288.5 -243t-255 -195
t-233 -142t-173.5 -48q-77 0 -128 50t-51 93q0 27 19 27q11 0 24 -13q23 -20 66 -20q186 0 786 469q-367 -43 -403 -101q-20 -41 -43 -41q-12 0 -20.5 11t-8.5 26q0 58 80 95q212 97 559 141q140 112 394 322.5t429.5 351t292.5 219.5q11 8 27 8zM1298 610q156 11 435 15
q108 197 232.5 391.5t205.5 296.5l-6 8q-36 -24 -77.5 -54t-77 -56.5t-85.5 -67t-82 -66t-90.5 -75t-86.5 -73t-94 -80.5t-88.5 -76.5t-95 -83t-90.5 -79.5z" />
    <glyph glyph-name="aogonek" unicode="&#x105;" horiz-adv-x="931" 
d="M754 41q-213 -146 -213 -219q0 -19 24 -19q27 0 71 20t73 44q7 12 16 12q12 0 22.5 -16.5t10.5 -32.5q0 -35 -90.5 -85t-145.5 -50q-45 0 -83 35.5t-38 79.5q0 58 69.5 121t193.5 141q-48 48 -48 90q0 57 54 180q-113 -120 -256.5 -235t-204.5 -115q-45 0 -92 55.5
t-47 112.5t44.5 148.5t118 188.5t158.5 184t176.5 142.5t161.5 55.5q68 0 136.5 -43.5t68.5 -92.5q0 -34 -25.5 -73t-54.5 -39q-14 0 -27 10q6 4 14.5 27t8.5 45q0 49 -53 49q-56 0 -132.5 -48.5t-149 -122.5t-136 -154t-102.5 -150t-39 -105q0 -26 24 -26q43 0 169 94.5
t221 179t132 121.5q16 16 35 16q34 0 69.5 -36t35.5 -58q0 -4 -4 -8q-26 -28 -79 -118t-53 -126q0 -18 15 -18q31 0 134 74.5t232 185.5q4 2 9 2q12 0 23 -18.5t11 -38.5q0 -9 -4 -17q-140 -129 -267.5 -228t-186.5 -122z" />
    <glyph glyph-name="Cacute" unicode="&#x106;" horiz-adv-x="1351" 
d="M1487 1632q-33 0 -56.5 17.5t-23.5 36.5q0 14 20 14q54 10 155 76.5t114 107.5q6 12 18 12q22 0 45 -27t23 -63q0 -40 -51.5 -81.5t-121 -67t-122.5 -25.5zM616 -158q-195 0 -328.5 125.5t-133.5 308.5q0 118 63.5 261.5t166.5 278.5t237.5 264t271.5 225t273 154.5
t239 58.5q131 0 224 -86t93 -205q0 -79 -49 -174.5t-124 -180t-157.5 -156t-156 -113.5t-113.5 -42q-52 0 -101.5 40t-49.5 67q0 14 18 14q40 0 142 67t209 161t189.5 206.5t82.5 190.5q0 40 -22.5 55.5t-78.5 15.5q-113 0 -250 -58t-268 -153t-256 -219.5t-218.5 -253.5
t-150.5 -259.5t-57 -233.5t61 -151t191 -48q132 0 285.5 45.5t291 118.5t250 148t199.5 149q4 2 8 2q12 0 23.5 -18.5t11.5 -38.5q0 -9 -4 -17q-96 -95 -219 -188.5t-259.5 -176t-278.5 -133.5t-255 -51z" />
    <glyph glyph-name="cacute" unicode="&#x107;" horiz-adv-x="684" 
d="M713 961q-33 0 -56.5 17t-23.5 36q0 14 20 14q54 10 155 76.5t114 107.5q6 13 18 13q22 0 45 -27t23 -63q0 -40 -51.5 -81.5t-121 -67t-122.5 -25.5zM289 -18q-81 0 -144 77t-63 144q0 78 57.5 191.5t138.5 213t175.5 171t162.5 71.5q69 0 139 -57t70 -115
q0 -47 -44.5 -94t-99.5 -73t-93 -26t-35 27q56 42 105 102.5t49 92.5q0 22 -29 22q-65 0 -173 -100.5t-191 -230t-83 -205.5q0 -68 74 -68q64 0 162.5 43t191 103t162.5 111.5t101 80.5q4 2 8 2q13 0 24 -19t11 -38q0 -9 -4 -17q-71 -65 -150.5 -129t-175.5 -130.5
t-188.5 -108t-157.5 -41.5z" />
    <glyph glyph-name="Cdotaccent" unicode="&#x10a;" horiz-adv-x="1351" 
d="M1628 1827q76 0 76 -58q0 -55 -54 -109t-104 -54q-22 0 -35.5 15.5t-13.5 35.5q0 53 44.5 111.5t86.5 58.5zM616 -158q-195 0 -328.5 125.5t-133.5 308.5q0 118 63.5 261.5t166.5 278.5t237.5 264t271.5 225t273 154.5t239 58.5q131 0 224 -86t93 -205q0 -79 -49 -174.5
t-124 -180t-157.5 -156t-156 -113.5t-113.5 -42q-52 0 -101.5 40t-49.5 67q0 14 18 14q40 0 142 67t209 161t189.5 206.5t82.5 190.5q0 40 -22.5 55.5t-78.5 15.5q-113 0 -250 -58t-268 -153t-256 -219.5t-218.5 -253.5t-150.5 -259.5t-57 -233.5t61 -151t191 -48
q132 0 285.5 45.5t291 118.5t250 148t199.5 149q4 2 8 2q12 0 23.5 -18.5t11.5 -38.5q0 -9 -4 -17q-96 -95 -219 -188.5t-259.5 -176t-278.5 -133.5t-255 -51z" />
    <glyph glyph-name="cdotaccent" unicode="&#x10b;" horiz-adv-x="684" 
d="M854 1155q76 0 76 -57q0 -55 -54 -109.5t-104 -54.5q-22 0 -35.5 15.5t-13.5 35.5q0 53 44.5 111.5t86.5 58.5zM289 -18q-81 0 -144 77t-63 144q0 78 57.5 191.5t138.5 213t175.5 171t162.5 71.5q69 0 139 -57t70 -115q0 -47 -44.5 -94t-99.5 -73t-93 -26t-35 27
q56 42 105 102.5t49 92.5q0 22 -29 22q-65 0 -173 -100.5t-191 -230t-83 -205.5q0 -68 74 -68q64 0 162.5 43t191 103t162.5 111.5t101 80.5q4 2 8 2q13 0 24 -19t11 -38q0 -9 -4 -17q-71 -65 -150.5 -129t-175.5 -130.5t-188.5 -108t-157.5 -41.5z" />
    <glyph glyph-name="Ccaron" unicode="&#x10c;" horiz-adv-x="1351" 
d="M1815 1804q0 -26 -52.5 -76.5t-124.5 -91.5t-118 -41q-55 0 -97.5 25t-42.5 61q0 34 20.5 76t44.5 69t36 27q19 0 36 -11t17 -21q0 -5 -4 -9q-14 -14 -33 -67t-18 -74q58 21 132 70.5t136 101.5q4 8 12 8q17 0 36.5 -16t19.5 -31zM616 -158q-195 0 -328.5 125.5
t-133.5 308.5q0 118 63.5 261.5t166.5 278.5t237.5 264t271.5 225t273 154.5t239 58.5q131 0 224 -86t93 -205q0 -79 -49 -174.5t-124 -180t-157.5 -156t-156 -113.5t-113.5 -42q-52 0 -101.5 40t-49.5 67q0 14 18 14q40 0 142 67t209 161t189.5 206.5t82.5 190.5
q0 40 -22.5 55.5t-78.5 15.5q-113 0 -250 -58t-268 -153t-256 -219.5t-218.5 -253.5t-150.5 -259.5t-57 -233.5t61 -151t191 -48q132 0 285.5 45.5t291 118.5t250 148t199.5 149q4 2 8 2q12 0 23.5 -18.5t11.5 -38.5q0 -9 -4 -17q-96 -95 -219 -188.5t-259.5 -176
t-278.5 -133.5t-255 -51z" />
    <glyph glyph-name="ccaron" unicode="&#x10d;" horiz-adv-x="684" 
d="M1040 1133q0 -26 -52.5 -76.5t-124.5 -91.5t-118 -41q-55 0 -97 25t-42 61q0 34 20.5 76t44.5 69t36 27q19 0 36 -11.5t17 -21.5q0 -4 -4 -8q-14 -14 -33 -67.5t-18 -74.5q58 21 132 70.5t136 101.5q5 9 12 9q17 0 36 -16t19 -31zM289 -18q-81 0 -144 77t-63 144
q0 78 57.5 191.5t138.5 213t175.5 171t162.5 71.5q69 0 139 -57t70 -115q0 -47 -44.5 -94t-99.5 -73t-93 -26t-35 27q56 42 105 102.5t49 92.5q0 22 -29 22q-65 0 -173 -100.5t-191 -230t-83 -205.5q0 -68 74 -68q64 0 162.5 43t191 103t162.5 111.5t101 80.5q4 2 8 2
q13 0 24 -19t11 -38q0 -9 -4 -17q-71 -65 -150.5 -129t-175.5 -130.5t-188.5 -108t-157.5 -41.5z" />
    <glyph glyph-name="Dcaron" unicode="&#x10e;" horiz-adv-x="1673" 
d="M1710 1780q0 -26 -52.5 -76.5t-124.5 -91.5t-118 -41q-55 0 -97 25t-42 61q0 51 40 111.5t60 60.5q19 0 36.5 -11.5t17.5 -21.5q0 -3 -5 -8q-14 -14 -33 -67t-18 -74q58 21 132 70.5t136 101.5q4 8 13 8q17 0 36 -16t19 -31zM199 979q30 -10 96 -10q52 0 127 10
q-7 -29 -76 -68t-135 -39q-41 0 -81.5 53.5t-39.5 110.5q0 64 64.5 132t174 126.5t244.5 105.5t287.5 74t290.5 27q176 0 315 -52t221.5 -137.5t122.5 -191t33 -217.5q-8 -125 -61 -256.5t-136.5 -248t-195 -220.5t-233 -179t-254 -119t-254.5 -44q-128 0 -201.5 56.5
t-73.5 115.5q0 23 14.5 39t36.5 16q15 0 15 -12q0 -1 -1 -7t-1 -11q0 -47 151 -47q126 0 274.5 65t284.5 175.5t249 245t181 286.5t68 286q0 76 -31.5 136t-80.5 95.5t-114.5 58.5t-126.5 31.5t-124 8.5q-199 0 -414.5 -55t-383 -147t-232.5 -193zM1208 1128
q-63 -1 -222.5 -161.5t-320.5 -369t-283.5 -422.5t-117.5 -308q0 -27 -22 -27q-27 0 -52.5 37t-25.5 100q0 16 4 48q13 86 75 213t149.5 258t192.5 264t203 235.5t183 167t131 64.5q47 0 87 -31t40 -55q0 -13 -21 -13z" />
    <glyph glyph-name="dcaron" unicode="&#x10f;" horiz-adv-x="903" 
d="M1786 1417q28 0 60 -22.5t32 -40.5q0 -12 -16 -15q-118 -78 -222 -211q-6 -18 -18 -18q-17 0 -33 17.5t-16 37.5q0 41 86.5 146.5t126.5 105.5zM1393 1378q48 0 97.5 -31t49.5 -53q0 -11 -14 -14q-77 -30 -264 -266t-341.5 -482.5t-154.5 -308.5q0 -16 12 -16
q44 0 163.5 76t240.5 180q4 2 8 2q12 0 23.5 -18.5t11.5 -38.5q0 -9 -4 -17q-157 -144 -311 -250t-210 -106q-32 0 -72 44t-40 83q0 55 43 155q-104 -117 -230 -221t-186 -104q-41 0 -91.5 52t-53.5 97q-4 56 34 144t104 180t143.5 174.5t162.5 135t152 52.5q50 0 106 -37.5
t78 -82.5q162 249 332.5 460t210.5 211zM262 158q41 0 145.5 79t192 160t145.5 142q14 22 31 53q6 15 6 43q0 76 -65 76q-78 0 -195.5 -108t-201.5 -234t-84 -183q0 -28 26 -28z" />
    <glyph glyph-name="Dcroat" unicode="&#x110;" horiz-adv-x="1673" 
d="M1151 1501q176 0 315 -52t221.5 -137.5t122.5 -191t33 -217.5q-8 -125 -61 -256.5t-136.5 -248t-195 -220.5t-233 -179t-254 -119t-254.5 -44q-128 0 -201.5 56.5t-73.5 115.5q0 23 14.5 39t36.5 16q15 0 15 -12q0 -1 -1 -7t-1 -11q0 -47 151 -47q126 0 274.5 65
t284.5 175.5t249 245t181 286.5t68 286q0 76 -31.5 136t-80.5 95.5t-114.5 58.5t-126.5 31.5t-124 8.5q-199 0 -414.5 -55t-383 -147t-232.5 -193q30 -10 96 -10q52 0 127 10q-7 -29 -76 -68t-135 -39q-41 0 -81.5 53.5t-39.5 110.5q0 64 64.5 132t174 126.5t244.5 105.5
t287.5 74t290.5 27zM657 586q-171 -224 -284 -425t-109 -294q0 -27 -22 -27q-27 0 -52.5 37t-25.5 100q0 77 51.5 197t103.5 205.5t113 173.5q-186 -34 -229 -68q-8 -4 -15 -4q-14 0 -14 21q0 30 27 71.5t53 57.5q52 34 276 59q169 223 333.5 380t238.5 157q47 0 87 -31
t40 -55q0 -13 -15 -13q-27 0 -66.5 -22.5t-89.5 -69t-86.5 -82t-92 -99t-69.5 -80t-52 -62.5q88 6 133 6q52 0 95 -10t67.5 -25.5t37.5 -30.5t13 -28q0 -17 -21 -17q-7 0 -18.5 5t-17.5 5q-128 0 -390 -32z" />
    <glyph glyph-name="dcroat" unicode="&#x111;" horiz-adv-x="903" 
d="M1393 1378q48 0 97.5 -31t49.5 -53q0 -11 -14 -14q-46 -17 -146 -125q66 -18 66 -65q0 -14 -7.5 -21.5t-17.5 -7.5q-14 0 -20 12q-4 2 -27 2h-63q-180 -218 -362.5 -501.5t-182.5 -350.5q0 -16 12 -16q44 0 163.5 76t240.5 180q4 2 8 2q12 0 23.5 -18.5t11.5 -38.5
q0 -9 -4 -17q-157 -144 -311 -250t-210 -106q-32 0 -72 44t-40 83q0 55 43 155q-104 -117 -230 -221t-186 -104q-41 0 -91.5 52t-53.5 97q-4 56 34 144t104 180t143.5 174.5t162.5 135t152 52.5q50 0 106 -37.5t78 -82.5q104 160 250 354q-229 -25 -283 -66q-8 -4 -12 -4
q-12 0 -12 21q0 27 25 67t50 49q88 32 314 39q172 211 211 211zM262 158q41 0 145.5 79t192 160t145.5 142q14 22 31 53q6 15 6 43q0 76 -65 76q-78 0 -195.5 -108t-201.5 -234t-84 -183q0 -28 26 -28z" />
    <glyph glyph-name="Emacron" unicode="&#x112;" horiz-adv-x="1236" 
d="M1364 1618q-42 0 -74.5 5.5t-49.5 13t-27.5 17.5t-13.5 16.5t-3 12.5q0 31 39.5 64t71.5 33q22 0 28 -23q10 -8 49 -15t86 -7q83 0 134 26q30 23 51 23q35 0 35 -33q0 -14 -22.5 -35.5t-61.5 -44t-104 -38t-138 -15.5zM397 -150q-128 0 -241 103.5t-113 222.5
q0 69 46.5 138t125 128.5t188 116.5t229.5 103.5t255 87.5q-8 -2 -31 -2q-44 0 -109.5 9.5t-95.5 20.5q-56 22 -94.5 75t-38.5 108q0 66 67 142.5t177 143.5t240 123t267 88.5t247 32.5q50 0 89 -25.5t58.5 -62.5t29 -71t9.5 -60q0 -52 -94.5 -109t-149.5 -57q-15 0 -27 10
t-10 21q166 131 166 176q0 20 -39 20q-122 0 -284.5 -48t-296.5 -113t-228 -134t-94 -110q0 -48 113 -73.5t268 -25.5q118 0 225 17q14 -2 30.5 -29.5t16.5 -56.5q0 -61 -53 -66q-193 -38 -365 -96t-293.5 -121t-211 -129.5t-133 -126t-43.5 -106.5q0 -48 46 -77.5
t136 -29.5q168 0 381 68.5t399.5 171.5t313.5 215q4 2 8 2q12 0 23.5 -18.5t11.5 -38.5q0 -7 -5 -17q-164 -149 -329.5 -258.5t-307.5 -168.5t-260 -86.5t-219 -27.5z" />
    <glyph glyph-name="emacron" unicode="&#x113;" horiz-adv-x="681" 
d="M995 1126q35 0 35 -32q0 -14 -22 -35.5t-61 -44t-104 -38t-138 -15.5q-42 0 -74.5 5.5t-49.5 13t-27.5 17.5t-13.5 16.5t-3 12.5q0 31 39 63.5t71 32.5q23 0 29 -22q10 -8 49.5 -15.5t85.5 -7.5q80 0 133 27q28 22 51 22zM928 465q13 0 24 -19t11 -38q0 -7 -5 -17
q-67 -60 -143 -120.5t-170 -125t-185 -105t-155 -40.5q-91 0 -157 72t-66 153q0 70 56.5 177t137.5 205t179.5 168.5t173.5 70.5q69 0 129.5 -56t60.5 -110q0 -57 -66 -128t-172.5 -123t-207.5 -52q-37 0 -70 10q-67 -108 -67 -172q0 -72 81 -72q63 0 162 42t189.5 99.5
t159 106.5t92.5 72q4 2 8 2zM678 725q-56 0 -150 -78t-172 -184h9q56 0 139 43t144 100.5t61 95.5q0 23 -31 23z" />
    <glyph glyph-name="Edotaccent" unicode="&#x116;" horiz-adv-x="1236" 
d="M1501 1819q76 0 76 -58q0 -55 -54 -109.5t-104 -54.5q-22 0 -35.5 16t-13.5 36q0 53 44.5 111.5t86.5 58.5zM397 -150q-128 0 -241 103.5t-113 222.5q0 69 46.5 138t125 128.5t188 116.5t229.5 103.5t255 87.5q-8 -2 -31 -2q-44 0 -109.5 9.5t-95.5 20.5q-56 22 -94.5 75
t-38.5 108q0 66 67 142.5t177 143.5t240 123t267 88.5t247 32.5q50 0 89 -25.5t58.5 -62.5t29 -71t9.5 -60q0 -52 -94.5 -109t-149.5 -57q-15 0 -27 10t-10 21q166 131 166 176q0 20 -39 20q-122 0 -284.5 -48t-296.5 -113t-228 -134t-94 -110q0 -48 113 -73.5t268 -25.5
q118 0 225 17q14 -2 30.5 -29.5t16.5 -56.5q0 -61 -53 -66q-193 -38 -365 -96t-293.5 -121t-211 -129.5t-133 -126t-43.5 -106.5q0 -48 46 -77.5t136 -29.5q168 0 381 68.5t399.5 171.5t313.5 215q4 2 8 2q12 0 23.5 -18.5t11.5 -38.5q0 -7 -5 -17q-164 -149 -329.5 -258.5
t-307.5 -168.5t-260 -86.5t-219 -27.5z" />
    <glyph glyph-name="edotaccent" unicode="&#x117;" horiz-adv-x="681" 
d="M760 940q-22 0 -35.5 15.5t-13.5 35.5q0 53 44.5 111.5t86.5 58.5q76 0 76 -57q0 -55 -54 -109.5t-104 -54.5zM928 465q13 0 24 -19t11 -38q0 -7 -5 -17q-67 -60 -143 -120.5t-170 -125t-185 -105t-155 -40.5q-91 0 -157 72t-66 153q0 70 56.5 177t137.5 205t179.5 168.5
t173.5 70.5q69 0 129.5 -56t60.5 -110q0 -57 -66 -128t-172.5 -123t-207.5 -52q-37 0 -70 10q-67 -108 -67 -172q0 -72 81 -72q63 0 162 42t189.5 99.5t159 106.5t92.5 72q4 2 8 2zM678 725q-56 0 -150 -78t-172 -184h9q56 0 139 43t144 100.5t61 95.5q0 23 -31 23z" />
    <glyph glyph-name="Eogonek" unicode="&#x118;" horiz-adv-x="1236" 
d="M1421 1137q166 131 166 176q0 20 -39 20q-122 0 -284.5 -48t-296.5 -113t-228 -134t-94 -110q0 -48 113 -73.5t268 -25.5q118 0 225 17q14 -2 30.5 -29.5t16.5 -56.5q0 -61 -53 -66q-193 -38 -365 -96t-293.5 -121t-211 -129.5t-133 -126t-43.5 -106.5q0 -48 46 -77.5
t136 -29.5q168 0 381 68.5t399.5 171.5t313.5 215q4 2 8 2q12 0 23.5 -18.5t11.5 -38.5q0 -7 -5 -17q-438 -396 -862 -506q-59 -36 -114 -76t-104.5 -92t-49.5 -86q0 -18 25 -18q27 0 71 19.5t72 43.5q8 13 16 13q12 0 22.5 -16.5t10.5 -32.5q0 -23 -44 -56t-100.5 -56.5
t-90.5 -23.5q-45 0 -83 35.5t-38 79.5q0 54 58 111t161 123q-35 -3 -66 -3q-128 0 -241 103.5t-113 222.5q0 69 46.5 138t125 128.5t188 116.5t229.5 103.5t255 87.5q-8 -2 -31 -2q-44 0 -109.5 9.5t-95.5 20.5q-56 22 -94.5 75t-38.5 108q0 66 67 142.5t177 143.5t240 123
t267 88.5t247 32.5q50 0 89 -25.5t58.5 -62.5t29 -71t9.5 -60q0 -52 -94.5 -109t-149.5 -57q-15 0 -27 10t-10 21z" />
    <glyph glyph-name="eogonek" unicode="&#x119;" horiz-adv-x="681" 
d="M469 45q-59 -38 -110 -76t-95.5 -87t-44.5 -81q0 -18 25 -18q27 0 71 19.5t72 43.5q8 13 16 13q12 0 22.5 -16.5t10.5 -32.5q0 -23 -44 -56t-100.5 -56.5t-90.5 -23.5q-45 0 -83 35.5t-38 79.5q0 49 49.5 101t138.5 114q-79 14 -132.5 81.5t-53.5 139.5q0 70 56.5 177
t137.5 205t179.5 168.5t173.5 70.5q69 0 129.5 -56t60.5 -110q0 -57 -66 -128t-172.5 -123t-207.5 -52q-37 0 -70 10q-67 -108 -67 -172q0 -72 81 -72q63 0 162 42t189.5 99.5t159 106.5t92.5 72q4 2 8 2q13 0 24 -19t11 -38q0 -7 -5 -17q-107 -97 -239.5 -194.5
t-249.5 -151.5zM678 725q-56 0 -150 -78t-172 -184h9q56 0 139 43t144 100.5t61 95.5q0 23 -31 23z" />
    <glyph glyph-name="Ecaron" unicode="&#x11a;" horiz-adv-x="1236" 
d="M1688 1796q0 -26 -52.5 -76.5t-124.5 -91.5t-118 -41q-55 0 -97.5 25t-42.5 61q0 34 20.5 76t44.5 69t36 27q19 0 36 -11.5t17 -21.5q0 -4 -4 -8q-14 -14 -33 -67t-18 -74q58 21 132 70.5t136 101.5q4 8 12 8q17 0 36.5 -16t19.5 -31zM397 -150q-128 0 -241 103.5
t-113 222.5q0 69 46.5 138t125 128.5t188 116.5t229.5 103.5t255 87.5q-8 -2 -31 -2q-44 0 -109.5 9.5t-95.5 20.5q-56 22 -94.5 75t-38.5 108q0 66 67 142.5t177 143.5t240 123t267 88.5t247 32.5q50 0 89 -25.5t58.5 -62.5t29 -71t9.5 -60q0 -52 -94.5 -109t-149.5 -57
q-15 0 -27 10t-10 21q166 131 166 176q0 20 -39 20q-122 0 -284.5 -48t-296.5 -113t-228 -134t-94 -110q0 -48 113 -73.5t268 -25.5q118 0 225 17q14 -2 30.5 -29.5t16.5 -56.5q0 -61 -53 -66q-193 -38 -365 -96t-293.5 -121t-211 -129.5t-133 -126t-43.5 -106.5
q0 -48 46 -77.5t136 -29.5q168 0 381 68.5t399.5 171.5t313.5 215q4 2 8 2q12 0 23.5 -18.5t11.5 -38.5q0 -7 -5 -17q-164 -149 -329.5 -258.5t-307.5 -168.5t-260 -86.5t-219 -27.5z" />
    <glyph glyph-name="ecaron" unicode="&#x11b;" horiz-adv-x="681" 
d="M973 1186q17 0 36 -16t19 -31q0 -26 -52.5 -76.5t-124.5 -91.5t-118 -41q-55 0 -97 25t-42 61q0 51 40 111.5t60 60.5q19 0 36.5 -11.5t17.5 -21.5q0 -3 -5 -8q-14 -14 -33 -67t-18 -74q58 22 133 71t136 101q4 8 12 8zM928 465q13 0 24 -19t11 -38q0 -7 -5 -17
q-67 -60 -143 -120.5t-170 -125t-185 -105t-155 -40.5q-91 0 -157 72t-66 153q0 70 56.5 177t137.5 205t179.5 168.5t173.5 70.5q69 0 129.5 -56t60.5 -110q0 -57 -66 -128t-172.5 -123t-207.5 -52q-37 0 -70 10q-67 -108 -67 -172q0 -72 81 -72q63 0 162 42t189.5 99.5
t159 106.5t92.5 72q4 2 8 2zM678 725q-56 0 -150 -78t-172 -184h9q56 0 139 43t144 100.5t61 95.5q0 23 -31 23z" />
    <glyph glyph-name="Gbreve" unicode="&#x11e;" horiz-adv-x="1396" 
d="M1796 1892q11 0 20 -17t9 -32q0 -36 -60 -85.5t-142 -85.5t-140 -36q-44 0 -85.5 37t-41.5 88q0 52 47 91.5t70 39.5q10 0 23 -9.5t13 -20.5q0 -14 -14 -25q-29 -26 -29 -47q0 -13 15 -22t37 -9q73 0 155 47.5t107 75.5q7 10 16 10zM1075 879q60 0 155.5 44.5t184 108.5
t153 144t64.5 143q0 72 -108 72q-125 0 -278 -65.5t-297.5 -171.5t-282.5 -243t-241 -275t-165.5 -272.5t-62.5 -232.5q0 -69 33.5 -99t107.5 -30q81 0 184.5 35t197 85.5t196 119t173 122.5t136.5 109q-167 -29 -308 -68.5t-178 -70.5q-15 -21 -24 -21q-12 0 -19.5 20
t-7.5 48q0 69 33 102q57 57 313.5 97.5t407.5 40.5q117 0 182.5 -38.5t65.5 -76.5q0 -21 -23 -21q-30 21 -125 21q-79 0 -215 -17q22 -15 37.5 -35t15.5 -32q0 -7 -8 -10q-27 -11 -129 -148.5t-198.5 -309t-96.5 -249.5q0 -43 37 -49q6 2 10 2q15 0 15 -14t-12.5 -26.5
t-32.5 -12.5q-23 0 -43.5 22.5t-33 54t-19.5 63t-7 52.5q0 64 37.5 163.5t99.5 207.5q-162 -144 -322.5 -233t-289.5 -89q-85 0 -164 46t-129.5 130t-50.5 185q0 112 66 257t174 288.5t252.5 283t296 245.5t311.5 171.5t291 65.5q141 0 232 -83t91 -178q0 -71 -60 -160.5
t-145 -163t-183 -124.5t-169 -51q-59 0 -101 42.5t-42 71.5q0 11 8 11q2 0 10 -4z" />
    <glyph glyph-name="gbreve" unicode="&#x11f;" horiz-adv-x="888" 
d="M807 1081q73 0 155 47.5t107 75.5q7 10 16 10q11 0 20 -17t9 -32q0 -36 -60 -85.5t-142 -85.5t-140 -36q-44 0 -85.5 37t-41.5 88q0 52 47 91.5t70 39.5q10 0 23.5 -9.5t13.5 -20.5q0 -13 -15 -25q-28 -25 -28 -47q0 -13 14.5 -22t36.5 -9zM55 -502q-73 0 -119.5 52
t-46.5 106q0 27 13.5 52t44 50t65 47t90 49.5t104.5 50.5t124.5 59t134.5 65q108 159 199 327q-99 -109 -252 -229.5t-226 -120.5q-44 0 -90.5 47.5t-46.5 93.5q0 57 43 147t114 184.5t153 178.5t169.5 137.5t153.5 53.5q64 0 126 -42.5t62 -92.5q0 -34 -25 -73.5t-54 -39.5
q-14 0 -27 10q6 4 14 27t8 45q0 49 -53 49q-82 0 -207 -112.5t-215 -243.5t-90 -189q0 -28 27 -28q41 0 163 92t223 183t124 118q6 6 18 6q30 0 69.5 -30.5t39.5 -51.5q0 -6 -4 -10q-39 -103 -152 -293q225 137 397 291q4 2 9 2q12 0 23 -18.5t11 -38.5q0 -9 -4 -17
q-83 -84 -229.5 -181t-288.5 -169q-70 -106 -141.5 -198t-150 -172t-157 -126.5t-143.5 -46.5zM0 -377q78 0 192.5 88t194.5 197q-179 -87 -295.5 -160.5t-116.5 -105.5q0 -19 25 -19z" />
    <glyph glyph-name="Gdotaccent" unicode="&#x120;" horiz-adv-x="1396" 
d="M1550 1630q-22 0 -35.5 15.5t-13.5 35.5q0 53 44.5 111.5t86.5 58.5q76 0 76 -57q0 -55 -54 -109.5t-104 -54.5zM1442 621q117 0 182.5 -38.5t65.5 -76.5q0 -21 -23 -21q-30 21 -125 21q-79 0 -215 -17q22 -15 37.5 -35t15.5 -32q0 -7 -8 -10q-27 -11 -129 -148.5
t-198.5 -309t-96.5 -249.5q0 -43 37 -49q6 2 10 2q15 0 15 -14t-12.5 -26.5t-32.5 -12.5q-23 0 -43.5 22.5t-33 54t-19.5 63t-7 52.5q0 64 37.5 163.5t99.5 207.5q-162 -144 -322.5 -233t-289.5 -89q-85 0 -164 46t-129.5 130t-50.5 185q0 112 66 257t174 288.5t252.5 283
t296 245.5t311.5 171.5t291 65.5q141 0 232 -83t91 -178q0 -71 -60 -160.5t-145 -163t-183 -124.5t-169 -51q-59 0 -101 42.5t-42 71.5q0 11 8 11q2 0 10 -4q60 0 155.5 44.5t184 108.5t153 144t64.5 143q0 72 -108 72q-125 0 -278 -65.5t-297.5 -171.5t-282.5 -243
t-241 -275t-165.5 -272.5t-62.5 -232.5q0 -69 33.5 -99t107.5 -30q81 0 184.5 35t197 85.5t196 119t173 122.5t136.5 109q-167 -29 -308 -68.5t-178 -70.5q-15 -21 -24 -21q-12 0 -19.5 20t-7.5 48q0 69 33 102q57 57 313.5 97.5t407.5 40.5z" />
    <glyph glyph-name="gdotaccent" unicode="&#x121;" horiz-adv-x="888" 
d="M893 1178q76 0 76 -58q0 -55 -54 -109.5t-104 -54.5q-22 0 -35.5 16t-13.5 36q0 53 44.5 111.5t86.5 58.5zM55 -502q-73 0 -119.5 52t-46.5 106q0 27 13.5 52t44 50t65 47t90 49.5t104.5 50.5t124.5 59t134.5 65q108 159 199 327q-99 -109 -252 -229.5t-226 -120.5
q-44 0 -90.5 47.5t-46.5 93.5q0 57 43 147t114 184.5t153 178.5t169.5 137.5t153.5 53.5q64 0 126 -42.5t62 -92.5q0 -34 -25 -73.5t-54 -39.5q-14 0 -27 10q6 4 14 27t8 45q0 49 -53 49q-82 0 -207 -112.5t-215 -243.5t-90 -189q0 -28 27 -28q41 0 163 92t223 183t124 118
q6 6 18 6q30 0 69.5 -30.5t39.5 -51.5q0 -6 -4 -10q-39 -103 -152 -293q225 137 397 291q4 2 9 2q12 0 23 -18.5t11 -38.5q0 -9 -4 -17q-83 -84 -229.5 -181t-288.5 -169q-70 -106 -141.5 -198t-150 -172t-157 -126.5t-143.5 -46.5zM0 -377q78 0 192.5 88t194.5 197
q-179 -87 -295.5 -160.5t-116.5 -105.5q0 -19 25 -19z" />
    <glyph glyph-name="uni0122" unicode="&#x122;" horiz-adv-x="1396" 
d="M1442 621q117 0 182.5 -38.5t65.5 -76.5q0 -21 -23 -21q-30 21 -125 21q-79 0 -215 -17q22 -15 37.5 -35t15.5 -32q0 -7 -8 -10q-27 -11 -129 -148.5t-198.5 -309t-96.5 -249.5q0 -43 37 -49q6 2 10 2q15 0 15 -14t-12.5 -26.5t-32.5 -12.5q-23 0 -43.5 22.5t-33 54
t-19.5 63t-7 52.5q0 64 37.5 163.5t99.5 207.5q-162 -144 -322.5 -233t-289.5 -89q-85 0 -164 46t-129.5 130t-50.5 185q0 112 66 257t174 288.5t252.5 283t296 245.5t311.5 171.5t291 65.5q141 0 232 -83t91 -178q0 -71 -60 -160.5t-145 -163t-183 -124.5t-169 -51
q-59 0 -101 42.5t-42 71.5q0 11 8 11q2 0 10 -4q60 0 155.5 44.5t184 108.5t153 144t64.5 143q0 72 -108 72q-125 0 -278 -65.5t-297.5 -171.5t-282.5 -243t-241 -275t-165.5 -272.5t-62.5 -232.5q0 -69 33.5 -99t107.5 -30q81 0 184.5 35t197 85.5t196 119t173 122.5
t136.5 109q-167 -29 -308 -68.5t-178 -70.5q-15 -21 -24 -21q-12 0 -19.5 20t-7.5 48q0 69 33 102q57 57 313.5 97.5t407.5 40.5zM528 -285q41 0 80 -29t39 -51q0 -12 -16 -12q-42 -18 -111.5 -95.5t-91.5 -123.5q-3 -8 -12 -8q-17 0 -35.5 24.5t-18.5 61.5q0 47 61.5 140
t104.5 93z" />
    <glyph glyph-name="uni0123" unicode="&#x123;" horiz-adv-x="888" 
d="M995 1257q34 0 71.5 -31t37.5 -52q0 -11 -10 -11q-30 -3 -115 -90.5t-111 -138.5q-3 -6 -12 -6q-17 0 -36 25.5t-19 58.5q0 29 35.5 88t82.5 108t76 49zM55 -502q-73 0 -119.5 52t-46.5 106q0 27 13.5 52t44 50t65 47t90 49.5t104.5 50.5t124.5 59t134.5 65
q108 159 199 327q-99 -109 -252 -229.5t-226 -120.5q-44 0 -90.5 47.5t-46.5 93.5q0 57 43 147t114 184.5t153 178.5t169.5 137.5t153.5 53.5q64 0 126 -42.5t62 -92.5q0 -34 -25 -73.5t-54 -39.5q-14 0 -27 10q6 4 14 27t8 45q0 49 -53 49q-82 0 -207 -112.5t-215 -243.5
t-90 -189q0 -28 27 -28q41 0 163 92t223 183t124 118q6 6 18 6q30 0 69.5 -30.5t39.5 -51.5q0 -6 -4 -10q-39 -103 -152 -293q225 137 397 291q4 2 9 2q12 0 23 -18.5t11 -38.5q0 -9 -4 -17q-83 -84 -229.5 -181t-288.5 -169q-70 -106 -141.5 -198t-150 -172t-157 -126.5
t-143.5 -46.5zM0 -377q78 0 192.5 88t194.5 197q-179 -87 -295.5 -160.5t-116.5 -105.5q0 -19 25 -19z" />
    <glyph glyph-name="Hbar" unicode="&#x126;" horiz-adv-x="1603" 
d="M2114 1509q45 0 99 -31t54 -57q0 -6 -4.5 -10t-9.5 -4q-9 0 -17 2q-85 0 -340 -313q71 -12 111.5 -61t40.5 -93q0 -14 -6.5 -23.5t-16.5 -9.5q-13 0 -26 13q-1 1 -4 6t-5 7.5l-6 7.5t-9 8t-13 7t-18 6t-23.5 4.5t-31 3.5t-38.5 1h-49q-74 -98 -200 -285h73
q101 0 167.5 -56t66.5 -104q0 -28 -27 -28q-9 0 -18 6q-25 43 -260 43q-62 0 -95 -2q-141 -225 -228 -401t-87 -252q0 -37 23 -46q2 0 6 1t6 1q9 0 14.5 -6.5t5.5 -15.5q0 -13 -11 -24t-30 -11q-62 0 -99 75t-30 155q11 159 219 512q-283 -22 -577 -70q-221 -339 -221 -471
q0 -22 11 -32.5t11 -16.5q0 -21 -28 -21q-36 0 -80.5 47.5t-44.5 116.5q0 85 159 342q-399 -77 -438 -139q-20 -45 -45 -45q-9 0 -15.5 9t-6.5 24q0 42 53.5 86t123.5 75t165 62t150 45t106 26l213 314q-197 -32 -234 -64q-11 -8 -20 -8t-15 8.5t-6 20.5q0 20 17 41t51 35
q106 41 286 79q150 220 230 356t80 195q0 2 -1 7t-1 8q0 16 26 16q40 0 89.5 -40.5t49.5 -86.5q0 -35 -64.5 -135t-193.5 -279q275 42 549 54q141 185 260.5 300t176.5 115zM1386 678q100 157 193 287q-224 -13 -541 -50q-133 -182 -217 -301q280 47 565 64z" />
    <glyph glyph-name="hbar" unicode="&#x127;" horiz-adv-x="968" 
d="M1214 465q12 0 23.5 -18.5t11.5 -38.5q0 -9 -4 -17q-158 -147 -305.5 -251.5t-200.5 -104.5q-39 0 -75.5 54t-36.5 106q0 78 90 223.5t168 236.5l-8 9q-69 -51 -223 -181t-311.5 -276.5t-182.5 -196.5q-11 -14 -27 -14q-30 0 -61 46t-31 95q0 52 130.5 261t252.5 382.5
t188 259.5q-50 -9 -73 -20q-3 -14 -19 -14q-22 0 -22 24q0 81 198 117q191 231 252 231q30 0 81.5 -31.5t51.5 -52.5q0 -11 -14 -14q-53 -22 -137 -106q37 2 100 2q54 0 88.5 -36.5t34.5 -68.5q0 -20 -14 -20q-7 0 -15 4q-49 14 -161 14q-42 0 -132 -4q-61 -74 -131 -167
t-143.5 -200t-123 -180.5t-119.5 -180t-83 -126.5q106 107 255 244.5t303 259t198 121.5q34 0 85.5 -49.5t51.5 -79.5q0 -14 -12 -17q-105 -84 -208 -241t-103 -220q0 -22 18 -22q36 0 151.5 75.5t235.5 180.5q4 2 8 2z" />
    <glyph glyph-name="Itilde" unicode="&#x128;" horiz-adv-x="1292" 
d="M1821 1501q35 0 67.5 -44t32.5 -77q0 -18 -14 -18q-7 0 -11 2q-67 0 -259.5 -212.5t-393.5 -498t-297 -483.5q80 6 119 6q51 0 87.5 -28.5t51.5 -63t15 -66.5q0 -38 -21 -38q-10 0 -18 8q-28 47 -197 47q-26 0 -92 -4q-6 -21 -6 -39q2 -4 2 -10q0 -23 -31 -23
q-22 0 -47 16t-41 45q-149 -19 -297 -53t-256.5 -77.5t-126.5 -82.5q-13 -22 -31 -22q-14 0 -25.5 14t-11.5 35q0 54 76 98q279 160 676 218q44 127 183.5 354t323.5 466t335 380q-188 -40 -389 -101.5t-388.5 -149.5t-250.5 -169q42 -10 121 -10q56 0 131 10
q-5 -28 -90.5 -67.5t-155.5 -39.5q-42 0 -78.5 59t-36.5 109q0 66 102.5 141t262 138.5t341 116.5t353.5 83.5t285 30.5zM1444 1655q-8 0 -18.5 11t-10.5 20q0 50 73 105.5t124 55.5q34 0 60.5 -20.5t40 -45t31 -45t34.5 -20.5q21 0 39 10.5t26.5 20t20.5 29t14 22.5
q12 0 25.5 -14t13.5 -25q0 -44 -70 -88.5t-129 -44.5q-28 0 -55.5 20t-46 44.5t-40 44.5t-38.5 20q-7 0 -14.5 -5t-17.5 -16.5t-18 -21.5t-21.5 -28t-22.5 -29z" />
    <glyph glyph-name="itilde" unicode="&#x129;" horiz-adv-x="462" 
d="M195 2q-37 0 -80 56t-43 100q0 61 89.5 226.5t196 307.5t148.5 142q33 0 77 -27.5t44 -48.5q0 -8 -11 -13q-26 -12 -115.5 -126.5t-171 -246t-81.5 -177.5q0 -21 18 -21q41 0 178.5 92t255.5 197q4 2 9 2q12 0 23 -18.5t11 -38.5q0 -9 -4 -17q-171 -160 -329 -274.5
t-215 -114.5zM426 987q-8 0 -18.5 11t-10.5 20q0 50 73 106t124 56q34 0 60.5 -20.5t40 -45t31 -45t34.5 -20.5q21 0 39.5 10.5t26 19.5t20 29t14.5 22q12 0 25.5 -13.5t13.5 -24.5q0 -44 -70 -89t-129 -45q-28 0 -55.5 20t-46 44.5t-40 44.5t-38.5 20q-7 0 -14.5 -5
t-17.5 -16.5t-18 -21.5t-21.5 -28t-22.5 -29z" />
    <glyph glyph-name="Imacron" unicode="&#x12a;" horiz-adv-x="1292" 
d="M1477 1620q-42 0 -74.5 5.5t-49.5 13.5t-27.5 18t-13.5 16.5t-3 12.5q0 31 39 63.5t71 32.5q23 0 29 -23q10 -8 49 -15t86 -7q82 0 133 26q30 23 51 23q35 0 35 -33q0 -14 -22 -35.5t-61 -44t-104 -38t-138 -15.5zM1821 1501q35 0 67.5 -44t32.5 -77q0 -18 -14 -18
q-7 0 -11 2q-67 0 -259.5 -212.5t-393.5 -498t-297 -483.5q80 6 119 6q51 0 87.5 -28.5t51.5 -63t15 -66.5q0 -38 -21 -38q-10 0 -18 8q-28 47 -197 47q-26 0 -92 -4q-6 -21 -6 -39q2 -4 2 -10q0 -23 -31 -23q-22 0 -47 16t-41 45q-149 -19 -297 -53t-256.5 -77.5
t-126.5 -82.5q-13 -22 -31 -22q-14 0 -25.5 14t-11.5 35q0 54 76 98q279 160 676 218q44 127 183.5 354t323.5 466t335 380q-188 -40 -389 -101.5t-388.5 -149.5t-250.5 -169q42 -10 121 -10q56 0 131 10q-5 -28 -90.5 -67.5t-155.5 -39.5q-42 0 -78.5 59t-36.5 109
q0 66 102.5 141t262 138.5t341 116.5t353.5 83.5t285 30.5z" />
    <glyph glyph-name="imacron" unicode="&#x12b;" horiz-adv-x="462" 
d="M637 977q-42 0 -74.5 5.5t-49.5 13t-27.5 17.5t-13.5 16.5t-3 12.5q0 31 39.5 64t71.5 33q22 0 28 -23q10 -8 49 -15t86 -7q83 0 134 26q30 23 51 23q35 0 35 -33q0 -14 -22.5 -35.5t-61.5 -44t-104 -38t-138 -15.5zM195 2q-37 0 -80 56t-43 100q0 61 89.5 226.5
t196 307.5t148.5 142q33 0 77 -27.5t44 -48.5q0 -8 -11 -13q-26 -12 -115.5 -126.5t-171 -246t-81.5 -177.5q0 -21 18 -21q41 0 178.5 92t255.5 197q4 2 9 2q12 0 23 -18.5t11 -38.5q0 -9 -4 -17q-171 -160 -329 -274.5t-215 -114.5z" />
    <glyph glyph-name="Iogonek" unicode="&#x12e;" horiz-adv-x="1292" 
d="M1821 1501q35 0 67.5 -44t32.5 -77q0 -18 -14 -18q-7 0 -11 2q-67 0 -259.5 -212.5t-393.5 -498t-297 -483.5q80 6 119 6q51 0 87.5 -28.5t51.5 -63t15 -66.5q0 -38 -21 -38q-10 0 -18 8q-28 47 -197 47q-26 0 -92 -4q-6 -21 -6 -39q2 -4 2 -10q0 -23 -31 -23
q-10 0 -16 2q-93 -60 -164.5 -124.5t-71.5 -108.5q0 -19 25 -19q27 0 70.5 20t72.5 44q7 12 16 12q12 0 22.5 -16.5t10.5 -32.5q0 -35 -90 -85t-145 -50q-45 0 -83 35t-38 79q0 34 25 71.5t75 77.5t95.5 70.5t115.5 73.5l-8 12q-149 -19 -297 -53t-256.5 -77.5t-126.5 -82.5
q-13 -22 -31 -22q-14 0 -25.5 14t-11.5 35q0 54 76 98q279 160 676 218q44 127 183.5 354t323.5 466t335 380q-188 -40 -389 -101.5t-388.5 -149.5t-250.5 -169q42 -10 121 -10q56 0 131 10q-5 -28 -90.5 -67.5t-155.5 -39.5q-42 0 -78.5 59t-36.5 109q0 66 102.5 141
t262 138.5t341 116.5t353.5 83.5t285 30.5z" />
    <glyph glyph-name="iogonek" unicode="&#x12f;" horiz-adv-x="462" 
d="M805 1303q33 0 76 -31.5t43 -50.5q0 -9 -11 -9q-31 -5 -114.5 -94.5t-120.5 -138.5q-4 -4 -8 -4q-18 0 -39.5 29.5t-20.5 54.5q1 30 35.5 88.5t81.5 107t78 48.5zM709 465q12 0 23 -18.5t11 -38.5q0 -9 -4 -17q-125 -118 -250.5 -216t-209.5 -144q-83 -55 -142 -112.5
t-59 -96.5q0 -19 24 -19q27 0 71 20t73 44q7 12 16 12q12 0 22.5 -16.5t10.5 -32.5q0 -35 -90.5 -85t-145.5 -50q-45 0 -82.5 35.5t-37.5 79.5q0 51 51.5 104t146.5 117q-27 27 -46 63.5t-19 63.5q0 61 89.5 226.5t196 307.5t148.5 142q33 0 77 -27.5t44 -48.5q0 -8 -11 -13
q-26 -12 -115.5 -126.5t-171 -246t-81.5 -177.5q0 -21 18 -21q41 0 178.5 92t255.5 197q4 2 9 2z" />
    <glyph glyph-name="Idotaccent" unicode="&#x130;" horiz-adv-x="1292" 
d="M1532 1599q-22 0 -35.5 16t-13.5 36q0 53 44.5 111.5t86.5 58.5q76 0 76 -58q0 -55 -54 -109.5t-104 -54.5zM1821 1501q35 0 67.5 -44t32.5 -77q0 -18 -14 -18q-7 0 -11 2q-67 0 -259.5 -212.5t-393.5 -498t-297 -483.5q80 6 119 6q51 0 87.5 -28.5t51.5 -63t15 -66.5
q0 -38 -21 -38q-10 0 -18 8q-28 47 -197 47q-26 0 -92 -4q-6 -21 -6 -39q2 -4 2 -10q0 -23 -31 -23q-22 0 -47 16t-41 45q-149 -19 -297 -53t-256.5 -77.5t-126.5 -82.5q-13 -22 -31 -22q-14 0 -25.5 14t-11.5 35q0 54 76 98q279 160 676 218q44 127 183.5 354t323.5 466
t335 380q-188 -40 -389 -101.5t-388.5 -149.5t-250.5 -169q42 -10 121 -10q56 0 131 10q-5 -28 -90.5 -67.5t-155.5 -39.5q-42 0 -78.5 59t-36.5 109q0 66 102.5 141t262 138.5t341 116.5t353.5 83.5t285 30.5z" />
    <glyph glyph-name="dotlessi" unicode="&#x131;" horiz-adv-x="462" 
d="M195 2q-37 0 -80 56t-43 100q0 61 89.5 226.5t196 307.5t148.5 142q33 0 77 -27.5t44 -48.5q0 -8 -11 -13q-26 -12 -115.5 -126.5t-171 -246t-81.5 -177.5q0 -21 18 -21q41 0 178.5 92t255.5 197q4 2 9 2q12 0 23 -18.5t11 -38.5q0 -9 -4 -17q-171 -160 -329 -274.5
t-215 -114.5z" />
    <glyph glyph-name="uni0136" unicode="&#x136;" horiz-adv-x="1165" 
d="M2013 1651q56 0 97.5 -44.5t41.5 -84.5q0 -12 -7 -20.5t-19 -8.5q-16 8 -33 8q-95 0 -345 -162.5t-544 -401t-569 -493.5q93 -170 224 -328.5t276.5 -266t253.5 -107.5q27 0 53.5 25.5t44.5 25.5q12 0 19 -9t7 -22q0 -23 -33.5 -58t-93 -64t-120.5 -29q-90 0 -196.5 64.5
t-208 170.5t-191.5 228t-164 250q-239 -233 -359 -381q0 -19 -16 -19q-26 0 -59.5 43.5t-30.5 95.5q5 109 321 570q-14 49 -14 86q1 28 44 51.5t85 28.5q97 141 146.5 216t116 180t97 170t33.5 103q-3 31 25 31q37 0 86 -44.5t49 -82.5q0 -25 -26 -74.5t-81 -129.5
t-106 -149.5t-137 -185t-137 -186.5q9 -31 41 -104q263 256 560.5 509.5t543 426t325.5 172.5zM240 186q88 101 217 230q-12 23 -33 65q-118 -170 -184 -295zM504 -106q41 0 80 -29t39 -51q0 -5 -5 -9t-12 -4q-42 -18 -111.5 -95.5t-91.5 -123.5q-3 -8 -12 -8
q-17 0 -35 24.5t-18 61.5q0 47 61.5 140.5t104.5 93.5z" />
    <glyph glyph-name="uni0137" unicode="&#x137;" horiz-adv-x="880" 
d="M1126 465q12 0 23.5 -18.5t11.5 -38.5q0 -9 -4 -17q-81 -72 -135 -117.5t-128 -103t-129.5 -86.5t-90.5 -29q-58 0 -112.5 84.5t-51.5 210.5q-131 -111 -231 -208t-119 -132q-8 -14 -25 -14q-29 0 -61.5 47.5t-32.5 91.5q0 21 4 29q47 117 238 409.5t394.5 548.5
t266.5 256q38 0 87.5 -31t49.5 -53q0 -11 -14 -14q-67 -28 -170.5 -139.5t-237.5 -300t-203.5 -291.5t-185.5 -282q-24 -36 -34 -52q103 109 244.5 244t288 253.5t192.5 118.5q29 0 71.5 -38t42.5 -64q0 -16 -12 -16q-2 0 -5 1t-5 1q-88 0 -408 -252v-19q0 -89 35.5 -157
t73.5 -68q35 0 138 69.5t226 174.5q4 2 8 2zM365 -47q41 0 79.5 -29t38.5 -51q0 -12 -16 -12q-42 -18 -111.5 -95.5t-91.5 -123.5q-3 -9 -12 -9q-17 0 -35 24.5t-18 61.5q0 47 61.5 140.5t104.5 93.5z" />
    <glyph glyph-name="Lacute" unicode="&#x139;" horiz-adv-x="1482" 
d="M1911 1872q22 0 44.5 -27t22.5 -63q0 -40 -51.5 -81.5t-121 -67t-122.5 -25.5q-33 0 -56 17t-23 36q0 14 20 14q54 10 154.5 77t113.5 108q6 12 19 12zM1618 1520q135 0 223 -81t88 -202q0 -88 -54 -182.5t-145.5 -179.5t-216 -165t-262 -141t-286.5 -103.5t-287 -57.5
q-99 -159 -176 -324q392 109 700 109q49 0 89.5 -21.5t63.5 -55t35.5 -69t12.5 -67.5q0 -26 -9 -42t-24 -16q-10 0 -16 4q4 30 -28.5 49.5t-89 28t-136.5 8.5q-173 0 -402 -35.5t-404.5 -88.5t-201.5 -99q-8 -14 -18 -14q-9 0 -15 12t-6 31q0 42 28.5 86.5t88.5 68.5
q113 45 238 84q-15 38 -15 70q0 78 99 274q-190 9 -304 82t-114 183q0 64 39.5 116.5t96 82t111 45.5t93.5 16q37 0 37 -13q-109 -48 -182.5 -122.5t-73.5 -147.5q0 -66 66.5 -105.5t203.5 -39.5q24 0 82 4q76 132 173 269t214 272.5t232.5 240.5t235 170.5t216.5 65.5z
M1817 1303q3 53 -20 77.5t-81 24.5q-104 0 -231.5 -75.5t-254.5 -203.5t-244 -275.5t-226 -313.5q180 43 365 126.5t335.5 186t249.5 223.5t107 230z" />
    <glyph glyph-name="lacute" unicode="&#x13a;" horiz-adv-x="466" 
d="M948 1528q-33 0 -56.5 17t-23.5 36q0 14 21 14q54 10 154.5 77t113.5 108q6 12 19 12q22 0 44.5 -27t22.5 -63q0 -40 -51.5 -81.5t-121 -67t-122.5 -25.5zM188 2q-35 0 -70.5 47.5t-35.5 100.5q0 86 111.5 300.5t254 428.5t280.5 380t187 166q26 0 43 -24t22 -47.5
t5 -44.5q0 -67 -198 -317t-404 -464q-123 -228 -123 -315q0 -39 29 -39q82 0 416 289q4 2 8 2q12 0 23.5 -18.5t11.5 -38.5q0 -7 -5 -17q-430 -389 -555 -389z" />
    <glyph glyph-name="uni013B" unicode="&#x13b;" horiz-adv-x="1482" 
d="M1929 1237q0 -88 -54 -182.5t-145.5 -179.5t-216 -165t-262 -141t-286.5 -103.5t-287 -57.5q-99 -159 -176 -324q392 109 700 109q49 0 89.5 -21.5t63.5 -55t35.5 -69t12.5 -67.5q0 -26 -9 -42t-24 -16q-10 0 -16 4q4 30 -28.5 49.5t-89 28t-136.5 8.5q-173 0 -402 -35.5
t-404.5 -88.5t-201.5 -99q-8 -14 -18 -14q-9 0 -15 12t-6 31q0 42 28.5 86.5t88.5 68.5q113 45 238 84q-15 38 -15 70q0 78 99 274q-190 9 -304 82t-114 183q0 64 39.5 116.5t96 82t111 45.5t93.5 16q37 0 37 -13q-109 -48 -182.5 -122.5t-73.5 -147.5q0 -66 66.5 -105.5
t203.5 -39.5q24 0 82 4q76 132 173 269t214 272.5t232.5 240.5t235 170.5t216.5 65.5q135 0 223 -81t88 -202zM1716 1405q-104 0 -231.5 -75.5t-254.5 -203.5t-244 -275.5t-226 -313.5q180 43 365 126.5t335.5 186t249.5 223.5t107 230q3 53 -20 77.5t-81 24.5zM688 -152
q41 0 80 -28.5t39 -50.5q0 -13 -16 -13q-42 -18 -111.5 -95.5t-91.5 -123.5q-3 -8 -13 -8q-17 0 -35 24.5t-18 61.5q0 47 61.5 140t104.5 93z" />
    <glyph glyph-name="uni013C" unicode="&#x13c;" horiz-adv-x="466" 
d="M188 2q-35 0 -70.5 47.5t-35.5 100.5q0 86 111.5 300.5t254 428.5t280.5 380t187 166q26 0 43 -24t22 -47.5t5 -44.5q0 -67 -198 -317t-404 -464q-123 -228 -123 -315q0 -39 29 -39q82 0 416 289q4 2 8 2q12 0 23.5 -18.5t11.5 -38.5q0 -7 -5 -17q-430 -389 -555 -389z
M113 -76q41 0 79.5 -29t38.5 -51q0 -12 -16 -12q-42 -18 -111.5 -95.5t-91.5 -123.5q-3 -8 -12 -8q-17 0 -35 24.5t-18 61.5q0 47 61.5 140t104.5 93z" />
    <glyph glyph-name="Lcaron" unicode="&#x13d;" horiz-adv-x="1482" 
d="M1497 1520q114 0 191 -80t77 -203q0 -132 -96 -274t-248.5 -256.5t-353.5 -197t-401 -103.5q-104 -188 -164 -322q392 109 700 109q49 0 89.5 -21.5t63.5 -55t35.5 -69t12.5 -67.5q0 -26 -9 -42t-24 -16q-10 0 -16 4q4 30 -28.5 49.5t-89 28t-136.5 8.5
q-173 0 -402 -35.5t-404.5 -88.5t-201.5 -99q-8 -14 -18 -14q-9 0 -15 12t-6 31q0 42 28.5 86.5t88.5 68.5q113 45 238 84q-15 38 -15 70q0 83 90 274q-188 10 -298.5 82.5t-110.5 182.5q0 64 39.5 116.5t96 82t111 45.5t93.5 16q37 0 37 -13q-109 -48 -182.5 -122.5
t-73.5 -147.5q0 -66 66.5 -105.5t203.5 -39.5q44 0 67 2q68 132 155.5 270t193 273t210 240.5t212 171t194.5 65.5zM2097 1460q34 0 66 -21.5t32 -39.5q0 -13 -14 -15q-83 -59 -150 -140t-106 -161q-6 -18 -18 -18q-17 0 -36.5 21.5t-19.5 41.5q0 38 45.5 118.5t105.5 147
t95 66.5zM741 537q130 34 261.5 93t248 138t207.5 168.5t144 192.5t53 202q0 74 -76 74q-70 0 -156 -50.5t-171.5 -134t-177.5 -198t-173 -234t-160 -251.5z" />
    <glyph glyph-name="lcaron" unicode="&#x13e;" horiz-adv-x="466" 
d="M188 2q-35 0 -70.5 47.5t-35.5 100.5q0 86 111.5 300.5t254 428.5t280.5 380t187 166q26 0 43 -24t22 -47.5t5 -44.5q0 -67 -198 -317t-404 -464q-123 -228 -123 -315q0 -39 29 -39q82 0 416 289q4 2 8 2q12 0 23.5 -18.5t11.5 -38.5q0 -7 -5 -17q-430 -389 -555 -389z
M1106 1110q-17 0 -33 17.5t-16 37.5q0 41 86.5 146.5t126.5 105.5q28 0 60 -22.5t32 -40.5q0 -12 -16 -15q-118 -78 -222 -211q-6 -18 -18 -18z" />
    <glyph glyph-name="Lslash" unicode="&#x141;" horiz-adv-x="1482" 
d="M1929 1237q0 -88 -54 -182.5t-145.5 -179.5t-216 -165t-262 -141t-286.5 -103.5t-287 -57.5q-99 -159 -176 -324q392 109 700 109q49 0 89.5 -21.5t63.5 -55t35.5 -69t12.5 -67.5q0 -26 -9 -42t-24 -16q-10 0 -16 4q4 30 -28.5 49.5t-89 28t-136.5 8.5q-173 0 -402 -35.5
t-404.5 -88.5t-201.5 -99q-8 -14 -18 -14q-9 0 -15 12t-6 31q0 42 28.5 86.5t88.5 68.5q113 45 238 84q-15 38 -15 70q0 78 99 274q-190 9 -304 82t-114 183q0 64 39.5 116.5t96 82t111 45.5t93.5 16q37 0 37 -13q-109 -48 -182.5 -122.5t-73.5 -147.5q0 -66 66.5 -105.5
t203.5 -39.5q24 0 82 4q130 222 293 428q-200 -64 -226 -105q-6 -6 -14 -6q-16 0 -16 27q0 29 17.5 60t39.5 50q48 42 311 109q179 206 352.5 330.5t313.5 124.5q135 0 223 -81t88 -202zM1112 1001q-181 -201 -352 -464q180 43 365 126.5t335.5 186t249.5 223.5t107 230
q3 53 -20 77.5t-81 24.5q-203 0 -491 -285q78 10 123 10q71 0 113 -22t42 -45q0 -16 -20 -16q-6 0 -18 2t-17 2q-110 0 -336 -50z" />
    <glyph glyph-name="lslash" unicode="&#x142;" horiz-adv-x="575" 
d="M244 2q-51 0 -93 47t-42 101q0 102 155 382q-13 6 -25 26.5t-12 35.5q0 39 133 104q168 276 345.5 501.5t236.5 225.5q26 0 43 -24t22 -47.5t5 -44.5q0 -53 -126 -201.5t-308 -329.5q95 29 143 29q34 0 59 -34t25 -64q0 -23 -17 -23q-122 0 -327 -65q-174 -300 -174 -398
q0 -49 43 -49q61 0 206.5 87t276.5 202q4 2 8 2q12 0 23.5 -18.5t11.5 -38.5q0 -9 -4 -17q-182 -165 -357 -277t-251 -112z" />
    <glyph glyph-name="Nacute" unicode="&#x143;" horiz-adv-x="1490" 
d="M1589 1507q-33 0 -56.5 17.5t-23.5 36.5q0 14 21 14q54 10 154.5 76.5t113.5 107.5q6 13 19 13q22 0 44.5 -27.5t22.5 -63.5q0 -40 -51.5 -81.5t-121 -67t-122.5 -25.5zM2171 1561q43 0 92 -34.5t49 -58.5q0 -7 -8 -10q-71 -5 -202 -135t-276.5 -323.5t-291 -411
t-259 -409t-167.5 -306.5q-3 -12 -21 -12q-39 0 -93 44.5t-54 94.5q0 142 56 528t137 643q-175 -160 -394.5 -430t-382.5 -535t-163 -380q0 -13 10 -30.5t10 -26.5q0 -6 -4.5 -11.5t-11.5 -5.5q-27 0 -61.5 20t-64.5 65.5t-30 103.5q0 100 155 339.5t354 476t393 419
t265 182.5q44 0 94 -41t50 -70q0 -13 -11 -18q-40 -105 -72.5 -229.5t-59 -276t-40 -241.5t-34.5 -250q-5 -35 -7 -52q94 187 238.5 422t297 450.5t293.5 362t214 146.5z" />
    <glyph glyph-name="nacute" unicode="&#x144;" horiz-adv-x="913" 
d="M795 983q-33 0 -56.5 17t-23.5 36q0 15 20 15q54 10 155 76.5t114 107.5q6 12 18 12q22 0 45 -27t23 -63q0 -40 -51.5 -81.5t-121 -67t-122.5 -25.5zM1159 465q12 0 23.5 -18.5t11.5 -38.5q0 -9 -4 -17q-158 -147 -305.5 -251.5t-200.5 -104.5q-39 0 -76 54t-37 106
q0 78 90 223.5t168 236.5l-8 9q-113 -85 -382 -333t-306 -321q-8 -14 -24 -14q-28 0 -58.5 44.5t-30.5 86.5q0 19 11 37q34 54 149 220.5t195 290.5t80 152q0 2 -1 6.5t-1 6.5q0 12 18 12q33 0 77.5 -36.5t43.5 -76.5q0 -6 -10.5 -23.5t-32.5 -50t-42.5 -63t-56 -80
t-58.5 -81.5t-64 -88.5t-58 -80.5q197 202 401.5 383t264.5 181q29 0 81 -50t52 -79q0 -14 -12 -17q-105 -85 -208.5 -241.5t-103.5 -219.5q0 -22 19 -22q36 0 151.5 75.5t235.5 180.5q4 2 8 2z" />
    <glyph glyph-name="uni0145" unicode="&#x145;" horiz-adv-x="1490" 
d="M2171 1561q43 0 92 -34.5t49 -58.5q0 -7 -8 -10q-71 -5 -202 -135t-276.5 -323.5t-291 -411t-259 -409t-167.5 -306.5q-3 -12 -21 -12q-39 0 -93 44.5t-54 94.5q0 142 56 528t137 643q-175 -160 -394.5 -430t-382.5 -535t-163 -380q0 -13 10 -30.5t10 -26.5
q0 -6 -4.5 -11.5t-11.5 -5.5q-27 0 -61.5 20t-64.5 65.5t-30 103.5q0 100 155 339.5t354 476t393 419t265 182.5q44 0 94 -41t50 -70q0 -13 -11 -18q-40 -105 -72.5 -229.5t-59 -276t-40 -241.5t-34.5 -250q-5 -35 -7 -52q94 187 238.5 422t297 450.5t293.5 362t214 146.5z
M608 -150q41 0 80 -28.5t39 -50.5q0 -13 -16 -13q-42 -18 -111.5 -95.5t-91.5 -123.5q-3 -8 -12 -8q-17 0 -35.5 24.5t-18.5 61.5q0 47 61.5 140t104.5 93z" />
    <glyph glyph-name="uni0146" unicode="&#x146;" horiz-adv-x="913" 
d="M1159 465q12 0 23.5 -18.5t11.5 -38.5q0 -9 -4 -17q-158 -147 -305.5 -251.5t-200.5 -104.5q-39 0 -76 54t-37 106q0 78 90 223.5t168 236.5l-8 9q-113 -85 -382 -333t-306 -321q-8 -14 -24 -14q-28 0 -58.5 44.5t-30.5 86.5q0 19 11 37q34 54 149 220.5t195 290.5
t80 152q0 2 -1 6.5t-1 6.5q0 12 18 12q33 0 77.5 -36.5t43.5 -76.5q0 -6 -10.5 -23.5t-32.5 -50t-42.5 -63t-56 -80t-58.5 -81.5t-64 -88.5t-58 -80.5q197 202 401.5 383t264.5 181q29 0 81 -50t52 -79q0 -14 -12 -17q-105 -85 -208.5 -241.5t-103.5 -219.5q0 -22 19 -22
q36 0 151.5 75.5t235.5 180.5q4 2 8 2zM362 -47q41 0 80 -29t39 -51q0 -12 -16 -12q-42 -18 -111.5 -95.5t-91.5 -123.5q-3 -9 -12 -9q-17 0 -35 24.5t-18 61.5q0 47 61 140.5t104 93.5z" />
    <glyph glyph-name="Ncaron" unicode="&#x147;" horiz-adv-x="1490" 
d="M1622 1470q-55 0 -97 25t-42 61q0 51 40 112t60 61q19 0 36 -11.5t17 -21.5q0 -4 -4 -8q-14 -14 -33 -67.5t-18 -74.5q58 21 132 70.5t136 101.5q4 8 13 8q17 0 36 -16t19 -31q0 -26 -52.5 -76.5t-124.5 -91.5t-118 -41zM2171 1561q43 0 92 -34.5t49 -58.5q0 -7 -8 -10
q-71 -5 -202 -135t-276.5 -323.5t-291 -411t-259 -409t-167.5 -306.5q-3 -12 -21 -12q-39 0 -93 44.5t-54 94.5q0 142 56 528t137 643q-175 -160 -394.5 -430t-382.5 -535t-163 -380q0 -13 10 -30.5t10 -26.5q0 -6 -4.5 -11.5t-11.5 -5.5q-27 0 -61.5 20t-64.5 65.5
t-30 103.5q0 100 155 339.5t354 476t393 419t265 182.5q44 0 94 -41t50 -70q0 -13 -11 -18q-40 -105 -72.5 -229.5t-59 -276t-40 -241.5t-34.5 -250q-5 -35 -7 -52q94 187 238.5 422t297 450.5t293.5 362t214 146.5z" />
    <glyph glyph-name="ncaron" unicode="&#x148;" horiz-adv-x="913" 
d="M827 946q-55 0 -97 25t-42 61q0 51 40 111.5t60 60.5q19 0 36.5 -11.5t17.5 -21.5q0 -4 -4 -8q-14 -14 -33.5 -67t-18.5 -74q58 22 133 71t136 101q4 8 12 8q17 0 36 -16t19 -31q0 -26 -52.5 -76.5t-124.5 -91.5t-118 -41zM1159 465q12 0 23.5 -18.5t11.5 -38.5
q0 -9 -4 -17q-158 -147 -305.5 -251.5t-200.5 -104.5q-39 0 -76 54t-37 106q0 78 90 223.5t168 236.5l-8 9q-113 -85 -382 -333t-306 -321q-8 -14 -24 -14q-28 0 -58.5 44.5t-30.5 86.5q0 19 11 37q34 54 149 220.5t195 290.5t80 152q0 2 -1 6.5t-1 6.5q0 12 18 12
q33 0 77.5 -36.5t43.5 -76.5q0 -6 -10.5 -23.5t-32.5 -50t-42.5 -63t-56 -80t-58.5 -81.5t-64 -88.5t-58 -80.5q197 202 401.5 383t264.5 181q29 0 81 -50t52 -79q0 -14 -12 -17q-105 -85 -208.5 -241.5t-103.5 -219.5q0 -22 19 -22q36 0 151.5 75.5t235.5 180.5q4 2 8 2z
" />
    <glyph glyph-name="Eng" unicode="&#x14a;" horiz-adv-x="1511" 
d="M2179 1561q43 0 92 -34.5t49 -58.5q0 -7 -8 -10q-87 -6 -268 -201.5t-367 -458t-348.5 -521.5t-230.5 -404q-37 -65 -73 -124t-90 -133t-103.5 -127t-108 -89.5t-109.5 -36.5q-50 0 -93.5 21t-69 51t-40 60.5t-14.5 53.5q0 29 19 29q18 0 47 -29q28 -22 61 -22
q89 0 209 112t223 295q-26 33 -26 66q0 131 63.5 520.5t147.5 650.5q-129 -118 -293.5 -311t-307.5 -390t-241 -377.5t-98 -266.5q0 -13 10 -30.5t10 -26.5q0 -6 -4.5 -11.5t-11.5 -5.5q-45 0 -96.5 52.5t-51.5 136.5q0 68 73 203t186 290.5t251.5 321t267 298.5
t235.5 218.5t155 85.5q43 0 89 -40.5t46 -70.5q0 -13 -10 -18q-55 -145 -103.5 -353.5t-72 -347t-55.5 -348.5q-5 -32 -7 -47q87 180 234 423t304.5 468t305.5 381t223 156z" />
    <glyph glyph-name="eng" unicode="&#x14b;" horiz-adv-x="884" 
d="M936 836q29 0 75 -48.5t46 -78.5q0 -16 -13 -19q-54 -107 -88.5 -175t-108 -203t-131 -226.5t-138 -206.5t-148.5 -184.5t-144.5 -118.5t-142.5 -49q-83 0 -146 55t-63 129q0 37 28 64.5t54 27.5q10 0 17.5 -7t7.5 -21q0 -5 -5 -24.5t-5 -29.5q0 -42 18.5 -62.5
t46.5 -20.5q68 0 182.5 121t225.5 290t204.5 335.5t137.5 272.5l-8 9q-66 -36 -228 -179t-306 -287.5t-171 -189.5q-8 -16 -22 -16q-28 0 -59.5 46.5t-31.5 88.5q0 17 11 35q35 55 153.5 226t197.5 295t73 146q-3 21 18 21q33 0 76.5 -36.5t42.5 -76.5q0 -6 -10.5 -23.5
t-32.5 -50t-42.5 -63t-56 -80t-58.5 -81.5t-64 -88.5t-58 -80.5q197 202 401.5 383t264.5 181z" />
    <glyph glyph-name="Omacron" unicode="&#x14c;" horiz-adv-x="1347" 
d="M1157 1640q-42 0 -74.5 5.5t-49.5 13.5t-27.5 18t-13.5 16.5t-3 12.5q0 31 39.5 63.5t71.5 32.5q22 0 28 -22q10 -8 50 -15.5t86 -7.5q80 0 133 27q28 22 51 22q35 0 35 -32q0 -14 -22.5 -36t-61.5 -44t-104 -38t-138 -16zM1561 717q7 0 12.5 -9.5t5.5 -23.5
q0 -43 -37 -68q-39 -31 -188 -77q-127 -180 -292 -336t-343.5 -254.5t-317.5 -98.5q-135 0 -237.5 85.5t-102.5 214.5q0 169 160 389q-153 99 -153 264q0 84 47 173.5t124.5 167t180.5 147.5t213 119.5t223.5 78.5t210.5 29q218 0 362 -129.5t144 -313.5q0 -176 -143 -420
q58 21 120 56q6 6 11 6zM184 776q-3 -80 117 -137q125 143 260.5 241.5t210.5 98.5q46 0 85.5 -36.5t39.5 -59.5q0 -9 -10 -9q-71 0 -186 -80t-232 -204q158 -29 334 -29q179 0 371 29q115 159 182 312t67 269q0 111 -65 159t-201 48q-116 0 -239 -31.5t-228 -83
t-199.5 -117t-161 -132t-106 -129.5t-39.5 -109zM301 -8q183 0 390.5 134t385.5 345q-205 -41 -393 -41q-177 0 -313 43q-86 -110 -137.5 -213t-51.5 -178q0 -47 24.5 -68.5t94.5 -21.5z" />
    <glyph glyph-name="omacron" unicode="&#x14d;" 
d="M756 961q-42 0 -74.5 5.5t-49.5 13t-27.5 17.5t-13.5 16.5t-3 12.5q0 31 39 63.5t71 32.5q24 0 29 -22q10 -8 49.5 -15.5t85.5 -7.5q80 0 133 27q28 22 52 22q34 0 34 -32q0 -14 -22 -35.5t-61 -44t-104 -38t-138 -15.5zM1122 528q6 1 11.5 -9.5t5.5 -22.5q0 -28 -21 -39
q-181 -75 -348 -111q-105 -139 -243 -242.5t-244 -103.5q-99 0 -161.5 65t-62.5 132q0 69 66 161t137 134q-10 38 -10 69q0 64 60.5 137t153 122.5t175.5 49.5q51 0 93.5 -20.5t69.5 -52t46 -69t27 -70.5t8 -58q0 -51 -37 -127q188 21 274 55zM686 754q-58 0 -138.5 -42
t-137 -95.5t-56.5 -86.5q0 -36 73.5 -54.5t188.5 -18.5h50q92 134 92 221q0 76 -72 76zM244 127q56 0 139.5 54.5t169.5 140.5q-154 3 -238 84q-47 -50 -84.5 -118t-37.5 -112q0 -49 51 -49z" />
    <glyph glyph-name="Ohungarumlaut" unicode="&#x150;" horiz-adv-x="1347" 
d="M1057 1626q-19 0 -32 11.5t-13 21.5t8 10q40 28 99 144.5t59 162.5v4q0 17 22 17q30 0 61 -21t31 -51q0 -35 -43 -107t-100 -132t-92 -60zM1247 1669q46 32 106 114.5t60 123.5v4q0 16 21 16q25 0 52 -21t27 -51q0 -47 -92 -138t-139 -91q-19 0 -31 11t-12 22q0 10 8 10z
M1561 717q7 0 12.5 -9.5t5.5 -23.5q0 -43 -37 -68q-39 -31 -188 -77q-127 -180 -292 -336t-343.5 -254.5t-317.5 -98.5q-135 0 -237.5 85.5t-102.5 214.5q0 169 160 389q-153 99 -153 264q0 84 47 173.5t124.5 167t180.5 147.5t213 119.5t223.5 78.5t210.5 29
q218 0 362 -129.5t144 -313.5q0 -176 -143 -420q58 21 120 56q6 6 11 6zM184 776q-3 -80 117 -137q125 143 260.5 241.5t210.5 98.5q46 0 85.5 -36.5t39.5 -59.5q0 -9 -10 -9q-71 0 -186 -80t-232 -204q158 -29 334 -29q179 0 371 29q115 159 182 312t67 269q0 111 -65 159
t-201 48q-116 0 -239 -31.5t-228 -83t-199.5 -117t-161 -132t-106 -129.5t-39.5 -109zM301 -8q183 0 390.5 134t385.5 345q-205 -41 -393 -41q-177 0 -313 43q-86 -110 -137.5 -213t-51.5 -178q0 -47 24.5 -68.5t94.5 -21.5z" />
    <glyph glyph-name="ohungarumlaut" unicode="&#x151;" 
d="M655 946q-19 0 -32 11.5t-13 21.5t8 10q40 28 99 144.5t59 162.5v4q0 7 7 12t16 5q30 0 61 -21t31 -51q0 -35 -43 -107t-100.5 -132t-92.5 -60zM846 989q46 32 106 114.5t60 123.5v4q0 16 20 16q25 0 52.5 -20.5t27.5 -50.5q0 -47 -92 -138.5t-139 -91.5q-19 0 -31 11
t-12 22q0 10 8 10zM1122 528q6 1 11.5 -9.5t5.5 -22.5q0 -28 -21 -39q-181 -75 -348 -111q-105 -139 -243 -242.5t-244 -103.5q-99 0 -161.5 65t-62.5 132q0 69 66 161t137 134q-10 38 -10 69q0 64 60.5 137t153 122.5t175.5 49.5q51 0 93.5 -20.5t69.5 -52t46 -69t27 -70.5
t8 -58q0 -51 -37 -127q188 21 274 55zM686 754q-58 0 -138.5 -42t-137 -95.5t-56.5 -86.5q0 -36 73.5 -54.5t188.5 -18.5h50q92 134 92 221q0 76 -72 76zM244 127q56 0 139.5 54.5t169.5 140.5q-154 3 -238 84q-47 -50 -84.5 -118t-37.5 -112q0 -49 51 -49z" />
    <glyph glyph-name="OE" unicode="&#x152;" horiz-adv-x="2099" 
d="M2281 1137q166 131 166 176q0 20 -39 20q-122 0 -284.5 -48t-296.5 -113t-228 -134t-94 -110q0 -48 113 -73.5t268 -25.5q118 0 225 17q15 -2 31.5 -29.5t16.5 -56.5q0 -25 -13 -44t-41 -22q-193 -38 -365 -96t-293.5 -121t-211 -129.5t-133 -126t-43.5 -106.5
q0 -48 46 -77.5t136 -29.5q168 0 381 68.5t399.5 171.5t313.5 215q4 2 8 2q12 0 23.5 -18.5t11.5 -38.5q0 -9 -4 -17q-132 -120 -267 -215t-251 -155t-228.5 -99.5t-202 -55.5t-168.5 -16q-109 0 -211.5 79.5t-132.5 183.5q-165 -123 -314.5 -193t-252.5 -70
q-126 0 -220.5 89t-94.5 208q0 90 57 195.5t154 210.5q-127 78 -127 217q0 87 50.5 180t134.5 174t195 154.5t229.5 126t240.5 83t225 30.5q159 0 277 -73.5t163 -193.5q164 103 373.5 171.5t372.5 68.5q50 0 89 -25.5t58.5 -62.5t29 -71t9.5 -60q0 -52 -94.5 -109
t-149.5 -57q-15 0 -27 10t-10 21zM1511 778q-56 22 -94.5 75t-38.5 108q0 89 131 204q4 36 4 52q0 86 -60.5 123.5t-184.5 37.5q-119 0 -248.5 -32t-241.5 -83.5t-214 -117.5t-174.5 -134t-115.5 -133t-43 -114q0 -74 105 -117q146 135 299.5 225.5t238.5 90.5q52 0 99 -60
q29 -38 23 -51q-1 -3 -5 -2q-76 0 -200.5 -69t-255.5 -177q90 -10 229 -10q269 0 522.5 42t413.5 112q-44 1 -103 11t-86 19zM969 340q80 104 268 207q-343 -80 -596 -80q-123 0 -233 22q-118 -112 -190.5 -221t-72.5 -184q0 -47 31.5 -72.5t91.5 -25.5q129 0 328.5 101
t372.5 253z" />
    <glyph glyph-name="oe" unicode="&#x153;" horiz-adv-x="1181" 
d="M1427 465q13 0 24 -19t11 -38q0 -9 -4 -17q-67 -60 -143 -120.5t-170 -125t-185 -105t-155 -40.5q-71 0 -128.5 46t-82.5 112q-179 -158 -311 -158q-99 0 -161.5 65t-62.5 132q0 69 66 161t137 134q-10 38 -10 69q0 64 60.5 137t153 122.5t175.5 49.5q84 0 140 -50
t83 -122q156 146 266 146q69 0 130 -56t61 -110q0 -42 -42.5 -95.5t-106.5 -98.5t-146 -76t-154 -31q-33 0 -71 10q-66 -112 -66 -172q0 -72 82 -72q63 0 161.5 42t189 99.5t159 106.5t92.5 72q4 2 8 2zM686 754q-58 0 -138.5 -42t-137 -95.5t-56.5 -86.5q0 -36 73.5 -54.5
t188.5 -18.5h50q92 134 92 221q0 76 -72 76zM1180 723q-56 0 -150 -77t-176 -183h10q56 0 139.5 43.5t145 100.5t61.5 93q0 23 -30 23zM244 127q56 0 139.5 54.5t169.5 140.5q-154 3 -238 84q-47 -50 -84.5 -118t-37.5 -112q0 -49 51 -49z" />
    <glyph glyph-name="Racute" unicode="&#x154;" horiz-adv-x="1413" 
d="M1335 1616q-33 0 -56.5 17t-23.5 36q0 14 21 14q54 10 154.5 77t113.5 108q6 12 19 12q22 0 44.5 -27t22.5 -63q0 -40 -51.5 -81.5t-121 -67t-122.5 -25.5zM1806 1112q0 -103 -68 -203.5t-177 -180t-248 -146.5t-280.5 -111.5t-274.5 -67.5q91 -145 220.5 -277
t271.5 -218t249 -86q27 0 52 25.5t48 25.5t23 -23q0 -36 -79 -89.5t-163 -53.5q-102 0 -223.5 63.5t-233 165.5t-209 217t-169.5 230q-27 4 -39 10q-236 -337 -236 -463q0 -21 10.5 -34t10.5 -21q0 -20 -23 -20q-36 0 -81.5 55.5t-45.5 126.5q0 84 82.5 232t216.5 321
q-12 40 -12 67q0 25 45 52.5t96 40.5q168 199 323 338t216 139q42 0 82.5 -32t40.5 -54q0 -13 -21 -13q-78 -22 -231.5 -172t-319.5 -356l19 -45q150 25 322.5 85t327.5 140t257.5 182.5t102.5 200.5q0 105 -104 158t-302 53q-214 0 -455 -56.5t-431 -149t-261 -191.5
q33 -8 96 -8q52 0 127 10q-7 -29 -76 -68t-135 -39q-40 0 -83.5 58t-43.5 114q0 54 71 118t194 123t272.5 108t322 78.5t326.5 29.5q132 0 236.5 -22t171.5 -58.5t111 -87.5t62.5 -105.5t18.5 -115.5z" />
    <glyph glyph-name="racute" unicode="&#x155;" horiz-adv-x="772" 
d="M705 1149q-33 0 -56.5 17t-23.5 36q0 15 20 15q54 10 154.5 76.5t113.5 107.5q6 12 19 12q22 0 44.5 -27t22.5 -63q0 -40 -51.5 -81.5t-120.5 -67t-122 -25.5zM1018 465q12 0 23.5 -18.5t11.5 -38.5q0 -9 -4 -17q-167 -156 -341 -280.5t-243 -124.5q-48 0 -95.5 59
t-47.5 105q0 43 56 121t123 148.5t123 138.5t56 93q0 17 -24 27.5t-72 21.5q-134 -146 -308 -309q-4 -2 -8 -2q-14 0 -23 18t-9 39q0 13 2 17q148 135 258 254q-72 14 -114 35t-42 57q0 46 45 101t113.5 93.5t128.5 38.5q44 0 93.5 -29.5t49.5 -54.5q0 -43 -131 -196
q61 -16 88 -31q37 -21 58.5 -63t21.5 -74q0 -21 -47 -83t-103.5 -126t-103.5 -127t-47 -86q0 -14 18 -14q69 0 210 93.5t276 211.5q4 2 8 2zM492 823q0 -25 61 -41q104 125 104 164q0 17 -18 17q-40 0 -93.5 -50.5t-53.5 -89.5z" />
    <glyph glyph-name="uni0156" unicode="&#x156;" horiz-adv-x="1413" 
d="M1806 1112q0 -103 -68 -203.5t-177 -180t-248 -146.5t-280.5 -111.5t-274.5 -67.5q91 -145 220.5 -277t271.5 -218t249 -86q27 0 52 25.5t48 25.5t23 -23q0 -36 -79 -89.5t-163 -53.5q-102 0 -223.5 63.5t-233 165.5t-209 217t-169.5 230q-27 4 -39 10
q-236 -337 -236 -463q0 -21 10.5 -34t10.5 -21q0 -20 -23 -20q-36 0 -81.5 55.5t-45.5 126.5q0 84 82.5 232t216.5 321q-12 40 -12 67q0 25 45 52.5t96 40.5q168 199 323 338t216 139q42 0 82.5 -32t40.5 -54q0 -13 -21 -13q-78 -22 -231.5 -172t-319.5 -356l19 -45
q150 25 322.5 85t327.5 140t257.5 182.5t102.5 200.5q0 105 -104 158t-302 53q-214 0 -455 -56.5t-431 -149t-261 -191.5q33 -8 96 -8q52 0 127 10q-7 -29 -76 -68t-135 -39q-40 0 -83.5 58t-43.5 114q0 54 71 118t194 123t272.5 108t322 78.5t326.5 29.5q132 0 236.5 -22
t171.5 -58.5t111 -87.5t62.5 -105.5t18.5 -115.5zM614 -109q41 0 80 -28.5t39 -50.5q0 -13 -16 -13q-42 -18 -111.5 -95.5t-91.5 -123.5q-3 -8 -12 -8q-17 0 -35 24.5t-18 61.5q0 47 61 140t104 93z" />
    <glyph glyph-name="uni0157" unicode="&#x157;" horiz-adv-x="772" 
d="M1018 465q12 0 23.5 -18.5t11.5 -38.5q0 -9 -4 -17q-167 -156 -341 -280.5t-243 -124.5q-48 0 -95.5 59t-47.5 105q0 43 56 121t123 148.5t123 138.5t56 93q0 17 -24 27.5t-72 21.5q-134 -146 -308 -309q-4 -2 -8 -2q-14 0 -23 18t-9 39q0 13 2 17q148 135 258 254
q-72 14 -114 35t-42 57q0 46 45 101t113.5 93.5t128.5 38.5q44 0 93.5 -29.5t49.5 -54.5q0 -43 -131 -196q61 -16 88 -31q37 -21 58.5 -63t21.5 -74q0 -21 -47 -83t-103.5 -126t-103.5 -127t-47 -86q0 -14 18 -14q69 0 210 93.5t276 211.5q4 2 8 2zM492 823q0 -25 61 -41
q104 125 104 164q0 17 -18 17q-40 0 -93.5 -50.5t-53.5 -89.5zM252 -47q41 0 80 -29t39 -51q0 -12 -17 -12q-42 -18 -111 -95t-91 -124q-3 -9 -13 -9q-17 0 -35 24.5t-18 61.5q0 47 61.5 140.5t104.5 93.5z" />
    <glyph glyph-name="Rcaron" unicode="&#x158;" horiz-adv-x="1413" 
d="M1368 1579q-55 0 -97 25t-42 61q0 51 40 111.5t60 60.5q19 0 36 -11.5t17 -21.5q0 -4 -4 -8q-14 -14 -33 -67t-18 -74q58 21 132 70.5t136 101.5q4 8 13 8q17 0 36 -16t19 -31q0 -26 -52.5 -76.5t-124.5 -91.5t-118 -41zM1806 1112q0 -103 -68 -203.5t-177 -180
t-248 -146.5t-280.5 -111.5t-274.5 -67.5q91 -145 220.5 -277t271.5 -218t249 -86q27 0 52 25.5t48 25.5t23 -23q0 -36 -79 -89.5t-163 -53.5q-102 0 -223.5 63.5t-233 165.5t-209 217t-169.5 230q-27 4 -39 10q-236 -337 -236 -463q0 -21 10.5 -34t10.5 -21q0 -20 -23 -20
q-36 0 -81.5 55.5t-45.5 126.5q0 84 82.5 232t216.5 321q-12 40 -12 67q0 25 45 52.5t96 40.5q168 199 323 338t216 139q42 0 82.5 -32t40.5 -54q0 -13 -21 -13q-78 -22 -231.5 -172t-319.5 -356l19 -45q150 25 322.5 85t327.5 140t257.5 182.5t102.5 200.5q0 105 -104 158
t-302 53q-214 0 -455 -56.5t-431 -149t-261 -191.5q33 -8 96 -8q52 0 127 10q-7 -29 -76 -68t-135 -39q-40 0 -83.5 58t-43.5 114q0 54 71 118t194 123t272.5 108t322 78.5t326.5 29.5q132 0 236.5 -22t171.5 -58.5t111 -87.5t62.5 -105.5t18.5 -115.5z" />
    <glyph glyph-name="rcaron" unicode="&#x159;" horiz-adv-x="772" 
d="M737 1112q-55 0 -97 25t-42 61q0 51 40 111.5t60 60.5q19 0 36.5 -11.5t17.5 -21.5q0 -4 -4 -8q-14 -14 -33.5 -67t-18.5 -74q58 22 133 71t136 101q4 8 12 8q17 0 36 -16t19 -31q0 -26 -52.5 -76.5t-124.5 -91.5t-118 -41zM1018 465q12 0 23.5 -18.5t11.5 -38.5
q0 -9 -4 -17q-167 -156 -341 -280.5t-243 -124.5q-48 0 -95.5 59t-47.5 105q0 43 56 121t123 148.5t123 138.5t56 93q0 17 -24 27.5t-72 21.5q-134 -146 -308 -309q-4 -2 -8 -2q-14 0 -23 18t-9 39q0 13 2 17q148 135 258 254q-72 14 -114 35t-42 57q0 46 45 101t113.5 93.5
t128.5 38.5q44 0 93.5 -29.5t49.5 -54.5q0 -43 -131 -196q61 -16 88 -31q37 -21 58.5 -63t21.5 -74q0 -21 -47 -83t-103.5 -126t-103.5 -127t-47 -86q0 -14 18 -14q69 0 210 93.5t276 211.5q4 2 8 2zM492 823q0 -25 61 -41q104 125 104 164q0 17 -18 17q-40 0 -93.5 -50.5
t-53.5 -89.5z" />
    <glyph glyph-name="Sacute" unicode="&#x15a;" horiz-adv-x="1261" 
d="M1436 1610q-33 0 -56.5 17t-23.5 36q0 14 20 14q54 10 155 77t114 108q6 12 18 12q22 0 45 -27t23 -63q0 -40 -51.5 -81.5t-121 -67t-122.5 -25.5zM457 -156q-78 0 -142 16t-106 41t-74 58.5t-49 65t-27 65t-13 53.5t-3 35q0 35 20 56.5t43 21.5q12 0 20.5 -8t8.5 -23
q0 -10 -4 -28.5t-4 -30.5q0 -70 70 -105.5t192 -35.5q132 0 282 37t255.5 98t105.5 123q0 38 -248 77q-277 44 -290 48q-99 29 -167.5 125.5t-68.5 199.5q0 91 73 199t195 207t268 182t307 132.5t296 49.5q67 0 140 -39t122 -100t49 -119q0 -78 -71 -174.5t-172.5 -174.5
t-221 -131.5t-209.5 -53.5q-80 0 -129 41t-49 77q0 9 6 15t15 6q7 0 15 -4t19 -4q82 0 179.5 34t184 88t159.5 116t116 122.5t43 102.5q0 59 -102 59q-135 0 -293.5 -49t-298.5 -128t-257.5 -171.5t-186 -186.5t-68.5 -165q0 -27 20 -48t49 -34.5t77.5 -25t89 -17.5
t100.5 -13q86 -11 131 -17.5t100 -22t80 -35.5q57 -46 92 -118.5t35 -119.5q0 -83 -109 -170t-274.5 -143t-320.5 -56z" />
    <glyph glyph-name="sacute" unicode="&#x15b;" horiz-adv-x="649" 
d="M989 1313q22 0 45 -27t23 -63q0 -40 -51.5 -81.5t-121 -67t-122.5 -25.5q-33 0 -56.5 17t-23.5 36q0 14 20 14q54 10 155 76.5t114 107.5q7 13 18 13zM668 926q33 0 76.5 -28.5t43.5 -49.5q0 -9 -16 -12q-29 -15 -51 -52.5t-37 -102t-23.5 -117t-20.5 -141.5t-19 -132
q-22 -133 -85 -214t-169 -81q-80 0 -152 59t-72 115q0 21 21 45.5t35 24.5q8 0 8 -9q0 -14 6 -33.5t26.5 -40t51.5 -20.5q34 0 63.5 20.5t51.5 60t39 82.5t30.5 102.5t21.5 105t17 104.5q-98 -95 -238 -221q-4 -2 -8 -2q-14 0 -23 18t-9 39q0 13 2 17q74 64 173 164.5
t140 158.5q44 140 117 140z" />
    <glyph glyph-name="Scedilla" unicode="&#x15e;" horiz-adv-x="1230" 
d="M911 842q82 0 179.5 34t184 88t159.5 116t116 122.5t43 102.5q0 59 -102 59q-135 0 -293.5 -49t-298.5 -128t-257.5 -171.5t-186 -186.5t-68.5 -165q0 -27 20 -48t49 -34.5t77.5 -25t89 -17.5t100.5 -13q86 -11 131 -17.5t100 -22t80 -35.5q57 -46 92 -118.5t35 -119.5
q0 -75 -89.5 -153.5t-229.5 -135.5t-285 -74q-107 -155 -223.5 -236t-200.5 -81q-50 0 -80 29t-30 69q0 54 54.5 90.5t98.5 36.5q14 0 20 -6t-1 -18q-11 -11 -11 -37q0 -53 43 -53q45 0 105 61t110 139q-75 2 -137 19t-102 42t-71 58t-47 64t-26.5 64t-13 52.5t-2.5 34.5
q0 35 20 56.5t43 21.5q12 0 20.5 -8t8.5 -23q0 -10 -4 -28.5t-4 -30.5q0 -70 70 -105.5t192 -35.5q132 0 282 37t255.5 98t105.5 123q0 38 -248 77q-277 44 -290 48q-99 29 -167.5 125.5t-68.5 199.5q0 91 73 199t195 207t268 182t307 132.5t296 49.5q67 0 140 -39t122 -100
t49 -119q0 -78 -71 -174.5t-172.5 -174.5t-221 -131.5t-209.5 -53.5q-80 0 -129 41t-49 77q0 9 6 15t15 6q7 0 15 -4t19 -4z" />
    <glyph glyph-name="scedilla" unicode="&#x15f;" horiz-adv-x="649" 
d="M668 926q33 0 76.5 -28.5t43.5 -49.5q0 -9 -16 -12q-29 -15 -51 -52.5t-37 -102t-23.5 -117t-20.5 -141.5t-19 -132q-18 -113 -67.5 -190.5t-129.5 -98.5q-107 -156 -225 -238.5t-203 -82.5q-50 0 -80.5 29t-30.5 69q0 54 55 90.5t99 36.5q14 0 19.5 -6.5t-1.5 -18.5
q-10 -10 -10 -37q0 -53 43 -53q48 0 110 66t111 147q-66 18 -117 69.5t-51 96.5q0 21 21 45.5t35 24.5q8 0 8 -9q0 -14 6 -33.5t26.5 -40t51.5 -20.5q34 0 63.5 20.5t51.5 60t39 82.5t30.5 102.5t21.5 105t17 104.5q-98 -95 -238 -221q-4 -2 -8 -2q-14 0 -23 18t-9 39
q0 13 2 17q74 64 173 164.5t140 158.5q44 140 117 140z" />
    <glyph glyph-name="Scaron" unicode="&#x160;" horiz-adv-x="1230" 
d="M1776 1804q0 -26 -52.5 -76.5t-124.5 -91.5t-118 -41q-55 0 -97.5 25t-42.5 61q0 34 20.5 76t44.5 69t36 27q19 0 36 -11t17 -21q0 -5 -4 -9q-14 -14 -33 -67t-18 -74q58 21 132 70.5t136 101.5q4 8 12 8q17 0 36.5 -16t19.5 -31zM457 -156q-78 0 -142 16t-106 41
t-74 58.5t-49 65t-27 65t-13 53.5t-3 35q0 35 20 56.5t43 21.5q12 0 20.5 -8t8.5 -23q0 -10 -4 -28.5t-4 -30.5q0 -70 70 -105.5t192 -35.5q132 0 282 37t255.5 98t105.5 123q0 38 -248 77q-277 44 -290 48q-99 29 -167.5 125.5t-68.5 199.5q0 91 73 199t195 207t268 182
t307 132.5t296 49.5q67 0 140 -39t122 -100t49 -119q0 -78 -71 -174.5t-172.5 -174.5t-221 -131.5t-209.5 -53.5q-80 0 -129 41t-49 77q0 9 6 15t15 6q7 0 15 -4t19 -4q82 0 179.5 34t184 88t159.5 116t116 122.5t43 102.5q0 59 -102 59q-135 0 -293.5 -49t-298.5 -128
t-257.5 -171.5t-186 -186.5t-68.5 -165q0 -27 20 -48t49 -34.5t77.5 -25t89 -17.5t100.5 -13q86 -11 131 -17.5t100 -22t80 -35.5q57 -46 92 -118.5t35 -119.5q0 -83 -109 -170t-274.5 -143t-320.5 -56z" />
    <glyph glyph-name="scaron" unicode="&#x161;" horiz-adv-x="649" 
d="M1034 1268q17 0 36.5 -16t19.5 -31q0 -26 -52.5 -76.5t-124.5 -91.5t-118 -41q-55 0 -97.5 25t-42.5 61q0 34 20.5 76t44.5 69t36 27q19 0 36 -11.5t17 -21.5q0 -4 -4 -8q-14 -14 -33 -67.5t-18 -74.5q113 42 268 173q4 8 12 8zM668 926q33 0 76.5 -28.5t43.5 -49.5
q0 -9 -16 -12q-29 -15 -51 -52.5t-37 -102t-23.5 -117t-20.5 -141.5t-19 -132q-22 -133 -85 -214t-169 -81q-80 0 -152 59t-72 115q0 21 21 45.5t35 24.5q8 0 8 -9q0 -14 6 -33.5t26.5 -40t51.5 -20.5q34 0 63.5 20.5t51.5 60t39 82.5t30.5 102.5t21.5 105t17 104.5
q-98 -95 -238 -221q-4 -2 -8 -2q-14 0 -23 18t-9 39q0 13 2 17q74 64 173 164.5t140 158.5q44 140 117 140z" />
    <glyph glyph-name="uni0162" unicode="&#x162;" horiz-adv-x="927" 
d="M1882 1450q55 0 102.5 -51t47.5 -86q0 -29 -21 -29q-19 0 -45 23q-221 0 -534 -31q-163 -175 -380 -463.5t-382.5 -560.5t-165.5 -365q0 -30 20 -39q2 0 5.5 1t5.5 1q22 0 22 -22q0 -13 -11 -24t-30 -11q-37 0 -74 37q-97 -119 -196 -180.5t-172 -61.5q-50 0 -80.5 29.5
t-30.5 69.5q0 54 55 90.5t99 36.5q14 0 19.5 -6.5t-1.5 -18.5q-10 -10 -10 -37q0 -53 43 -53q48 0 110.5 65.5t110.5 145.5q-20 52 -20 96q0 88 137 318.5t327 483.5t361 439q-388 -56 -671.5 -146t-350.5 -194q17 -14 121 -14q52 0 127 10q-1 -24 -97 -65t-143 -41
q-51 0 -95 61t-44 111q0 77 118 150.5t313 130.5t422 99.5t468 69.5q39 35 61.5 50.5t42.5 15.5q48 0 93 -49q164 14 323 14z" />
    <glyph glyph-name="uni0163" unicode="&#x163;" horiz-adv-x="624" 
d="M909 1260q37 0 81 -30t44 -52q0 -14 -14 -17q-48 -17 -131 -95t-178 -194q223 7 252 13q12 0 12 -17q0 -18 -31 -30q-73 -36 -309 -56q-140 -176 -239 -339t-99 -230q0 -47 45 -47q65 0 232 95.5t288 201.5q4 2 8 2q12 0 23.5 -18.5t11.5 -38.5q0 -9 -4 -17
q-127 -118 -291 -228t-266 -145q-103 -148 -217.5 -225.5t-196.5 -77.5q-50 0 -80 29.5t-30 69.5q0 54 54.5 90.5t98.5 36.5q14 0 20 -6.5t-1 -18.5q-10 -10 -10 -37q0 -53 43 -53q45 0 103 59.5t108 137.5q-43 26 -76 74t-33 98q0 79 87.5 237t221.5 338h-61q-26 0 -41 1
t-31 5t-23.5 12.5t-7.5 22.5q0 27 22 58.5t38 31.5q7 0 10 -6q23 -18 172 -21q130 165 241 275.5t154 110.5z" />
    <glyph glyph-name="Tcaron" unicode="&#x164;" horiz-adv-x="927" 
d="M1552 1610q-55 0 -97 25t-42 61q0 51 40 111.5t60 60.5q19 0 36.5 -11.5t17.5 -21.5q0 -4 -4 -8q-14 -14 -33.5 -67t-18.5 -74q58 22 133 71t136 101q4 8 12 8q17 0 36 -16t19 -31q0 -26 -52.5 -76.5t-124.5 -91.5t-118 -41zM1882 1450q55 0 102.5 -51t47.5 -86
q0 -29 -21 -29q-19 0 -45 23q-221 0 -534 -31q-163 -175 -380 -463.5t-382.5 -560.5t-165.5 -365q0 -30 20 -39q2 0 5.5 1t5.5 1q22 0 22 -22q0 -13 -11 -24t-30 -11q-52 0 -99.5 67.5t-47.5 145.5q0 88 137 318.5t327 483.5t361 439q-388 -56 -671.5 -146t-350.5 -194
q17 -14 121 -14q52 0 127 10q-1 -24 -97 -65t-143 -41q-51 0 -95 61t-44 111q0 77 118 150.5t313 130.5t422 99.5t468 69.5q39 35 61.5 50.5t42.5 15.5q48 0 93 -49q164 14 323 14z" />
    <glyph glyph-name="tcaron" unicode="&#x165;" horiz-adv-x="624" 
d="M1374 1417q28 0 60 -22.5t32 -40.5q0 -12 -16 -15q-62 -41 -112 -88.5t-109 -122.5q-6 -18 -19 -18q-17 0 -33 17.5t-16 37.5q0 41 86.5 146.5t126.5 105.5zM909 1260q37 0 81 -30t44 -52q0 -14 -14 -17q-48 -17 -131 -95t-178 -194q223 7 252 13q12 0 12 -17
q0 -18 -31 -30q-73 -36 -309 -56q-140 -176 -239 -339t-99 -230q0 -47 45 -47q65 0 232 95.5t288 201.5q4 2 8 2q12 0 23.5 -18.5t11.5 -38.5q0 -9 -4 -17q-153 -141 -345 -263t-271 -122q-46 0 -102 61t-56 128q0 79 87.5 237t221.5 338h-61q-26 0 -41 1t-31 5t-23.5 12.5
t-7.5 22.5q0 27 22 58.5t38 31.5q7 0 10 -6q23 -18 172 -21q130 165 241 275.5t154 110.5z" />
    <glyph glyph-name="Tbar" unicode="&#x166;" horiz-adv-x="874" 
d="M1882 1450q55 0 102.5 -51t47.5 -86q0 -29 -21 -29q-19 0 -45 23q-221 0 -534 -31q-198 -210 -459 -571q52 -14 81 -38t29 -44q0 -17 -20 -17q-7 0 -19 5t-18 5q-54 0 -121 -6q-176 -248 -288.5 -446.5t-112.5 -276.5q0 -30 20 -39q2 0 5.5 1t5.5 1q22 0 22 -22
q0 -13 -11 -24t-30 -11q-52 0 -99.5 67.5t-47.5 145.5q0 69 82 221.5t217 350.5q-329 -58 -383 -115q-8 -4 -15 -4q-14 0 -14 20q0 30 27.5 75t54.5 60q43 27 168 53t254 42q233 322 434 538q-388 -56 -671.5 -146t-350.5 -194q17 -14 121 -14q52 0 127 10q-1 -24 -97 -65
t-143 -41q-51 0 -95 61t-44 111q0 77 118 150.5t313 130.5t422 99.5t468 69.5q39 35 61.5 50.5t42.5 15.5q48 0 93 -49q164 14 323 14z" />
    <glyph glyph-name="tbar" unicode="&#x167;" horiz-adv-x="624" 
d="M909 1260q37 0 81 -30t44 -52q0 -14 -14 -17q-48 -17 -131 -95t-178 -194q223 7 252 13q12 0 12 -17q0 -18 -31 -30q-73 -36 -309 -56q-89 -116 -117 -155q191 0 260 12q13 0 13 -16q0 -20 -43.5 -37t-113.5 -29t-106 -16.5t-73 -8.5q-158 -235 -158 -319q0 -47 45 -47
q65 0 232 95.5t288 201.5q4 2 8 2q12 0 23.5 -18.5t11.5 -38.5q0 -9 -4 -17q-153 -141 -345 -263t-271 -122q-45 0 -101.5 65t-56.5 124q0 99 141 329h-16q-26 0 -41 1t-31 5t-23 12.5t-7 22.5q0 27 21.5 58.5t37.5 31.5q7 0 10 -6q21 -15 117 -18q11 14 45.5 63.5
t54.5 75.5h-61q-26 0 -41 1t-31 5t-23.5 12.5t-7.5 22.5q0 27 22 58.5t38 31.5q7 0 10 -6q23 -18 172 -21q130 165 241 275.5t154 110.5z" />
    <glyph glyph-name="Utilde" unicode="&#x168;" horiz-adv-x="1271" 
d="M1800 1499q41 0 90 -35.5t49 -58.5q0 -12 -16 -12q-72 -43 -225.5 -239.5t-304.5 -428t-266.5 -457.5t-116.5 -319q0 -45 24 -55q2 0 5 1t5 1q11 0 18 -7.5t7 -17.5q0 -12 -10 -22.5t-29 -10.5q-52 0 -105 66t-53 135q0 123 105 311.5t303 464.5l-10 6
q-147 -164 -288 -309t-278 -270t-248.5 -198t-174.5 -73q-79 0 -149.5 79.5t-70.5 174.5q0 114 134 335.5t333 475.5q-28 7 -43.5 21.5t-15.5 29.5q0 8 5.5 15t14.5 8q20 7 127 93.5t193 164.5q148 148 197 148q41 0 86 -40.5t43 -68.5q0 -15 -17 -18q-54 -9 -203.5 -166
t-303.5 -355t-274 -397t-120 -281q0 -57 47 -57q60 0 196.5 95t298.5 239t334.5 311.5t312.5 315t226 247.5q126 158 168 158zM1282 1614q-8 0 -18.5 11t-10.5 20q0 50 73 105.5t124 55.5q34 0 60.5 -20.5t40 -45t31 -45t34.5 -20.5q21 0 39 10.5t26.5 20t20.5 29t14 22.5
q12 0 25.5 -14t13.5 -25q0 -44 -70 -88.5t-129 -44.5q-28 0 -55.5 20t-46 44.5t-40 44.5t-38.5 20q-7 0 -14.5 -5t-17.5 -16.5t-18 -21.5t-21.5 -28t-22.5 -29z" />
    <glyph glyph-name="utilde" unicode="&#x169;" horiz-adv-x="892" 
d="M1139 465q12 0 23.5 -18.5t11.5 -38.5q0 -7 -5 -17q-162 -149 -299.5 -252.5t-179.5 -103.5q-32 0 -72 44t-40 85q0 57 100 231q-138 -152 -284.5 -277.5t-209.5 -125.5q-42 0 -84.5 52.5t-42.5 102.5q0 70 93.5 238.5t203 308.5t150.5 140q32 0 77.5 -28.5t45.5 -47.5
q0 -9 -11 -13q-37 -14 -131.5 -134t-175 -254t-80.5 -181q0 -20 17 -20q35 0 140.5 88.5t217 200t198 203t99.5 108.5q6 6 17 6q30 0 70 -32t40 -52q0 -4 -4 -8q-43 -45 -169 -253t-85 -208q29 0 132 73.5t228 180.5q4 2 9 2zM627 987q-8 0 -18.5 11t-10.5 20q0 50 73 106
t124 56q34 0 60.5 -20.5t40 -45t31 -45t34.5 -20.5q21 0 39.5 10.5t26 19.5t20 29t14.5 22q12 0 25.5 -13.5t13.5 -24.5q0 -44 -70 -89t-129 -45q-28 0 -55.5 20t-46 44.5t-40 44.5t-38.5 20q-7 0 -14.5 -5t-17.5 -16.5t-18 -21.5t-21.5 -28t-22.5 -29z" />
    <glyph glyph-name="Umacron" unicode="&#x16a;" horiz-adv-x="1271" 
d="M1370 1579q-42 0 -74.5 5.5t-49.5 13.5t-27.5 18t-13.5 16.5t-3 12.5q0 31 39.5 63.5t71.5 32.5q22 0 28 -23q10 -8 49.5 -15t86.5 -7q82 0 133 26q30 23 51 23q35 0 35 -33q0 -14 -22.5 -35.5t-61.5 -44t-104 -38t-138 -15.5zM1800 1499q41 0 90 -35.5t49 -58.5
q0 -12 -16 -12q-72 -43 -225.5 -239.5t-304.5 -428t-266.5 -457.5t-116.5 -319q0 -45 24 -55q2 0 5 1t5 1q11 0 18 -7.5t7 -17.5q0 -12 -10 -22.5t-29 -10.5q-52 0 -105 66t-53 135q0 123 105 311.5t303 464.5l-10 6q-147 -164 -288 -309t-278 -270t-248.5 -198t-174.5 -73
q-79 0 -149.5 79.5t-70.5 174.5q0 114 134 335.5t333 475.5q-28 7 -43.5 21.5t-15.5 29.5q0 8 5.5 15t14.5 8q20 7 127 93.5t193 164.5q148 148 197 148q41 0 86 -40.5t43 -68.5q0 -15 -17 -18q-54 -9 -203.5 -166t-303.5 -355t-274 -397t-120 -281q0 -57 47 -57
q60 0 196.5 95t298.5 239t334.5 311.5t312.5 315t226 247.5q126 158 168 158z" />
    <glyph glyph-name="umacron" unicode="&#x16b;" horiz-adv-x="892" 
d="M766 934q-42 0 -74.5 5.5t-49.5 13t-27.5 17.5t-13.5 16.5t-3 12.5q0 31 39.5 64t71.5 33q22 0 28 -23q10 -8 49 -15t86 -7q83 0 134 26q30 23 51 23q35 0 35 -33q0 -14 -22.5 -35.5t-61.5 -44t-104 -38t-138 -15.5zM1139 465q12 0 23.5 -18.5t11.5 -38.5q0 -7 -5 -17
q-162 -149 -299.5 -252.5t-179.5 -103.5q-32 0 -72 44t-40 85q0 57 100 231q-138 -152 -284.5 -277.5t-209.5 -125.5q-42 0 -84.5 52.5t-42.5 102.5q0 70 93.5 238.5t203 308.5t150.5 140q32 0 77.5 -28.5t45.5 -47.5q0 -9 -11 -13q-37 -14 -131.5 -134t-175 -254
t-80.5 -181q0 -20 17 -20q35 0 140.5 88.5t217 200t198 203t99.5 108.5q6 6 17 6q30 0 70 -32t40 -52q0 -4 -4 -8q-43 -45 -169 -253t-85 -208q29 0 132 73.5t228 180.5q4 2 9 2z" />
    <glyph glyph-name="Uring" unicode="&#x16e;" horiz-adv-x="1271" 
d="M1485 1577q-110 0 -174 46.5t-64 100.5q0 24 22.5 44t55.5 32q7 17 31.5 30t62.5 13q114 0 186 -54t72 -103q0 -11 -12.5 -28t-34.5 -35.5t-61 -32t-84 -13.5zM1358 1741q-4 -36 63 -67.5t125 -31.5q31 0 31 17q0 27 -63 67.5t-121 40.5q-11 0 -17 -2q-12 -20 -18 -24z
M1800 1499q41 0 90 -35.5t49 -58.5q0 -12 -16 -12q-72 -43 -225.5 -239.5t-304.5 -428t-266.5 -457.5t-116.5 -319q0 -45 24 -55q2 0 5 1t5 1q11 0 18 -7.5t7 -17.5q0 -12 -10 -22.5t-29 -10.5q-52 0 -105 66t-53 135q0 123 105 311.5t303 464.5l-10 6q-147 -164 -288 -309
t-278 -270t-248.5 -198t-174.5 -73q-79 0 -149.5 79.5t-70.5 174.5q0 114 134 335.5t333 475.5q-28 7 -43.5 21.5t-15.5 29.5q0 8 5.5 15t14.5 8q20 7 127 93.5t193 164.5q148 148 197 148q41 0 86 -40.5t43 -68.5q0 -15 -17 -18q-54 -9 -203.5 -166t-303.5 -355t-274 -397
t-120 -281q0 -57 47 -57q60 0 196.5 95t298.5 239t334.5 311.5t312.5 315t226 247.5q126 158 168 158z" />
    <glyph glyph-name="uring" unicode="&#x16f;" horiz-adv-x="892" 
d="M881 932q-110 0 -174 46.5t-64 100.5q0 24 22.5 44t55.5 32q7 17 31.5 30t62.5 13q114 0 186 -54.5t72 -103.5q0 -11 -12.5 -28t-34.5 -35.5t-61 -31.5t-84 -13zM754 1096q-4 -36 63 -67.5t125 -31.5q31 0 31 17q0 27 -63.5 67.5t-121.5 40.5q-10 0 -16 -2
q-12 -20 -18 -24zM1139 465q12 0 23.5 -18.5t11.5 -38.5q0 -7 -5 -17q-162 -149 -299.5 -252.5t-179.5 -103.5q-32 0 -72 44t-40 85q0 57 100 231q-138 -152 -284.5 -277.5t-209.5 -125.5q-42 0 -84.5 52.5t-42.5 102.5q0 70 93.5 238.5t203 308.5t150.5 140
q32 0 77.5 -28.5t45.5 -47.5q0 -9 -11 -13q-37 -14 -131.5 -134t-175 -254t-80.5 -181q0 -20 17 -20q35 0 140.5 88.5t217 200t198 203t99.5 108.5q6 6 17 6q30 0 70 -32t40 -52q0 -4 -4 -8q-43 -45 -169 -253t-85 -208q29 0 132 73.5t228 180.5q4 2 9 2z" />
    <glyph glyph-name="Uhungarumlaut" unicode="&#x170;" horiz-adv-x="1271" 
d="M1270 1565q-19 0 -32 11t-13 21q0 11 8 11q40 28 99 144.5t59 162.5v4q0 16 22 16q30 0 61 -20.5t31 -50.5q0 -35 -43 -107t-100 -132t-92 -60zM1460 1608q46 32 106 114t60 123v4q0 17 21 17q25 0 52 -21t27 -51q0 -47 -92 -138t-139 -91q-19 0 -31 11t-12 21q0 11 8 11
zM1800 1499q41 0 90 -35.5t49 -58.5q0 -12 -16 -12q-72 -43 -225.5 -239.5t-304.5 -428t-266.5 -457.5t-116.5 -319q0 -45 24 -55q2 0 5 1t5 1q11 0 18 -7.5t7 -17.5q0 -12 -10 -22.5t-29 -10.5q-52 0 -105 66t-53 135q0 123 105 311.5t303 464.5l-10 6q-147 -164 -288 -309
t-278 -270t-248.5 -198t-174.5 -73q-79 0 -149.5 79.5t-70.5 174.5q0 114 134 335.5t333 475.5q-28 7 -43.5 21.5t-15.5 29.5q0 8 5.5 15t14.5 8q20 7 127 93.5t193 164.5q148 148 197 148q41 0 86 -40.5t43 -68.5q0 -15 -17 -18q-54 -9 -203.5 -166t-303.5 -355t-274 -397
t-120 -281q0 -57 47 -57q60 0 196.5 95t298.5 239t334.5 311.5t312.5 315t226 247.5q126 158 168 158z" />
    <glyph glyph-name="uhungarumlaut" unicode="&#x171;" horiz-adv-x="892" 
d="M666 920q-19 0 -32 11t-13 21q0 11 8 11q40 28 98.5 144.5t58.5 162.5v4q0 16 23 16q30 0 61 -20.5t31 -50.5q0 -35 -43 -107t-100 -132t-92 -60zM856 963q46 32 106 114t60 123v4q0 17 20 17q25 0 52.5 -21t27.5 -51q0 -47 -92 -138t-139 -91q-19 0 -31 11t-12 21
q0 11 8 11zM1139 465q12 0 23.5 -18.5t11.5 -38.5q0 -7 -5 -17q-162 -149 -299.5 -252.5t-179.5 -103.5q-32 0 -72 44t-40 85q0 57 100 231q-138 -152 -284.5 -277.5t-209.5 -125.5q-42 0 -84.5 52.5t-42.5 102.5q0 70 93.5 238.5t203 308.5t150.5 140q32 0 77.5 -28.5
t45.5 -47.5q0 -9 -11 -13q-37 -14 -131.5 -134t-175 -254t-80.5 -181q0 -20 17 -20q35 0 140.5 88.5t217 200t198 203t99.5 108.5q6 6 17 6q30 0 70 -32t40 -52q0 -4 -4 -8q-43 -45 -169 -253t-85 -208q29 0 132 73.5t228 180.5q4 2 9 2z" />
    <glyph glyph-name="Uogonek" unicode="&#x172;" horiz-adv-x="1271" 
d="M1800 1499q41 0 90 -35.5t49 -58.5q0 -12 -16 -12q-72 -43 -225.5 -239.5t-304.5 -428t-266.5 -457.5t-116.5 -319q0 -45 24 -55q2 0 5 1t5 1q11 0 18 -7.5t7 -17.5q0 -12 -10 -22.5t-29 -10.5q-22 0 -49 17q-58 -37 -108.5 -76t-94 -86.5t-43.5 -79.5q0 -19 25 -19
q27 0 70.5 20t72.5 44q7 12 17 12q12 0 22 -16.5t10 -32.5q0 -35 -90 -85t-145 -50q-45 0 -83 35.5t-38 79.5q0 24 12 49.5t39 52.5t52.5 49.5t71 52.5t74.5 48.5t81 50.5q-54 68 -54 135q0 123 105 311.5t303 464.5l-10 6q-147 -164 -288 -309t-278 -270t-248.5 -198
t-174.5 -73q-79 0 -149.5 79.5t-70.5 174.5q0 114 134 335.5t333 475.5q-28 7 -43.5 21.5t-15.5 29.5q0 8 5.5 15t14.5 8q20 7 127 93.5t193 164.5q148 148 197 148q41 0 86 -40.5t43 -68.5q0 -15 -17 -18q-54 -9 -203.5 -166t-303.5 -355t-274 -397t-120 -281q0 -57 47 -57
q60 0 196.5 95t298.5 239t334.5 311.5t312.5 315t226 247.5q126 158 168 158z" />
    <glyph glyph-name="uogonek" unicode="&#x173;" horiz-adv-x="892" 
d="M715 41q-213 -146 -213 -219q0 -19 24 -19q27 0 71 20t73 44q7 12 16 12q12 0 22.5 -16.5t10.5 -32.5q0 -35 -90.5 -85t-145.5 -50q-45 0 -83 35.5t-38 79.5q0 58 69.5 121t193.5 141q-47 47 -47 92q0 57 100 231q-138 -152 -284.5 -277.5t-209.5 -125.5
q-42 0 -84.5 52.5t-42.5 102.5q0 70 93.5 238.5t203 308.5t150.5 140q32 0 77.5 -28.5t45.5 -47.5q0 -9 -11 -13q-37 -14 -131.5 -134t-175 -254t-80.5 -181q0 -20 17 -20q35 0 140.5 88.5t217 200t198 203t99.5 108.5q6 6 17 6q30 0 70 -32t40 -52q0 -4 -4 -8
q-43 -45 -169 -253t-85 -208q29 0 132 73.5t228 180.5q4 2 9 2q12 0 23.5 -18.5t11.5 -38.5q0 -7 -5 -17q-140 -129 -267.5 -228t-186.5 -122z" />
    <glyph glyph-name="Wcircumflex" unicode="&#x174;" horiz-adv-x="1835" 
d="M1366 1565q-11 0 -22 15t-11 28q0 23 57 68.5t136 82.5t131 37q44 0 79.5 -40.5t35.5 -80.5q0 -43 -38 -100t-83 -57q-27 0 -44.5 12t-17.5 26q0 12 10 17q43 64 43 84q0 29 -32 29q-35 0 -104.5 -35t-127.5 -80q-3 -6 -12 -6zM2085 1640q85 0 153 -81t68 -183
q0 -93 -63.5 -241t-164 -307.5t-230.5 -323.5t-259 -293.5t-253.5 -211t-209.5 -81.5q-40 0 -82.5 22t-78.5 60t-59 97.5t-23 127.5q0 209 200 588q-160 -175 -338 -357t-347 -350t-210 -210q-12 -15 -32 -15q-38 0 -82.5 44.5t-44.5 76.5q0 10 6 16q299 427 586 918
q-24 -6 -41 -6q-43 0 -43 20q0 10 10 17q35 35 131.5 202t128.5 281q3 16 22 16q35 0 86.5 -52t51.5 -95q0 -82 -212 -447.5t-438 -681.5q243 220 576.5 565t486.5 531q8 10 23.5 32t23.5 32q0 22 25 22q36 0 81.5 -37.5t45.5 -72.5q0 -21 -12 -27q-72 -69 -202.5 -270.5
t-243.5 -440t-113 -360.5q0 -101 86 -101q69 0 178.5 81.5t226.5 210.5t238 291t215.5 318t154.5 297.5t60 225.5q0 57 -49 57q-65 0 -141 -39.5t-130 -105.5q-4 16 -4 26q0 61 79 138t163 77z" />
    <glyph glyph-name="wcircumflex" unicode="&#x175;" horiz-adv-x="1189" 
d="M791 977q-11 0 -23 12.5t-12 26.5q0 24 54 73.5t130.5 91.5t128.5 42q46 0 83.5 -40t37.5 -81q0 -44 -36 -101t-79 -57q-27 0 -44 10.5t-17 24.5q0 9 10 16q39 65 39 84q0 29 -31 29q-34 0 -102 -38.5t-127 -86.5q-3 -6 -12 -6zM1241 913q37 0 86 -52.5t49 -112.5
q0 -63 -72.5 -185.5t-171 -241t-209.5 -207.5t-180 -89q-63 0 -113 62.5t-50 148.5q0 68 49 186q-101 -122 -222.5 -245t-216.5 -202q-16 -16 -38 -16q-40 0 -81.5 44t-41.5 85q0 13 6 25q126 211 246 437.5t120 274.5q0 2 -1 6.5t-1 6.5q0 16 21 16q34 0 82.5 -39t48.5 -80
q0 -23 -63 -132t-169 -279.5t-124 -200.5q127 106 325 310.5t307 348.5q7 13 23 13q24 0 55.5 -20.5t49 -45.5t3.5 -37q-67 -55 -152 -228t-85 -257q0 -43 29 -43q64 0 181 131t208.5 294.5t91.5 248.5q0 22 -6 36t-6 19q0 20 22 20z" />
    <glyph glyph-name="Ycircumflex" unicode="&#x176;" horiz-adv-x="1241" 
d="M1563 1552q-26 0 -44 12.5t-18 26.5q0 12 10 17q43 64 43 84q0 28 -32 28q-36 0 -105 -35t-127 -79q-4 -7 -12 -7q-11 0 -22 15t-11 28q0 23 57 68.5t136 83t131 37.5q44 0 79 -40t35 -81q0 -43 -37.5 -100.5t-82.5 -57.5zM1788 1507q42 0 85.5 -36.5t43.5 -61.5
q0 -10 -12 -10q-79 -39 -257.5 -275.5t-354.5 -518.5t-310.5 -552t-134.5 -368q0 -32 22 -41q2 0 6.5 1t6.5 1q10 0 16 -7t6 -16q0 -12 -10.5 -23.5t-28.5 -11.5q-65 0 -129.5 72.5t-64.5 149.5q0 54 42.5 150t102 197t156 243.5t172.5 248.5t183 253q10 14 16 22t14.5 19.5
t15.5 21.5l-8 6q-188 -206 -389.5 -394.5t-382.5 -318t-264 -129.5q-75 0 -141 80.5t-66 175.5t104.5 269.5t264.5 377.5q-33 7 -51.5 22.5t-18.5 30.5q0 22 20 25q21 7 134 97.5t208 172.5q146 136 181 136q40 0 89.5 -40t49.5 -67q0 -17 -25 -20q-45 -10 -175 -142.5
t-266.5 -300t-243.5 -340.5t-107 -252q0 -57 49 -57q89 0 354.5 204t526.5 448t401 403q126 155 170 155z" />
    <glyph glyph-name="ycircumflex" unicode="&#x177;" horiz-adv-x="919" 
d="M961 920q-27 0 -44.5 12t-17.5 26q0 12 10 17q0 1 8.5 12.5t12.5 18t10 17.5t9 20t3 16q0 28 -32 28q-36 0 -105 -35t-127 -79q-3 -6 -12 -6q-11 0 -22 15t-11 28q0 23 57 68.5t136 82.5t131 37q44 0 79 -40t35 -81q0 -43 -37.5 -100t-82.5 -57zM61 -502q-73 0 -119 52
t-46 106q0 27 13.5 51.5t44 48.5t64.5 45.5t89.5 48.5t104 49t123 56.5t132.5 62.5q184 244 328 512q-61 -80 -176.5 -199.5t-242 -221t-181.5 -101.5q-42 0 -84.5 53t-42.5 103q0 70 90.5 234t197.5 300t148 136q32 0 77.5 -29t45.5 -49q0 -7 -11 -11
q-36 -13 -127.5 -128.5t-170 -246t-78.5 -177.5q0 -21 16 -21q35 0 139 86t213.5 194.5t194.5 197.5t98 106q9 6 21 6q30 0 68 -30t38 -52q0 -6 -4 -10q-115 -240 -291 -510q233 134 424 303q4 2 8 2q12 0 23.5 -18.5t11.5 -38.5q0 -9 -4 -17q-172 -165 -561 -377
q-370 -516 -574 -516zM4 -377q77 0 190.5 85t196.5 192q-411 -199 -411 -258q0 -19 24 -19z" />
    <glyph glyph-name="Ydieresis" unicode="&#x178;" horiz-adv-x="1241" 
d="M1368 1806q64 0 64 -45t-55 -100t-97 -55q-18 0 -28.5 12.5t-10.5 28.5q0 43 46.5 101t80.5 58zM1589 1769q64 0 64 -45q0 -44 -51.5 -99.5t-92.5 -55.5q-36 0 -36 37q0 45 41.5 104t74.5 59zM1788 1507q42 0 85.5 -36.5t43.5 -61.5q0 -10 -12 -10q-79 -39 -257.5 -275.5
t-354.5 -518.5t-310.5 -552t-134.5 -368q0 -32 22 -41q2 0 6.5 1t6.5 1q10 0 16 -7t6 -16q0 -12 -10.5 -23.5t-28.5 -11.5q-65 0 -129.5 72.5t-64.5 149.5q0 54 42.5 150t102 197t156 243.5t172.5 248.5t183 253q10 14 16 22t14.5 19.5t15.5 21.5l-8 6
q-188 -206 -389.5 -394.5t-382.5 -318t-264 -129.5q-75 0 -141 80.5t-66 175.5t104.5 269.5t264.5 377.5q-33 7 -51.5 22.5t-18.5 30.5q0 22 20 25q21 7 134 97.5t208 172.5q146 136 181 136q40 0 89.5 -40t49.5 -67q0 -17 -25 -20q-45 -10 -175 -142.5t-266.5 -300
t-243.5 -340.5t-107 -252q0 -57 49 -57q89 0 354.5 204t526.5 448t401 403q126 155 170 155z" />
    <glyph glyph-name="Zacute" unicode="&#x179;" horiz-adv-x="1286" 
d="M1208 1565q-33 0 -56.5 17t-23.5 36q0 14 21 14q54 10 154.5 77t113.5 108q6 12 19 12q22 0 44.5 -27t22.5 -63q0 -40 -51.5 -81.5t-121 -67t-122.5 -25.5zM1763 1503q6 6 15 6q26 0 55 -49t29 -90q0 -32 -29 -41q-241 -159 -671.5 -521t-811.5 -708q178 47 382.5 81
t326.5 34q79 0 130.5 -47.5t51.5 -93.5q0 -35 -35 -35q-8 0 -12.5 5.5t-5 8.5l-2.5 15q-7 22 -58 22q-199 0 -466.5 -77.5t-458.5 -162.5q-12 -8 -19 -8q-36 0 -77 73.5t-41 131.5q0 34 22 45q195 197 646.5 584t762.5 594q-203 -47 -430 -77t-336 -30q-97 0 -150 50.5
t-53 140.5q0 21 8 32t19 11q15 0 26.5 -18.5t8.5 -47.5q0 -41 131 -41q200 0 575.5 80t466.5 133z" />
    <glyph glyph-name="zacute" unicode="&#x17a;" horiz-adv-x="868" 
d="M705 942q-33 0 -56.5 17t-23.5 36q0 15 20 15q54 10 154.5 76.5t113.5 107.5q6 12 19 12q22 0 44.5 -27t22.5 -63q0 -40 -51.5 -81.5t-120.5 -67t-122 -25.5zM977 838q22 0 46 -39.5t24 -71.5q0 -26 -19 -31q-46 -22 -164.5 -118.5t-210 -178t-239.5 -215.5
q218 54 336 54q71 0 94 -23q47 -44 47 -84q0 -14 -10 -14q-12 0 -35 20q-21 6 -58 6q-102 0 -263.5 -48t-217.5 -91q-10 -10 -22 -10q-33 0 -74 45.5t-41 83.5q0 28 27 37q53 42 270 239t311 277q-147 -30 -250 -39q-161 -165 -252 -246q-4 -2 -8 -2q-14 0 -23 18t-9 39
q0 13 2 17q85 73 190 182q-13 15 -22 45t-9 58q0 26 8.5 43.5t20.5 17.5q4 0 6 -2q0 -15 54.5 -25t134.5 -10q217 0 344 62q8 4 12 4z" />
    <glyph glyph-name="Zdotaccent" unicode="&#x17b;" horiz-adv-x="1286" 
d="M1350 1759q75 0 75 -57q0 -55 -53.5 -109.5t-103.5 -54.5q-22 0 -35.5 15.5t-13.5 35.5q0 53 44.5 111.5t86.5 58.5zM1763 1503q6 6 15 6q26 0 55 -49t29 -90q0 -32 -29 -41q-241 -159 -671.5 -521t-811.5 -708q178 47 382.5 81t326.5 34q79 0 130.5 -47.5t51.5 -93.5
q0 -35 -35 -35q-8 0 -12.5 5.5t-5 8.5l-2.5 15q-7 22 -58 22q-199 0 -466.5 -77.5t-458.5 -162.5q-12 -8 -19 -8q-36 0 -77 73.5t-41 131.5q0 34 22 45q195 197 646.5 584t762.5 594q-203 -47 -430 -77t-336 -30q-97 0 -150 50.5t-53 140.5q0 21 8 32t19 11q15 0 26.5 -18.5
t8.5 -47.5q0 -41 131 -41q200 0 575.5 80t466.5 133z" />
    <glyph glyph-name="zdotaccent" unicode="&#x17c;" horiz-adv-x="868" 
d="M764 915q-22 0 -35.5 16t-13.5 36q0 53 44.5 111.5t86.5 58.5q76 0 76 -58q0 -55 -54 -109.5t-104 -54.5zM977 838q22 0 46 -39.5t24 -71.5q0 -26 -19 -31q-46 -22 -164.5 -118.5t-210 -178t-239.5 -215.5q218 54 336 54q71 0 94 -23q47 -44 47 -84q0 -14 -10 -14
q-12 0 -35 20q-21 6 -58 6q-102 0 -263.5 -48t-217.5 -91q-10 -10 -22 -10q-33 0 -74 45.5t-41 83.5q0 28 27 37q53 42 270 239t311 277q-147 -30 -250 -39q-161 -165 -252 -246q-4 -2 -8 -2q-14 0 -23 18t-9 39q0 13 2 17q85 73 190 182q-13 15 -22 45t-9 58q0 26 8.5 43.5
t20.5 17.5q4 0 6 -2q0 -15 54.5 -25t134.5 -10q217 0 344 62q8 4 12 4z" />
    <glyph glyph-name="Zcaron" unicode="&#x17d;" horiz-adv-x="1286" 
d="M1536 1737q0 -26 -52.5 -76.5t-124.5 -91.5t-118 -41q-55 0 -97 25t-42 61q0 51 40 111.5t60 60.5q19 0 36 -11.5t17 -21.5q0 -4 -4 -8q-14 -14 -33 -67t-18 -74q58 21 132 70.5t136 101.5q4 8 13 8q17 0 36 -16t19 -31zM1763 1503q6 6 15 6q26 0 55 -49t29 -90
q0 -32 -29 -41q-241 -159 -671.5 -521t-811.5 -708q178 47 382.5 81t326.5 34q79 0 130.5 -47.5t51.5 -93.5q0 -35 -35 -35q-8 0 -12.5 5.5t-5 8.5l-2.5 15q-7 22 -58 22q-199 0 -466.5 -77.5t-458.5 -162.5q-12 -8 -19 -8q-36 0 -77 73.5t-41 131.5q0 34 22 45
q195 197 646.5 584t762.5 594q-203 -47 -430 -77t-336 -30q-97 0 -150 50.5t-53 140.5q0 21 8 32t19 11q15 0 26.5 -18.5t8.5 -47.5q0 -41 131 -41q200 0 575.5 80t466.5 133z" />
    <glyph glyph-name="zcaron" unicode="&#x17e;" horiz-adv-x="868" 
d="M737 905q-55 0 -97 25t-42 61q0 51 40 111.5t60 60.5q19 0 36.5 -11.5t17.5 -21.5q0 -4 -4 -8q-14 -14 -33.5 -67t-18.5 -74q58 22 133 71t136 101q4 8 12 8q17 0 36 -16t19 -31q0 -26 -52.5 -76.5t-124.5 -91.5t-118 -41zM977 838q22 0 46 -39.5t24 -71.5q0 -26 -19 -31
q-46 -22 -164.5 -118.5t-210 -178t-239.5 -215.5q218 54 336 54q71 0 94 -23q47 -44 47 -84q0 -14 -10 -14q-12 0 -35 20q-21 6 -58 6q-102 0 -263.5 -48t-217.5 -91q-10 -10 -22 -10q-33 0 -74 45.5t-41 83.5q0 28 27 37q53 42 270 239t311 277q-147 -30 -250 -39
q-161 -165 -252 -246q-4 -2 -8 -2q-14 0 -23 18t-9 39q0 13 2 17q85 73 190 182q-13 15 -22 45t-9 58q0 26 8.5 43.5t20.5 17.5q4 0 6 -2q0 -15 54.5 -25t134.5 -10q217 0 344 62q8 4 12 4z" />
    </font>
</defs>
</svg>
